<?xml version="1.0" standalone="no"?>
<!DOCTYPE svg PUBLIC "-//W3C//DTD SVG 1.1//EN" "http://www.w3.org/Graphics/SVG/1.1/DTD/svg11.dtd" >
<svg xmlns="http://www.w3.org/2000/svg" xmlns:xlink="http://www.w3.org/1999/xlink" version="1.1">
<metadata>
Created by FontForge 20190801 at Fri Apr 29 23:32:16 2022
 By www-data
Copyright 2015 The Public Sans Project Authors (https://github.com/uswds/public-sans)
</metadata>
<defs>
<font id="PublicSansRegular" horiz-adv-x="0" >
  <font-face 
    font-family="PublicSansRegular"
    font-weight="400"
    font-stretch="normal"
    units-per-em="2000"
    panose-1="0 0 0 0 0 0 0 0 0 0"
    ascent="1600"
    descent="-400"
    x-height="1034"
    cap-height="1446"
    bbox="-313 -480 2496 2125"
    underline-thickness="140"
    underline-position="-440"
    unicode-range="U+000D-FB02"
  />
<missing-glyph horiz-adv-x="1372" 
d="M229 1652h918q34 0 34 -42v-1876q0 -56 -64 -56h-873q-31 0 -42 12t-11 36v1880q0 46 38 46zM1080 -113v1633q0 34 -29 34h-688zM293 1433v-1617q0 -19 9.5 -29.5t34.5 -10.5h669z" />
    <glyph glyph-name="fi" unicode="fi" horiz-adv-x="1287" 
d="M291 0v899h-219v135h219v160q0 123 62.5 187.5t187.5 64.5h195l1 -131h-154q-64 0 -87 -34t-23 -103v-144h254v-135h-251v-899h-185zM950 0v1034h179v-1034h-179zM945 1253v192h189v-192h-189z" />
    <glyph glyph-name="fl" unicode="fl" horiz-adv-x="1398" 
d="M291 0v899h-219v135h219v160q0 123 62.5 187.5t187.5 64.5h195l1 -131h-154q-64 0 -87 -34t-23 -103v-144h254v-135h-251v-899h-185zM1206 -13q-84 0 -135.5 23t-79 62t-37 89.5t-9.5 104.5v1220h182v-1202q0 -78 30.5 -117t85.5 -43l56 -1v-120q-23 -7 -48 -11.5
t-45 -4.5z" />
    <glyph glyph-name=".notdef" horiz-adv-x="1372" 
d="M229 1652h918q34 0 34 -42v-1876q0 -56 -64 -56h-873q-31 0 -42 12t-11 36v1880q0 46 38 46zM1080 -113v1633q0 34 -29 34h-688zM293 1433v-1617q0 -19 9.5 -29.5t34.5 -10.5h669z" />
    <glyph glyph-name="uni0000" horiz-adv-x="53" 
 />
    <glyph glyph-name="uni0000" horiz-adv-x="53" 
 />
    <glyph glyph-name="nonmarkingreturn" horiz-adv-x="666" 
 />
    <glyph glyph-name="CR" unicode="&#xd;" horiz-adv-x="467" 
 />
    <glyph glyph-name="space" unicode=" " horiz-adv-x="486" 
 />
    <glyph glyph-name="exclam" unicode="!" horiz-adv-x="502" 
d="M185 367l-49 1079h221l-48 -1079h-124zM136 0v233h220v-233h-220z" />
    <glyph glyph-name="quotedbl" unicode="&#x22;" horiz-adv-x="851" 
d="M549 979l-58 467h224l-60 -467h-106zM194 979l-58 467h224l-60 -467h-106z" />
    <glyph glyph-name="numbersign" unicode="#" horiz-adv-x="1206" 
d="M761 -3l-114 16l218 1436l113 -13zM73 469v113h989v-113h-989zM351 -3l-114 16l218 1436l113 -13zM137 879v113h989v-113h-989z" />
    <glyph glyph-name="dollar" unicode="$" horiz-adv-x="1317" 
d="M678 -20q-229 0 -379.5 98.5t-179.5 291.5l194 12q32 -122 128 -183t236 -61q84 0 157.5 29t119 81t45.5 123q0 95 -56.5 152t-179.5 90l-249 65q-161 41 -255 129t-95 236q-1 125 65.5 220t184 148t271.5 53q148 0 255.5 -56.5t167 -149.5t63.5 -203l-188 -10
q-22 129 -94.5 195.5t-203.5 66.5q-62 0 -119.5 -15.5t-103 -46.5t-72.5 -77t-27 -107q0 -78 55 -123.5t198 -89.5l240 -68q184 -51 262.5 -158.5t78.5 -248.5q0 -115 -65 -203.5t-182.5 -139t-271.5 -50.5zM588 -209v258h171v-258h-171zM600 1404v258h171v-258h-171z" />
    <glyph glyph-name="percent" unicode="%" horiz-adv-x="1808" 
d="M340 -8l977 1470h121l-972 -1470h-126zM450 643q-99 0 -176.5 51.5t-122.5 144t-45 215.5q0 124 45 217t122.5 145t176.5 52q97 0 174 -52t121 -145t44 -217q0 -123 -43.5 -215.5t-120.5 -144t-175 -51.5zM448 746q96 0 148.5 79t52.5 229q0 152 -53 231.5t-148 79.5
q-96 0 -148.5 -80t-52.5 -231q0 -149 52.5 -228.5t148.5 -79.5zM1355 -20q-99 0 -177 50.5t-122 143.5t-44 219q0 125 44.5 218t122.5 144.5t176 51.5t175 -51.5t121 -144.5t44 -218q0 -126 -43.5 -219t-120.5 -143.5t-176 -50.5zM1353 84q97 0 149 79t52 228
q0 153 -52.5 232.5t-148.5 79.5q-95 0 -147.5 -80t-52.5 -232q0 -148 52 -227.5t148 -79.5z" />
    <glyph glyph-name="ampersand" unicode="&#x26;" horiz-adv-x="1417" 
d="M523 -10q-141 0 -238.5 47.5t-147.5 131.5t-50 194q0 95 37.5 171.5t114 141.5t191.5 126q-56 60 -96.5 115.5t-62 112t-21.5 120.5q0 90 47.5 162t131.5 114t194 42q106 0 196 -38t145 -107t55 -163q0 -38 -15.5 -83t-52.5 -95.5t-104 -104.5t-170 -109l317 -371
q19 27 46.5 81.5t51.5 130.5t29 170h182q-14 -103 -47 -189t-77.5 -161t-92.5 -143l244 -286h-216l-140 161q-110 -90 -224.5 -130.5t-226.5 -40.5zM563 138q84 0 169 37.5t149 99.5l-357 415q-104 -57 -171 -138.5t-62 -183.5q4 -71 42 -122.5t98.5 -79.5t131.5 -28z
M594 871q105 61 160 109t75.5 90.5t20.5 85.5q0 67 -32.5 108t-83 59.5t-104.5 17.5q-95 -1 -144.5 -54.5t-49.5 -125.5q0 -49 21 -97.5t50 -88.5t52 -65z" />
    <glyph glyph-name="quotesingle" unicode="'" horiz-adv-x="496" 
d="M194 979l-58 467h224l-60 -467h-106z" />
    <glyph glyph-name="parenleft" unicode="(" horiz-adv-x="605" 
d="M410 -247q-83 140 -143.5 277t-94 284t-33.5 317q0 248 80 476.5t206 413.5h127q-102 -194 -168 -424.5t-66 -467.5q0 -225 56 -438.5t162 -437.5h-126z" />
    <glyph glyph-name="parenright" unicode=")" horiz-adv-x="618" 
d="M55 -247q106 224 162 437.5t56 438.5q0 237 -66 467.5t-168 424.5h127q126 -185 205.5 -413.5t79.5 -476.5q0 -170 -33 -317t-94 -284t-143 -277h-126z" />
    <glyph glyph-name="asterisk" unicode="*" horiz-adv-x="788" 
d="M237 765l-110 75l189 235l-263 74l42 117l251 -101l-18 281h136l-18 -282l254 110l38 -117l-257 -81l184 -226l-111 -79l-156 253z" />
    <glyph glyph-name="plus" unicode="+" horiz-adv-x="1109" 
d="M485 296l-2 863h144l1 -863h-143zM123 654v144l863 1v-143z" />
    <glyph glyph-name="comma" unicode="," horiz-adv-x="483" 
d="M87 -251l112 247l-87 5v221h231v-192l-170 -281h-86z" />
    <glyph glyph-name="hyphen" unicode="-" horiz-adv-x="755" 
d="M124 443v145l507 2v-146z" />
    <glyph glyph-name="period" unicode="." horiz-adv-x="450" 
d="M110 0v236h220v-236h-220z" />
    <glyph glyph-name="slash" unicode="/" horiz-adv-x="701" 
d="M27 -77l500 1523h144l-501 -1523h-143z" />
    <glyph glyph-name="zero" unicode="0" horiz-adv-x="1224" 
d="M611 -22q-237 0 -376 186.5t-139 552.5q0 247 64 414t180 251t273 84q235 0 374.5 -188.5t139.5 -557.5q0 -367 -139 -554.5t-377 -187.5zM613 138q155 0 234.5 136.5t79.5 444.5q0 314 -80.5 452.5t-234.5 138.5q-153 0 -235.5 -139.5t-82.5 -451.5q0 -307 82 -444
t237 -137z" />
    <glyph glyph-name="one" unicode="1" horiz-adv-x="814" 
d="M372 0v1151h-279v121q130 0 202 19t102.5 58t33.5 97h132v-1446h-191z" />
    <glyph glyph-name="two" unicode="2" horiz-adv-x="1192" 
d="M124 0v113v59q0 111 41.5 192t110 141.5t150 108.5t163 92.5t149.5 93t109.5 110t41.5 145.5q0 110 -77.5 179t-209.5 69q-142 0 -228 -80t-97 -213h-184q3 125 62 228.5t173 165.5t281 62q145 0 252 -51.5t165.5 -144t58.5 -215.5q0 -112 -41 -192t-108.5 -138.5
t-147.5 -104.5t-161 -88.5t-148 -89t-108 -106.5t-41 -143v-29h763v-164h-969z" />
    <glyph glyph-name="three" unicode="3" horiz-adv-x="1260" 
d="M607 -22q-149 1 -262.5 55t-178.5 151.5t-70 231.5h185q21 -135 110 -207t223 -72q106 0 185 33.5t122 92.5t43 138q0 87 -48 147t-131 91.5t-185 32.5l-130 3v157l124 3q95 2 170 36.5t118.5 91t43.5 124.5q0 60 -37 111.5t-106.5 82.5t-168.5 31q-78 0 -149 -30.5
t-117 -93.5t-49 -163h-184q0 140 68 238.5t181.5 150.5t250.5 52q150 0 265 -43.5t180 -126.5t65 -203q0 -107 -68 -193.5t-208 -135.5q95 -26 166 -76t110 -122.5t39 -166.5q0 -99 -41.5 -177.5t-116.5 -133t-177 -83t-222 -27.5z" />
    <glyph glyph-name="four" unicode="4" horiz-adv-x="1257" 
d="M774 0v369h-681v169l674 908h188v-914h240v-163h-240v-369h-181zM270 532h500v671z" />
    <glyph glyph-name="five" unicode="5" horiz-adv-x="1281" 
d="M659 -22q-134 0 -248 47t-195.5 131t-119.5 193l160 67q36 -82 90.5 -146t129.5 -100t170 -36q154 0 247.5 89.5t93.5 243.5q0 96 -44 167.5t-118.5 111.5t-164.5 40q-59 0 -110 -10.5t-101 -40.5t-105 -91q-6 -3 -9 -2.5t-10 3.5l-156 49l65 752h863l-5 -160h-700
l-37 -467q72 67 157.5 95.5t185.5 28.5q131 0 241.5 -53.5t177.5 -158t67 -258.5q0 -150 -65 -261t-183 -172.5t-277 -61.5z" />
    <glyph glyph-name="six" unicode="6" horiz-adv-x="1245" 
d="M646 -22q-168 0 -291.5 87t-191 248.5t-67.5 387.5q0 232 65.5 404t191.5 266.5t309 94.5q120 0 221.5 -45t168.5 -129t83 -203h-174q-29 103 -105 163t-191 60q-128 0 -213.5 -72.5t-124.5 -212t-27 -342.5q27 73 82.5 128.5t129.5 86t160 30.5q143 0 250 -55.5
t167 -158t60 -244.5q0 -145 -61.5 -256.5t-174.5 -174.5t-267 -63zM644 131q89 0 158 42t108.5 117t39.5 173q0 99 -35.5 170t-104.5 109t-168 38q-79 0 -151.5 -37.5t-118 -98.5t-45.5 -135q-1 -110 38.5 -195.5t111.5 -134t167 -48.5z" />
    <glyph glyph-name="seven" unicode="7" horiz-adv-x="1201" 
d="M354 0q16 99 57.5 245t109.5 319.5t164 358.5t220 363h-812v160h1015v-160q-77 -105 -152.5 -238.5t-143.5 -279t-122 -287t-89.5 -266t-45.5 -215.5h-201z" />
    <glyph glyph-name="eight" unicode="8" horiz-adv-x="1295" 
d="M647 -22q-166 0 -290 51.5t-192.5 144.5t-68.5 218q0 84 42.5 161t109.5 131t140 68q-99 42 -163.5 122t-64.5 198q0 126 64 214t174.5 134t248.5 46q139 0 249 -46t174 -134t64 -214q0 -118 -63.5 -198t-163.5 -122q73 -14 139.5 -68t109.5 -131t43 -161
q0 -125 -68.5 -218t-192.5 -144.5t-291 -51.5zM647 128q161 0 257 72.5t96 192.5q0 79 -43.5 141t-122.5 97.5t-187 35.5q-107 0 -185.5 -35.5t-122 -97.5t-43.5 -141q0 -120 95.5 -192.5t255.5 -72.5zM647 830q132 0 214.5 65t82.5 181q0 117 -83 184.5t-214 67.5t-214 -68
t-83 -184t83 -181t214 -65z" />
    <glyph glyph-name="nine" unicode="9" horiz-adv-x="1249" 
d="M581 -22q-120 0 -223.5 45.5t-173 129.5t-85.5 201h180q25 -99 104 -160.5t192 -61.5q128 0 219.5 67t136.5 207t34 359q-25 -76 -79 -133.5t-130 -90.5t-168 -33q-143 0 -252 56t-169.5 160t-60.5 249t60 256t172 174t266 63q168 0 291 -86.5t190 -248t67 -387.5
q0 -243 -66.5 -414t-194 -261.5t-310.5 -90.5zM608 665q80 0 152 37t117.5 98.5t45.5 134.5q1 112 -38 197.5t-111 134t-168 48.5q-88 0 -155.5 -42t-106 -117t-38.5 -174q0 -145 77 -231t225 -86z" />
    <glyph glyph-name="colon" unicode=":" horiz-adv-x="451" 
d="M110 758v235h221v-235h-221zM110 6v233h221v-233h-221z" />
    <glyph glyph-name="semicolon" unicode=";" horiz-adv-x="480" 
d="M110 -285l114 285h-85v234h221v-207l-170 -312h-80zM133 753v237h221v-237h-221z" />
    <glyph glyph-name="less" unicode="&#x3c;" horiz-adv-x="1091" 
d="M967 278l-844 329v169l845 334v-174l-624 -245l623 -243v-170z" />
    <glyph glyph-name="equal" unicode="=" horiz-adv-x="1109" 
d="M123 848v143l863 1v-143zM123 404v143l863 2v-144z" />
    <glyph glyph-name="greater" unicode="&#x3e;" horiz-adv-x="1091" 
d="M124 278v170l624 243l-625 245v174l845 -334v-169z" />
    <glyph glyph-name="question" unicode="?" horiz-adv-x="1042" 
d="M408 372q0 114 37 197.5t92 150t109.5 126t92 123t37.5 142.5q0 99 -71 156.5t-185 57.5q-65 0 -127.5 -26t-111 -70.5t-70.5 -100.5l-165 49q64 136 189.5 212.5t286.5 76.5q134 0 234 -44.5t154.5 -123t54.5 -179.5q0 -102 -40 -176.5t-99.5 -136.5t-119 -123.5
t-100 -136t-40.5 -174.5h-158zM378 0v233h219v-233h-219z" />
    <glyph glyph-name="at" unicode="@" horiz-adv-x="1662" 
d="M848 -220q-178 0 -317.5 57t-237.5 157t-149 232t-51 283q0 158 55.5 298.5t160 248.5t249 170t322.5 62q127 0 250 -36.5t222.5 -112t158.5 -194t59 -282.5q0 -150 -49.5 -263.5t-135 -177.5t-194.5 -64q-77 0 -119 26.5t-58 75.5q-5 13 -9 13t-14 -11
q-43 -56 -109.5 -94t-159.5 -38q-75 0 -138.5 42.5t-102 120t-37.5 182.5q0 123 48 225.5t133.5 164t197.5 61.5q81 0 135.5 -33t87.5 -87q4 -4 8.5 -2.5t5.5 9.5l17 63h125l-74 -444q-14 -85 6 -117t68 -32q62 0 114 43.5t84.5 126t32.5 198.5q0 141 -48 239.5t-129 159.5
t-179 89t-199 28q-157 0 -278 -52.5t-203 -143.5t-124.5 -210t-42.5 -253q0 -130 42 -241t124.5 -194t203 -129t276.5 -46q90 0 152.5 17t112 46t100.5 63l71 -93q-86 -67 -205 -109t-259 -42zM753 261q63 0 116.5 37.5t89 98.5t44.5 133q12 87 -10.5 146t-65.5 89t-94 30
q-70 0 -123.5 -42t-83.5 -112t-30 -155q0 -101 40.5 -163t116.5 -62z" />
    <glyph glyph-name="A" unicode="A" horiz-adv-x="1420" 
d="M83 0l523 1446h209l523 -1446h-189l-142 396h-593l-143 -396h-188zM463 566h493l-246 699z" />
    <glyph glyph-name="B" unicode="B" horiz-adv-x="1341" 
d="M191 0v1446h465q264 0 399.5 -97t135.5 -280q0 -115 -59.5 -197t-208.5 -135q85 -18 143.5 -52t94 -79.5t51 -100.5t15.5 -116q0 -196 -139.5 -292.5t-416.5 -96.5h-480zM376 154h293q181 0 275.5 59.5t94.5 183.5q0 91 -46.5 147.5t-125.5 82.5t-176 26h-315v-499z
M376 810h315q57 0 113 11t103 38t76 72.5t29 114.5q0 126 -96.5 186.5t-250.5 60.5h-289v-483z" />
    <glyph glyph-name="C" unicode="C" horiz-adv-x="1377" 
d="M723 -20q-195 0 -332.5 89t-210 256t-72.5 403q0 235 72 400t209.5 251.5t333.5 86.5q153 0 271 -63.5t190 -169.5t85 -233h-197q-16 85 -61 154t-118 110t-175 41q-131 0 -221.5 -61.5t-137 -189.5t-46.5 -328q0 -302 103.5 -443.5t301.5 -141.5q102 0 175 43t118 115
t61 156h197q-11 -92 -49.5 -177.5t-105.5 -152.5t-164.5 -106t-226.5 -39z" />
    <glyph glyph-name="D" unicode="D" horiz-adv-x="1387" 
d="M191 0v1446q7 0 42.5 -0.5t86.5 0t106 0t101 -1.5q266 -4 431.5 -86.5t243 -239.5t77.5 -386q0 -240 -83.5 -403t-254 -246t-433.5 -83h-317zM381 159h127q179 0 308 55.5t198.5 180.5t69.5 334t-67.5 331t-194.5 174.5t-306 52.5h-135v-1128z" />
    <glyph glyph-name="E" unicode="E" horiz-adv-x="1241" 
d="M191 0v1446h912l-1 -163h-725v-472h653v-162h-654v-482l746 -2v-165h-931z" />
    <glyph glyph-name="F" unicode="F" horiz-adv-x="1188" 
d="M191 0v1446h901l-1 -162h-710v-478h638v-160h-638v-646h-190z" />
    <glyph glyph-name="G" unicode="G" horiz-adv-x="1466" 
d="M722 -20q-190 0 -328 87.5t-212 252.5t-74 399q0 236 75.5 403t215.5 255.5t331 88.5q109 0 205 -38t170 -103.5t118.5 -149.5t50.5 -175h-198q-14 80 -62 149t-121.5 111t-165.5 42q-125 0 -219.5 -61.5t-147 -189.5t-52.5 -328q0 -154 32 -264t89.5 -178.5t135 -101
t167.5 -32.5q91 0 158.5 32t112.5 82.5t69.5 109t26.5 112.5l6 128h-352v136l544 -1v-746h-139v220q-38 -62 -96 -117t-141.5 -89t-198.5 -34z" />
    <glyph glyph-name="H" unicode="H" horiz-adv-x="1532" 
d="M191 0v1446h185v-616h780v616h185v-1446h-185v667h-780v-667h-185z" />
    <glyph glyph-name="I" unicode="I" horiz-adv-x="566" 
d="M191 0v1446h185v-1446h-185z" />
    <glyph glyph-name="J" unicode="J" horiz-adv-x="777" 
d="M317 -20q-77 0 -144.5 18t-89.5 27l13 177q31 -11 71.5 -27.5t100.5 -16.5q98 0 134.5 54t36.5 182v1052h185v-1105q0 -115 -26 -196t-92.5 -123t-188.5 -42z" />
    <glyph glyph-name="K" unicode="K" horiz-adv-x="1364" 
d="M191 0v1446h192v-748l648 748h221l-483 -568l525 -878h-209l-451 743l-251 -287v-456h-192z" />
    <glyph glyph-name="L" unicode="L" horiz-adv-x="1155" 
d="M191 0l1 1446h189v-1280h683v-166h-873z" />
    <glyph glyph-name="M" unicode="M" horiz-adv-x="1771" 
d="M191 0v1446h256l436 -1194l442 1194h255v-1446h-191v1169l-419 -1169h-173l-416 1158v-1158h-190z" />
    <glyph glyph-name="N" unicode="N" horiz-adv-x="1508" 
d="M191 0v1446h177l764 -1124v1124h185v-1446h-165l-776 1140v-1140h-185z" />
    <glyph glyph-name="O" unicode="O" horiz-adv-x="1468" 
d="M736 -20q-193 0 -334 87t-217.5 252.5t-76.5 400.5q0 237 77 403.5t218.5 254.5t332.5 88q192 0 332 -87.5t216 -254t76 -404.5q0 -235 -75.5 -400.5t-215.5 -252.5t-333 -87zM736 141q134 0 228 61t143.5 189t49.5 327q0 202 -50 332t-144 192.5t-227 62.5
q-132 0 -227 -63t-146 -193t-51 -331q0 -199 51 -327t146 -189t227 -61z" />
    <glyph glyph-name="P" unicode="P" horiz-adv-x="1273" 
d="M191 0v1446h489q155 0 276 -52t190.5 -154t69.5 -251q0 -144 -64.5 -246t-179.5 -155t-267 -53h-324v-535h-190zM380 691h321q149 0 242 83t93 226q0 144 -96 218t-248 74h-312v-601z" />
    <glyph glyph-name="Q" unicode="Q" horiz-adv-x="1495" 
d="M1349 -242q-71 0 -150 17.5t-154.5 69t-138.5 153.5q-50 -9 -90 -13.5t-81 -4.5q-191 0 -332 85.5t-218 250.5t-77 404q0 238 76.5 405t217.5 254t333 87q193 0 333.5 -87t216 -254t75.5 -405q0 -224 -66.5 -384.5t-215.5 -256.5q37 -82 109.5 -121.5t161.5 -42.5v-157z
M735 141q202 0 312.5 139t110.5 439q0 297 -109.5 441.5t-313.5 144.5q-203 0 -312.5 -145t-109.5 -444q0 -298 110.5 -436.5t311.5 -138.5z" />
    <glyph glyph-name="R" unicode="R" horiz-adv-x="1353" 
d="M191 0v1446h560q156 0 261 -47.5t157 -136t52 -211.5q0 -118 -41.5 -196t-105.5 -125.5t-133 -73.5l284 -656h-196l-264 623h-389v-623h-185zM376 776h315q163 0 252 66.5t89 197.5q0 128 -79.5 191.5t-217.5 63.5h-359v-519z" />
    <glyph glyph-name="S" unicode="S" horiz-adv-x="1340" 
d="M681 -20q-106 0 -201 25.5t-172.5 76.5t-128 126.5t-63.5 175.5h194q18 -82 71.5 -138t133 -84t174.5 -28q92 0 169.5 29t124.5 84.5t47 133.5q0 86 -56 138.5t-173 84.5l-298 77q-101 25 -178.5 70.5t-121.5 120t-44 185.5q0 123 68 214.5t184.5 142t263.5 50.5
q170 0 286.5 -59t176.5 -155t60 -205h-190q-9 99 -58 156.5t-122 83t-159 25.5q-155 0 -234.5 -70.5t-79.5 -167.5q0 -89 57 -140t168 -79l290 -75q129 -30 205.5 -87t110 -132.5t33.5 -163.5q0 -120 -67 -214t-187.5 -147.5t-283.5 -53.5z" />
    <glyph glyph-name="T" unicode="T" horiz-adv-x="1187" 
d="M513 0v1276h-467v170h1094v-170h-441v-1276h-186z" />
    <glyph glyph-name="U" unicode="U" horiz-adv-x="1401" 
d="M719 -20q-188 0 -304.5 62t-170 182t-53.5 295v927h192v-955q0 -175 87 -262t249 -87q109 0 185.5 38t117 115.5t40.5 195.5v955h186v-946q0 -167 -55 -283t-171.5 -176.5t-302.5 -60.5z" />
    <glyph glyph-name="V" unicode="V" horiz-adv-x="1345" 
d="M561 0l-515 1446h183l443 -1236l443 1236h183l-514 -1446h-223z" />
    <glyph glyph-name="W" unicode="W" horiz-adv-x="1907" 
d="M463 0l-417 1446h187l320 -1151l326 1151h145l325 -1151l326 1151h186l-422 -1446h-171l-317 1121l-322 -1121h-166z" />
    <glyph glyph-name="X" unicode="X" horiz-adv-x="1376" 
d="M83 0l490 738l-473 708h228l360 -551l357 551h204l-462 -689l507 -757h-229l-392 596l-386 -596h-204z" />
    <glyph glyph-name="Y" unicode="Y" horiz-adv-x="1214" 
d="M517 0v616l-493 830h202l384 -665l378 665h203l-490 -831v-615h-184z" />
    <glyph glyph-name="Z" unicode="Z" horiz-adv-x="1274" 
d="M127 0v102l792 1183h-758v161h1017v-98l-799 -1185h795v-163h-1047z" />
    <glyph glyph-name="bracketleft" unicode="[" horiz-adv-x="606" 
d="M180 -322l-1 1768h373v-119h-210l-1 -1530h210v-119h-371z" />
    <glyph glyph-name="backslash" unicode="\" horiz-adv-x="701" 
d="M526 -77l-499 1523h143l501 -1523h-145z" />
    <glyph glyph-name="bracketright" unicode="]" horiz-adv-x="606" 
d="M55 -322v119h210l-1 1530h-210v119h373l-1 -1768h-371z" />
    <glyph glyph-name="asciicircum" unicode="^" horiz-adv-x="946" 
d="M699 256l-232 585l-234 -582h-144l298 723q18 45 48.5 61.5t61.5 2t50 -62.5l299 -727h-147z" />
    <glyph glyph-name="underscore" unicode="_" horiz-adv-x="1035" 
d="M123 -237v145l785 1v-145z" />
    <glyph glyph-name="grave" unicode="`" horiz-adv-x="437" 
d="M284 1155l-274 291h211l206 -291h-143z" />
    <glyph glyph-name="a" unicode="a" horiz-adv-x="1106" 
d="M443 -20q-101 0 -177.5 35.5t-120 102.5t-43.5 162q0 172 120 256t385 90l184 5v81q0 95 -57 150.5t-176 55.5q-89 -1 -157 -42t-87 -134h-163q6 101 56.5 170.5t142.5 105.5t217 36q135 0 224.5 -38t134 -112t44.5 -182v-722h-158l-14 194q-59 -121 -151.5 -167.5
t-203.5 -46.5zM498 113q53 0 104.5 19t94 51.5t68.5 73t26 83.5v177l-153 -3q-119 -2 -198 -24t-119 -69t-40 -123q0 -87 61 -136t156 -49z" />
    <glyph glyph-name="b" unicode="b" horiz-adv-x="1193" 
d="M664 -20q-91 0 -153.5 24t-102.5 61.5t-62 77t-32 69.5l-20 -212h-141v1486h186v-616q13 26 39.5 57t68.5 60t99.5 48t131.5 19q194 0 308.5 -135t114.5 -398q0 -163 -49 -284.5t-146 -189t-242 -67.5zM631 122q126 0 205 97.5t79 310.5q0 181 -73.5 280.5t-214.5 99.5
q-103 0 -165.5 -44.5t-92 -129.5t-30.5 -206q0 -217 67.5 -312.5t224.5 -95.5z" />
    <glyph glyph-name="c" unicode="c" horiz-adv-x="1087" 
d="M569 -20q-140 0 -247.5 61t-168 180t-60.5 292q0 162 55.5 283.5t162 189.5t258.5 68q111 0 199.5 -42.5t145.5 -120.5t70 -184h-164q-9 54 -41.5 99t-85 72t-123.5 27q-133 0 -216.5 -96t-83.5 -294q0 -179 76.5 -286.5t225.5 -107.5q71 0 124 27.5t85 73t41 97.5h161
q-13 -104 -70.5 -180t-146 -117.5t-197.5 -41.5z" />
    <glyph glyph-name="d" unicode="d" horiz-adv-x="1193" 
d="M530 -20q-202 0 -319.5 138t-117.5 403q0 161 47 281t141 186t234 66q75 0 132 -19t99 -48t68.5 -60t39.5 -57v616h187v-1486h-142l-20 212q-10 -30 -32 -69.5t-61.5 -77t-102.5 -61.5t-153 -24zM563 122q156 0 223.5 95.5t67.5 312.5q-1 121 -30 206t-91.5 129.5
t-166.5 44.5q-127 0 -207 -91t-80 -289q0 -194 72 -301t212 -107z" />
    <glyph glyph-name="e" unicode="e" horiz-adv-x="1133" 
d="M590 -20q-144 0 -254 63t-172 181t-62 283q0 163 56 286t162.5 192t256.5 69q146 0 247 -63t153.5 -177.5t52.5 -271.5v-68h-741q0 -98 32.5 -177.5t98.5 -126.5t167 -47q99 0 170.5 46t91.5 133h174q-18 -105 -83.5 -177t-157 -108.5t-192.5 -36.5zM290 599h562
q0 89 -30 160.5t-91.5 113t-154.5 41.5q-97 0 -161 -46.5t-95 -119t-30 -149.5z" />
    <glyph glyph-name="f" unicode="f" horiz-adv-x="792" 
d="M291 0v899h-219v135h219v160q0 123 62.5 187.5t187.5 64.5h195l1 -131h-154q-64 0 -87 -34t-23 -103v-144h254v-135h-251v-899h-185z" />
    <glyph glyph-name="g" unicode="g" horiz-adv-x="1245" 
d="M590 -342q-243 0 -379 70.5t-136 201.5q0 56 26 95.5t62 65.5t67 41.5t41 22.5q-18 10 -43 25t-44.5 40t-19.5 65q0 49 46 90t137 61q-91 46 -142 122t-51 165q0 100 54 174t155 113.5t241 39.5q101 0 169.5 -23.5t127.5 -66.5q16 7 51 21.5t76.5 31.5t78 32.5t58.5 23.5
l-1 -171l-181 -34q16 -32 25 -70t9 -71q0 -91 -47.5 -165t-143.5 -118t-240 -44q-12 0 -30.5 0.5t-31.5 1.5q-106 -3 -145.5 -23.5t-39.5 -45.5q0 -29 45 -40t152 -19q39 -2 96.5 -5t128.5 -8q162 -10 250 -83t88 -197q0 -141 -125.5 -230t-383.5 -89zM623 -223
q143 0 219.5 43t76.5 130q0 62 -47 101.5t-142 45.5l-290 19q-39 2 -81 -19.5t-71 -59.5t-29 -86q0 -82 89 -128t275 -46zM592 515q111 0 179.5 52t68.5 154q0 105 -68.5 160t-179.5 55q-114 0 -183.5 -55.5t-69.5 -159.5q0 -98 66.5 -152t186.5 -54z" />
    <glyph glyph-name="h" unicode="h" horiz-adv-x="1153" 
d="M153 0v1486h180v-604q26 43 70 80.5t107 61t146 23.5q101 0 183 -37.5t130 -106.5t48 -164v-739h-185v702q0 93 -63.5 143.5t-165.5 50.5q-69 0 -130 -22.5t-98.5 -68t-37.5 -115.5v-690h-184z" />
    <glyph glyph-name="i" unicode="i" horiz-adv-x="495" 
d="M158 0v1034h179v-1034h-179zM153 1253v192h189v-192h-189z" />
    <glyph glyph-name="j" unicode="j" horiz-adv-x="525" 
d="M84 -332q-85 0 -107.5 12l-22.5 12v123l102 5q70 5 98 37t28 103v1074h185v-1080q0 -145 -62.5 -215.5t-220.5 -70.5zM176 1253v192h196v-192h-196z" />
    <glyph glyph-name="k" unicode="k" horiz-adv-x="1123" 
d="M153 0v1486h184v-969l486 517h212l-373 -394l399 -640h-196l-324 519l-204 -211v-308h-184z" />
    <glyph glyph-name="l" unicode="l" horiz-adv-x="606" 
d="M414 -13q-84 0 -135.5 23t-79 62t-37 89.5t-9.5 104.5v1220h182v-1202q0 -78 30.5 -117t85.5 -43l56 -1v-120q-23 -7 -48 -11.5t-45 -4.5z" />
    <glyph glyph-name="m" unicode="m" horiz-adv-x="1730" 
d="M153 0v1034h178v-150q43 68 118 119t195 51q56 0 114.5 -19t107.5 -57t76 -93q48 76 130 122.5t185 46.5q54 0 113 -16.5t109.5 -58t82.5 -115t32 -188.5v-676h-186v658q0 94 -30 145.5t-78.5 72.5t-103.5 21q-48 0 -102 -19t-92 -64t-38 -123v-691h-184v712
q0 61 -32.5 102t-81 62t-96.5 21q-53 0 -106.5 -21t-90 -66.5t-36.5 -118.5v-691h-184z" />
    <glyph glyph-name="n" unicode="n" horiz-adv-x="1154" 
d="M153 0v1034h179v-150q25 43 69.5 81t108 61t146.5 23q98 0 180.5 -39t132 -121.5t49.5 -212.5v-676h-185v658q0 121 -63.5 179.5t-164.5 58.5q-70 0 -131 -22.5t-99 -68t-38 -114.5v-691h-184z" />
    <glyph glyph-name="o" unicode="o" horiz-adv-x="1131" 
d="M567 -20q-143 0 -249.5 61.5t-165.5 180.5t-59 291q0 162 55 284t161 189.5t259 67.5q143 0 248 -62.5t163.5 -183.5t58.5 -295q0 -158 -54 -278t-158.5 -187.5t-258.5 -67.5zM568 126q92 0 156 47t97.5 135t33.5 209q0 111 -29.5 199.5t-92.5 140.5t-165 52
q-94 0 -159 -46.5t-98.5 -134.5t-33.5 -211q0 -109 29.5 -198t94 -141t167.5 -52z" />
    <glyph glyph-name="p" unicode="p" horiz-adv-x="1191" 
d="M153 -322v1356h184l2 -180q18 32 46.5 67t70 65t97 49t126.5 19q124 0 218.5 -56.5t147.5 -172.5t53 -294t-51.5 -300.5t-148.5 -186.5t-234 -64q-69 0 -122.5 19.5t-93 51t-66 67.5t-43.5 69v-509h-186zM629 124q128 0 209 97.5t81 303.5q0 177 -74 281t-216 104
q-144 0 -218 -106.5t-74 -278.5q0 -111 33 -202t98 -145t161 -54z" />
    <glyph glyph-name="q" unicode="q" horiz-adv-x="1191" 
d="M852 -322v509q-16 -33 -43 -69t-66.5 -67.5t-93 -51t-122.5 -19.5q-125 0 -223 57.5t-154.5 179.5t-56.5 314q0 165 48.5 282t142 179t228.5 62q71 0 126.5 -19t97 -49t70 -65t46.5 -67l2 180h185v-1356h-187zM562 124q96 0 161 54t98 145t33 202q0 172 -73.5 278.5
t-218.5 106.5q-127 0 -208.5 -95t-81.5 -290q0 -187 74.5 -294t215.5 -107z" />
    <glyph glyph-name="r" unicode="r" horiz-adv-x="782" 
d="M153 0v1034h176v-199q26 74 73 122.5t107.5 72.5t125.5 24q23 0 45 -3t34 -10v-179q-15 7 -38.5 9.5t-39.5 2.5q-62 4 -116 -7.5t-95 -39.5t-64.5 -73.5t-23.5 -110.5v-643h-184z" />
    <glyph glyph-name="s" unicode="s" horiz-adv-x="1012" 
d="M525 -20q-108 0 -200.5 33.5t-153.5 105t-76 182.5h168q13 -61 50 -101.5t91.5 -61t119.5 -20.5q105 0 169 39t64 120q0 57 -33.5 91.5t-104.5 50.5l-214 53q-125 30 -199.5 94t-75.5 179q0 91 44 160t131.5 109t218.5 40q169 0 272 -75.5t108 -221.5h-164
q-10 74 -66 117.5t-152 43.5q-98 0 -160.5 -39.5t-62.5 -122.5q0 -55 44.5 -86.5t129.5 -52.5l208 -52q71 -19 118 -50t74 -69t38.5 -79.5t11.5 -79.5q0 -95 -47 -163.5t-136 -106t-215 -37.5z" />
    <glyph glyph-name="t" unicode="t" horiz-adv-x="778" 
d="M532 -5q-107 0 -166 29t-82.5 86t-23.5 140v649h-168v135h173l45 301h136v-300h233v-136h-233v-643q0 -55 11.5 -80.5t38.5 -32.5t76 -7h113v-124q-19 -7 -57.5 -12t-95.5 -5z" />
    <glyph glyph-name="u" unicode="u" horiz-adv-x="1161" 
d="M533 -20q-81 1 -152.5 23.5t-126.5 66.5t-86.5 109.5t-31.5 152.5v702h185v-683q0 -101 62.5 -164t188.5 -63q114 0 183.5 59.5t69.5 177.5v673h184v-1034h-147l-19 198q-19 -78 -64.5 -126t-109 -70.5t-136.5 -21.5z" />
    <glyph glyph-name="v" unicode="v" horiz-adv-x="1009" 
d="M421 0l-374 1034h174l275 -802h17l276 802h173l-372 -1034h-169z" />
    <glyph glyph-name="w" unicode="w" horiz-adv-x="1560" 
d="M372 0l-320 1034h172l236 -795h16l233 795h140l242 -793h17l226 793h174l-314 -1034h-182l-235 763l-225 -763h-180z" />
    <glyph glyph-name="x" unicode="x" horiz-adv-x="1129" 
d="M63 0l398 537l-366 497h201l269 -363l269 363h202l-368 -497l398 -537h-201l-301 405l-299 -405h-202z" />
    <glyph glyph-name="y" unicode="y" horiz-adv-x="1070" 
d="M256 -330q-91 0 -125 13l-34 13v120l106 -2q57 -2 95 8t61 27t35.5 38t20.5 40l36 98l-404 1009h187l305 -798l303 798h181l-435 -1112q-41 -98 -90.5 -153t-110 -77t-131.5 -22z" />
    <glyph glyph-name="z" unicode="z" horiz-adv-x="961" 
d="M76 0v115l584 783h-559v136h779v-115l-583 -783h588v-136h-809z" />
    <glyph glyph-name="braceleft" unicode="{" horiz-adv-x="655" 
d="M504 -322q-78 0 -136.5 25.5t-91.5 72.5t-33 112v432q0 47 -24 90.5t-74.5 71.5t-127.5 28v112q117 1 171.5 56.5t54.5 142.5v420q0 64 34 110t92 70.5t132 24.5h101v-119h-72q-51 0 -77.5 -12t-36.5 -35t-10 -55v-426q-1 -74 -29.5 -122.5t-73.5 -73.5t-94 -30
q-12 -1 -12.5 -6t12.5 -7q48 -4 93 -26.5t74 -71t30 -129.5v-430q0 -55 26.5 -80.5t98.5 -25.5h71v-119h-98z" />
    <glyph glyph-name="bar" unicode="|" horiz-adv-x="526" 
d="M192 -322l-1 1974h145v-1974h-144z" />
    <glyph glyph-name="braceright" unicode="}" horiz-adv-x="664" 
d="M38 -322v119h71q73 0 99 25.5t26 80.5v430q1 81 30 129.5t74 71t93 26.5q14 2 13 7t-13 6q-49 5 -93.5 30t-73.5 73.5t-30 122.5v426q0 32 -9.5 55t-36.5 35t-78 12h-72v119h101q74 0 132.5 -24.5t92 -70.5t33.5 -110v-420q0 -87 54.5 -142.5t171.5 -56.5v-112
q-77 0 -127 -28t-74.5 -71.5t-24.5 -90.5v-432q0 -65 -33 -112t-91.5 -72.5t-136.5 -25.5h-98z" />
    <glyph glyph-name="asciitilde" unicode="~" horiz-adv-x="1136" 
d="M170 605l-53 105q56 55 118 95.5t152 40.5q57 0 103.5 -16t88.5 -36.5t85 -36.5t93 -16q75 0 122 34.5t78 77.5l56 -107q-36 -57 -101 -94.5t-154 -37.5q-59 0 -105.5 16t-87.5 36.5t-83 36.5t-93 16q-76 0 -127.5 -36t-91.5 -78z" />
    <glyph glyph-name="uni00A0" unicode="&#xa0;" horiz-adv-x="486" 
 />
    <glyph glyph-name="exclamdown" unicode="&#xa1;" horiz-adv-x="503" 
d="M136 -322l49 987h123l50 -987h-222zM136 801v233h220v-233h-220z" />
    <glyph glyph-name="cent" unicode="&#xa2;" horiz-adv-x="1085" 
d="M582 202q-139 0 -246.5 61t-168 180t-60.5 292q0 162 55.5 283.5t162 189.5t257.5 68q112 0 200.5 -42.5t145 -120.5t70.5 -184h-164q-9 54 -41.5 99t-85.5 72t-124 27q-132 0 -215.5 -96t-83.5 -294q0 -179 76.5 -286.5t225.5 -107.5q71 0 123.5 27.5t85 73t41.5 97.5
h161q-14 -104 -71 -180t-145.5 -117.5t-198.5 -41.5zM509 0v286h137v-286h-137zM509 1160v286h137v-286h-137z" />
    <glyph glyph-name="sterling" unicode="&#xa3;" horiz-adv-x="1226" 
d="M30 0v159h75q76 0 128.5 65.5t52.5 208.5q0 51 -5 109.5t-18 145.5h-202v118h180l-30 165q-23 117 1.5 208t84.5 155.5t144 98t179 33.5q96 0 178 -31t142 -84.5t89 -121.5l-164 -58q-34 69 -84.5 103t-136.5 34q-66 0 -119.5 -26.5t-85 -76t-31.5 -120.5
q0 -56 12.5 -130t33.5 -148h323v-118h-307q11 -71 14 -123t-2 -106q-4 -86 -23 -144t-45 -95t-48 -60h348q102 0 162.5 36.5t94.5 126.5l159 -42q-46 -141 -148 -211.5t-257 -70.5h-695z" />
    <glyph glyph-name="currency" unicode="&#xa4;" horiz-adv-x="1079" 
d="M192 295l-89 94l119 117q-34 50 -51 104t-17 117q0 116 60 205q8 17 -3 28l-107 108l90 91l120 -122q46 34 103 52.5t115 18.5q117 0 208 -63q15 -8 25 2l107 108l89 -92l-118 -117q34 -48 52 -103t18 -115q0 -56 -15 -109.5t-47 -97.5q-7 -13 2 -21l110 -106l-89 -92
l-118 117q-48 -34 -103.5 -53.5t-116.5 -19.5q-116 0 -209 61q-16 11 -28 -3zM536 485q69 0 124 34t86.5 89t31.5 120q0 64 -31.5 119t-86.5 89.5t-124 34.5t-124 -34.5t-86.5 -89.5t-31.5 -119q0 -65 31.5 -120t86.5 -89t124 -34z" />
    <glyph glyph-name="yen" unicode="&#xa5;" horiz-adv-x="1223" 
d="M512 0v605l-503 841h241l382 -661l383 661h199l-491 -808v-638h-211zM207 266v116l821 1v-116zM207 559v117l821 1v-116z" />
    <glyph glyph-name="brokenbar" unicode="&#xa6;" horiz-adv-x="526" 
d="M192 850l-1 802h145v-802h-144zM192 -322l-1 802h145v-802h-144z" />
    <glyph glyph-name="section" unicode="&#xa7;" horiz-adv-x="981" 
d="M504 -144q-98 0 -183.5 30t-149.5 82.5t-98 119.5l122 64q45 -70 123 -118.5t186 -48.5q96 0 158.5 37t62.5 106q0 50 -40 94t-154 89l-171 66q-140 53 -201.5 124t-61.5 168q0 93 55.5 159t140.5 102q-76 40 -117 81.5t-56.5 84.5t-15.5 90q0 79 46 142.5t130.5 100.5
t198.5 37q91 0 166.5 -28.5t132 -75t88.5 -100.5l-123 -65q-46 58 -108.5 99.5t-146.5 41.5q-100 0 -156 -37.5t-56 -98.5q0 -44 35 -83t121 -74l165 -66q158 -63 226 -140t68 -182q0 -98 -52.5 -157.5t-125.5 -98.5q91 -51 138 -111t47 -143q0 -84 -48 -149.5t-136 -103.5
t-210 -38zM551 473q49 -4 90 17.5t64.5 59t22.5 82.5q-2 59 -36 103t-134 84l-109 42q-54 -4 -97 -28.5t-68.5 -61.5t-25.5 -78q0 -53 34 -89.5t140 -79.5z" />
    <glyph glyph-name="dieresis" unicode="&#xa8;" horiz-adv-x="591" 
d="M399 1267l1 179h181l-1 -179h-181zM10 1267l1 179h181l-1 -179h-181z" />
    <glyph glyph-name="copyright" unicode="&#xa9;" horiz-adv-x="1634" 
d="M814 -20q-154 0 -289 57.5t-237.5 159.5t-160 237t-57.5 290q0 153 57.5 287.5t160 236.5t237.5 160t289 58q153 0 287.5 -58t236.5 -160t160 -236.5t58 -287.5q0 -155 -58 -290t-160 -237t-236.5 -159.5t-287.5 -57.5zM818 311q-113 0 -199.5 52.5t-135 146t-48.5 217.5
t49.5 218t136 147.5t197.5 53.5q84 0 148 -32t109 -82.5t74 -108.5l-137 -32q-33 63 -78 101.5t-109 38.5q-101 0 -165.5 -79.5t-64.5 -220.5q0 -145 66 -225t169 -80q75 0 129 42.5t89 109.5l104 -38q-20 -41 -51 -82t-72 -74t-93.5 -53t-117.5 -20zM814 105
q125 0 235.5 43.5t195 124.5t132 195.5t47.5 255.5q0 140 -47.5 254t-132 196t-195 126t-235.5 44q-129 0 -240 -44t-194.5 -126t-130 -196t-46.5 -254q0 -141 46.5 -255.5t130 -195.5t194.5 -124.5t240 -43.5z" />
    <glyph glyph-name="ordfeminine" unicode="&#xaa;" horiz-adv-x="818" 
d="M319 792q-104 0 -160.5 49t-56.5 132q0 95 84.5 151t240.5 66l110 10v46q0 67 -39.5 95t-103.5 28q-52 0 -91.5 -19.5t-71.5 -75.5l-113 30q36 76 104.5 117t178.5 41q136 0 198.5 -57.5t62.5 -158.5v-135.5v-99.5q0 -15 1 -39t2.5 -49.5t4.5 -46.5l12 -72h-130l-17 85
q-53 -49 -102.5 -73t-113.5 -24zM362 882q75 0 129 49q21 20 33.5 38.5t12.5 41.5v107l-92 -7q-105 -7 -158.5 -41.5t-53.5 -89.5q0 -44 35.5 -71t93.5 -27z" />
    <glyph glyph-name="guillemotleft" unicode="&#xab;" horiz-adv-x="909" 
d="M695 140l-262 362l263 378h106l-201 -378l199 -362h-105zM342 140l-261 362l262 378h106l-202 -378l199 -362h-104z" />
    <glyph glyph-name="logicalnot" unicode="&#xac;" horiz-adv-x="1109" 
d="M123 654v144l863 1v-143zM832 369l-2 387h156v-387h-154z" />
    <glyph glyph-name="uni00AD" unicode="&#xad;" horiz-adv-x="755" 
d="M124 443v145l507 2v-146z" />
    <glyph glyph-name="registered" unicode="&#xae;" horiz-adv-x="1078" 
d="M536 536q-130 0 -235.5 62t-168 167.5t-62.5 234.5t62.5 235t168 168.5t235.5 62.5q128 0 233.5 -62.5t168 -168.5t62.5 -235t-62.5 -234.5t-168 -167.5t-233.5 -62zM536 628q108 0 190.5 46t129 129.5t46.5 196.5t-46.5 197t-129 130.5t-190.5 46.5q-110 0 -193 -46.5
t-128.5 -130.5t-45.5 -197t45.5 -196.5t128.5 -129.5t193 -46zM357 767v461h209q76 0 117.5 -29.5t41.5 -87.5q0 -53 -30 -82t-66 -42l89 -220h-93l-77 211h-104v-211h-87zM444 1047h112q33 0 56.5 12t23.5 44q0 24 -18.5 41t-67.5 17h-106v-114z" />
    <glyph glyph-name="macron" unicode="&#xaf;" horiz-adv-x="656" 
d="M26 1235v130h597v-130h-597z" />
    <glyph glyph-name="degree" unicode="&#xb0;" horiz-adv-x="926" 
d="M460 1045q-91 0 -162 40t-111.5 110.5t-40.5 162.5t40.5 163t111.5 111.5t162 40.5q89 0 160 -40.5t112 -111.5t41 -163t-41 -162.5t-112 -110.5t-160 -40zM458 1161q86 0 135.5 54.5t49.5 140.5t-50 140t-137 54q-85 0 -136 -54t-50 -140q2 -86 52 -140.5t136 -54.5z
" />
    <glyph glyph-name="plusminus" unicode="&#xb1;" horiz-adv-x="1109" 
d="M123 117v142l863 2v-143zM627 952h359v-143l-359 -1v-359h-142l-1 359h-361v143l361 1l-1 360h144v-360z" />
    <glyph glyph-name="uni00B2" unicode="&#xb2;" horiz-adv-x="734" 
d="M65 747v74v36q0 82 34.5 138.5t89 97t115.5 73t115.5 65.5t89 75.5t34.5 102.5q0 68 -47.5 109.5t-128.5 41.5q-84 0 -139 -47.5t-62 -135.5h-120q0 80 37 146t109.5 106t179.5 40q138 0 218.5 -71.5t80.5 -188.5q0 -81 -34 -137t-87 -95.5t-113.5 -70.5t-114 -62.5
t-87.5 -72.5t-34 -100v-15h476v-109h-612z" />
    <glyph glyph-name="uni00B3" unicode="&#xb3;" horiz-adv-x="803" 
d="M387 736q-145 1 -232 77.5t-90 200.5h122q12 -84 67.5 -128t136.5 -44q99 0 157.5 44t58.5 115q0 75 -60.5 120.5t-163.5 46.5l-84 2v104l80 2q57 1 103 22t73.5 55.5t27.5 75.5q0 56 -50.5 96.5t-141.5 40.5q-48 0 -91.5 -19t-72 -58t-29.5 -101h-121q-1 87 40.5 149.5
t113 97t161.5 34.5q95 0 167 -27.5t113 -80t41 -128.5q0 -67 -41.5 -120t-123.5 -84q84 -25 137 -82t53 -146q0 -84 -46 -143.5t-125.5 -91t-179.5 -30.5z" />
    <glyph glyph-name="acute" unicode="&#xb4;" horiz-adv-x="437" 
d="M10 1155l206 291h210l-273 -291h-143z" />
    <glyph glyph-name="uni00B5" unicode="&#xb5;" horiz-adv-x="1171" 
d="M136 -330v1390h190v-723q0 -49 27.5 -89.5t74.5 -65t104 -24.5q83 0 156.5 47.5t138.5 127.5v727h192l-3 -1060h-183v164q-88 -76 -154 -111t-140 -39q-60 -4 -113.5 9t-99.5 49v-402h-190z" />
    <glyph glyph-name="paragraph" unicode="&#xb6;" horiz-adv-x="1118" 
d="M513 -166v761q-127 4 -221.5 59t-146.5 147.5t-52 208.5q0 112 51.5 212t153.5 162t254 62h430v-114h-121v-1498h-123v1498h-101v-1498h-124z" />
    <glyph glyph-name="periodcentered" unicode="&#xb7;" horiz-adv-x="459" 
d="M110 618v221h229v-221h-229z" />
    <glyph glyph-name="cedilla" unicode="&#xb8;" horiz-adv-x="462" 
d="M213 -412q-54 0 -101.5 12t-88.5 38l31 78q26 -19 59.5 -33t77.5 -14q55 0 81.5 19t26.5 54q0 43 -37.5 64.5t-122.5 23.5q-10 0 -12.5 3t0.5 10l73 167h97l-47 -121q68 -3 107.5 -25.5t55.5 -55t16 -65.5q0 -51 -29.5 -85t-79 -52t-107.5 -18z" />
    <glyph glyph-name="uni00B9" unicode="&#xb9;" horiz-adv-x="479" 
d="M220 744v718h-174v83q118 0 163 25.5t48 83.5h90v-910h-127z" />
    <glyph glyph-name="ordmasculine" unicode="&#xba;" horiz-adv-x="812" 
d="M405 795q-97 0 -167 42.5t-107.5 117.5t-37.5 172q0 101 39 177t109.5 118.5t163.5 42.5q97 0 167.5 -43t108.5 -119t38 -176q0 -97 -37.5 -172t-108 -117.5t-168.5 -42.5zM405 890q89 0 133.5 64t44.5 178q0 110 -44.5 173t-133.5 63q-87 0 -131 -63t-44 -173
q0 -114 44 -178t131 -64z" />
    <glyph glyph-name="guillemotright" unicode="&#xbb;" horiz-adv-x="957" 
d="M479 140l199 362l-202 378h106l262 -378l-262 -362h-103zM126 140l199 362l-202 378h105l262 -378l-261 -362h-103z" />
    <glyph glyph-name="onequarter" unicode="&#xbc;" horiz-adv-x="1583" 
d="M220 536v718h-174v83q118 0 163 25.5t48 83.5h90v-910h-127zM335 -8l-125 1l976 1469h121zM1268 2v230h-424v109l421 570h123v-571h150v-108h-150v-230h-120zM963 340h303v406z" />
    <glyph glyph-name="onehalf" unicode="&#xbd;" horiz-adv-x="1733" 
d="M220 536v718h-174v83q118 0 163 25.5t48 83.5h90v-910h-127zM335 -8l-125 1l976 1469h121zM1064 -1v74v36q0 82 34.5 138.5t89 97t115.5 73t115.5 65.5t89 75.5t34.5 102.5q0 68 -47.5 109.5t-128.5 41.5q-84 0 -139 -47.5t-62 -135.5h-120q0 80 37 146t109.5 106
t179.5 40q138 0 218.5 -71.5t80.5 -188.5q0 -81 -34 -137t-87 -95.5t-113.5 -70.5t-114 -62.5t-87.5 -72.5t-34 -100v-15h476v-109h-612z" />
    <glyph glyph-name="threequarters" unicode="&#xbe;" horiz-adv-x="1837" 
d="M387 526q-145 1 -232 77.5t-90 200.5h122q12 -84 67.5 -128t136.5 -44q99 0 157.5 44t58.5 115q0 75 -60.5 120.5t-163.5 46.5l-84 2v104l80 2q57 1 103 22t73.5 55.5t27.5 75.5q0 56 -50.5 96.5t-141.5 40.5q-48 0 -91.5 -19t-72 -58t-29.5 -101h-121q-1 87 40.5 149.5
t113 97t161.5 34.5q95 0 167 -27.5t113 -80t41 -128.5q0 -67 -41.5 -120t-123.5 -84q84 -25 137 -82t53 -146q0 -84 -46 -143.5t-125.5 -91t-179.5 -30.5zM588 -8l-125 1l976 1469h121zM1522 2v230h-424v109l421 570h123v-571h150v-108h-150v-230h-120zM1217 340h303v406z
" />
    <glyph glyph-name="questiondown" unicode="&#xbf;" horiz-adv-x="1036" 
d="M507 -342q-141 0 -240.5 45t-151.5 124t-52 180q0 83 29 141.5t74 104t96.5 86t96.5 86t74 104t29 139.5h159q0 -93 -26.5 -160.5t-68.5 -118t-89 -92.5t-89 -83t-68.5 -88.5t-26.5 -110.5q0 -97 70.5 -154.5t184.5 -57.5q65 0 128 25.5t111.5 70t70.5 99.5l165 -50
q-64 -136 -189 -213t-287 -77zM431 801v233h221v-233h-221z" />
    <glyph glyph-name="Agrave" unicode="&#xc0;" horiz-adv-x="1420" 
d="M83 0l523 1446h209l523 -1446h-189l-142 396h-593l-143 -396h-188zM463 566h493l-246 699zM644 1567l-274 291h211l206 -291h-143z" />
    <glyph glyph-name="Aacute" unicode="&#xc1;" horiz-adv-x="1420" 
d="M83 0l523 1446h209l523 -1446h-189l-142 396h-593l-143 -396h-188zM463 566h493l-246 699zM629 1567l206 291h210l-273 -291h-143z" />
    <glyph glyph-name="Acircumflex" unicode="&#xc2;" horiz-adv-x="1420" 
d="M83 0l523 1446h209l523 -1446h-189l-142 396h-593l-143 -396h-188zM463 566h493l-246 699zM394 1567l251 225h132l246 -225h-174l-140 130l-151 -130h-164z" />
    <glyph glyph-name="Atilde" unicode="&#xc3;" horiz-adv-x="1420" 
d="M83 0l523 1446h209l523 -1446h-189l-142 396h-593l-143 -396h-188zM463 566h493l-246 699zM447 1631l-35 110q34 31 72 53t95 22q49 0 92.5 -14t85 -28t85.5 -14q45 0 78 16.5t62 39.5l32 -122q-26 -19 -67.5 -38.5t-104.5 -19.5q-54 0 -94 13t-77.5 26t-83.5 13
q-49 0 -79 -16.5t-61 -40.5z" />
    <glyph glyph-name="Adieresis" unicode="&#xc4;" horiz-adv-x="1420" 
d="M83 0l523 1446h209l523 -1446h-189l-142 396h-593l-143 -396h-188zM463 566h493l-246 699zM814 1679l1 179h181l-1 -179h-181zM425 1679l1 179h181l-1 -179h-181z" />
    <glyph glyph-name="Aring" unicode="&#xc5;" horiz-adv-x="1420" 
d="M83 0l523 1446h209l523 -1446h-189l-142 396h-593l-143 -396h-188zM463 566h493l-246 699zM711 1566q-86 0 -146 60.5t-60 149.5q0 82 61 140.5t145 58.5q58 0 105 -27.5t74.5 -73.5t27.5 -102q0 -87 -60 -146.5t-147 -59.5zM709 1662q45 0 75.5 33t30.5 76
q0 47 -30.5 76.5t-75.5 29.5q-43 0 -75.5 -29.5t-32.5 -76.5q0 -43 32.5 -76t75.5 -33z" />
    <glyph glyph-name="AE" unicode="&#xc6;" horiz-adv-x="1949" 
d="M0 0l800 1446h1005l-1 -160h-689v-477h617v-159h-617v-489h714v-161h-925v401h-493l-222 -401h-189zM484 566h420v746z" />
    <glyph glyph-name="Ccedilla" unicode="&#xc7;" horiz-adv-x="1377" 
d="M696 -412q-54 0 -101.5 12t-88.5 38l31 78q26 -19 59.5 -33t77.5 -14q55 0 81.5 19t26.5 54q0 43 -37.5 64.5t-122.5 23.5q-10 0 -12.5 3t0.5 10l73 167h97l-47 -121q68 -3 107.5 -25.5t55.5 -55t16 -65.5q0 -51 -29.5 -85t-79 -52t-107.5 -18zM723 -20q-195 0 -332.5 89
t-210 256t-72.5 403q0 235 72 400t209.5 251.5t333.5 86.5q153 0 271 -63.5t190 -169.5t85 -233h-197q-16 85 -61 154t-118 110t-175 41q-131 0 -221.5 -61.5t-137 -189.5t-46.5 -328q0 -302 103.5 -443.5t301.5 -141.5q102 0 175 43t118 115t61 156h197
q-11 -92 -49.5 -177.5t-105.5 -152.5t-164.5 -106t-226.5 -39z" />
    <glyph glyph-name="Egrave" unicode="&#xc8;" horiz-adv-x="1241" 
d="M191 0v1446h912l-1 -163h-725v-472h653v-162h-654v-482l746 -2v-165h-931zM583 1567l-274 291h211l206 -291h-143z" />
    <glyph glyph-name="Eacute" unicode="&#xc9;" horiz-adv-x="1241" 
d="M191 0v1446h912l-1 -163h-725v-472h653v-162h-654v-482l746 -2v-165h-931zM569 1567l206 291h210l-273 -291h-143z" />
    <glyph glyph-name="Ecircumflex" unicode="&#xca;" horiz-adv-x="1241" 
d="M191 0v1446h912l-1 -163h-725v-472h653v-162h-654v-482l746 -2v-165h-931zM334 1567l251 225h132l246 -225h-174l-140 130l-151 -130h-164z" />
    <glyph glyph-name="Edieresis" unicode="&#xcb;" horiz-adv-x="1241" 
d="M191 0v1446h912l-1 -163h-725v-472h653v-162h-654v-482l746 -2v-165h-931zM753 1679l1 179h181l-1 -179h-181zM364 1679l1 179h181l-1 -179h-181z" />
    <glyph glyph-name="Igrave" unicode="&#xcc;" horiz-adv-x="566" 
d="M191 0v1446h185v-1446h-185zM218 1567l-274 291h211l206 -291h-143z" />
    <glyph glyph-name="Iacute" unicode="&#xcd;" horiz-adv-x="566" 
d="M191 0v1446h185v-1446h-185zM203 1567l206 291h210l-273 -291h-143z" />
    <glyph glyph-name="Icircumflex" unicode="&#xce;" horiz-adv-x="566" 
d="M191 0v1446h185v-1446h-185zM-31 1567l251 225h132l246 -225h-174l-140 130l-151 -130h-164z" />
    <glyph glyph-name="Idieresis" unicode="&#xcf;" horiz-adv-x="566" 
d="M191 0v1446h185v-1446h-185zM388 1679l1 179h181l-1 -179h-181zM-1 1679l1 179h181l-1 -179h-181z" />
    <glyph glyph-name="Eth" unicode="&#xd0;" horiz-adv-x="1414" 
d="M70 650v147h666v-147h-666zM218 0v1446q7 0 42 -0.5t86.5 0t106.5 0t101 -1.5q266 -4 431.5 -86.5t243 -239.5t77.5 -386q0 -240 -83.5 -403t-254.5 -246t-433 -83h-317zM408 159h127q179 0 308 55.5t198.5 180.5t69.5 334t-67.5 331t-194.5 174.5t-306 52.5h-135v-1128z
" />
    <glyph glyph-name="Ntilde" unicode="&#xd1;" horiz-adv-x="1508" 
d="M191 0v1446h177l764 -1124v1124h185v-1446h-165l-776 1140v-1140h-185zM490 1631l-35 110q34 31 72 53t95 22q49 0 92.5 -14t85 -28t85.5 -14q45 0 78 16.5t62 39.5l32 -122q-26 -19 -67.5 -38.5t-104.5 -19.5q-54 0 -94 13t-77.5 26t-83.5 13q-49 0 -79 -16.5t-61 -40.5
z" />
    <glyph glyph-name="Ograve" unicode="&#xd2;" horiz-adv-x="1468" 
d="M736 -20q-193 0 -334 87t-217.5 252.5t-76.5 400.5q0 237 77 403.5t218.5 254.5t332.5 88q192 0 332 -87.5t216 -254t76 -404.5q0 -235 -75.5 -400.5t-215.5 -252.5t-333 -87zM736 141q134 0 228 61t143.5 189t49.5 327q0 202 -50 332t-144 192.5t-227 62.5
q-132 0 -227 -63t-146 -193t-51 -331q0 -199 51 -327t146 -189t227 -61zM670 1567l-274 291h211l206 -291h-143z" />
    <glyph glyph-name="Oacute" unicode="&#xd3;" horiz-adv-x="1468" 
d="M736 -20q-193 0 -334 87t-217.5 252.5t-76.5 400.5q0 237 77 403.5t218.5 254.5t332.5 88q192 0 332 -87.5t216 -254t76 -404.5q0 -235 -75.5 -400.5t-215.5 -252.5t-333 -87zM736 141q134 0 228 61t143.5 189t49.5 327q0 202 -50 332t-144 192.5t-227 62.5
q-132 0 -227 -63t-146 -193t-51 -331q0 -199 51 -327t146 -189t227 -61zM656 1567l206 291h210l-273 -291h-143z" />
    <glyph glyph-name="Ocircumflex" unicode="&#xd4;" horiz-adv-x="1468" 
d="M736 -20q-193 0 -334 87t-217.5 252.5t-76.5 400.5q0 237 77 403.5t218.5 254.5t332.5 88q192 0 332 -87.5t216 -254t76 -404.5q0 -235 -75.5 -400.5t-215.5 -252.5t-333 -87zM736 141q134 0 228 61t143.5 189t49.5 327q0 202 -50 332t-144 192.5t-227 62.5
q-132 0 -227 -63t-146 -193t-51 -331q0 -199 51 -327t146 -189t227 -61zM421 1567l251 225h132l246 -225h-174l-140 130l-151 -130h-164z" />
    <glyph glyph-name="Otilde" unicode="&#xd5;" horiz-adv-x="1468" 
d="M736 -20q-193 0 -334 87t-217.5 252.5t-76.5 400.5q0 237 77 403.5t218.5 254.5t332.5 88q192 0 332 -87.5t216 -254t76 -404.5q0 -235 -75.5 -400.5t-215.5 -252.5t-333 -87zM736 141q134 0 228 61t143.5 189t49.5 327q0 202 -50 332t-144 192.5t-227 62.5
q-132 0 -227 -63t-146 -193t-51 -331q0 -199 51 -327t146 -189t227 -61zM474 1631l-35 110q34 31 72 53t95 22q49 0 92.5 -14t85 -28t85.5 -14q45 0 78 16.5t62 39.5l32 -122q-26 -19 -67.5 -38.5t-104.5 -19.5q-54 0 -94 13t-77.5 26t-83.5 13q-49 0 -79 -16.5t-61 -40.5z
" />
    <glyph glyph-name="Odieresis" unicode="&#xd6;" horiz-adv-x="1468" 
d="M736 -20q-193 0 -334 87t-217.5 252.5t-76.5 400.5q0 237 77 403.5t218.5 254.5t332.5 88q192 0 332 -87.5t216 -254t76 -404.5q0 -235 -75.5 -400.5t-215.5 -252.5t-333 -87zM736 141q134 0 228 61t143.5 189t49.5 327q0 202 -50 332t-144 192.5t-227 62.5
q-132 0 -227 -63t-146 -193t-51 -331q0 -199 51 -327t146 -189t227 -61zM841 1679l1 179h181l-1 -179h-181zM452 1679l1 179h181l-1 -179h-181z" />
    <glyph glyph-name="multiply" unicode="&#xd7;" horiz-adv-x="1080" 
d="M227 311l-102 103l727 730l103 -101zM852 311l-729 729l102 101l730 -727z" />
    <glyph glyph-name="Oslash" unicode="&#xd8;" horiz-adv-x="1501" 
d="M156 -27l-100 98l171 187q-52 88 -79 203.5t-27 255.5q0 238 76.5 405.5t217 255.5t333.5 88q135 0 244 -43.5t188 -126.5l162 175l99 -96l-175 -193q52 -89 79.5 -205t27.5 -257q0 -235 -76 -400.5t-216.5 -252.5t-333.5 -87q-135 0 -244 42.5t-187 123.5zM749 140
q189 0 286 123.5t105 381.5q4 103 -6 195t-34 174l-655 -734q101 -140 304 -140zM392 426l657 735q-50 75 -125 111t-176 36q-190 0 -290.5 -130t-107.5 -398q-3 -101 7.5 -189t34.5 -165z" />
    <glyph glyph-name="Ugrave" unicode="&#xd9;" horiz-adv-x="1401" 
d="M719 -20q-188 0 -304.5 62t-170 182t-53.5 295v927h192v-955q0 -175 87 -262t249 -87q109 0 185.5 38t117 115.5t40.5 195.5v955h186v-946q0 -167 -55 -283t-171.5 -176.5t-302.5 -60.5zM655 1567l-274 291h211l206 -291h-143z" />
    <glyph glyph-name="Uacute" unicode="&#xda;" horiz-adv-x="1401" 
d="M719 -20q-188 0 -304.5 62t-170 182t-53.5 295v927h192v-955q0 -175 87 -262t249 -87q109 0 185.5 38t117 115.5t40.5 195.5v955h186v-946q0 -167 -55 -283t-171.5 -176.5t-302.5 -60.5zM640 1567l206 291h210l-273 -291h-143z" />
    <glyph glyph-name="Ucircumflex" unicode="&#xdb;" horiz-adv-x="1401" 
d="M719 -20q-188 0 -304.5 62t-170 182t-53.5 295v927h192v-955q0 -175 87 -262t249 -87q109 0 185.5 38t117 115.5t40.5 195.5v955h186v-946q0 -167 -55 -283t-171.5 -176.5t-302.5 -60.5zM406 1567l251 225h132l246 -225h-174l-140 130l-151 -130h-164z" />
    <glyph glyph-name="Udieresis" unicode="&#xdc;" horiz-adv-x="1401" 
d="M719 -20q-188 0 -304.5 62t-170 182t-53.5 295v927h192v-955q0 -175 87 -262t249 -87q109 0 185.5 38t117 115.5t40.5 195.5v955h186v-946q0 -167 -55 -283t-171.5 -176.5t-302.5 -60.5zM825 1679l1 179h181l-1 -179h-181zM436 1679l1 179h181l-1 -179h-181z" />
    <glyph glyph-name="Yacute" unicode="&#xdd;" horiz-adv-x="1214" 
d="M517 0v616l-493 830h202l384 -665l378 665h203l-490 -831v-615h-184zM543 1570l206 291h210l-273 -291h-143z" />
    <glyph glyph-name="Thorn" unicode="&#xde;" horiz-adv-x="1301" 
d="M191 0v1446h190v-297h327q157 0 278 -42.5t189.5 -131.5t68.5 -226q0 -145 -68 -238.5t-187.5 -138.5t-272.5 -45h-335v-327h-190zM381 488h329q101 0 177.5 25.5t120 82.5t43.5 153q0 89 -43.5 141.5t-122.5 75.5t-185 23h-319v-501z" />
    <glyph glyph-name="germandbls" unicode="&#xdf;" horiz-adv-x="1179" 
d="M695 -20q-74 0 -148.5 19t-124.5 50l65 123q41 -24 85.5 -42.5t110.5 -18.5q106 0 170.5 50t64.5 143q0 69 -34 110t-89.5 66.5t-121.5 47.5q-52 19 -101 45t-80.5 69t-31.5 113q0 75 41.5 124t123.5 96q38 25 74 49t60 57t24 83q0 68 -50.5 109t-143.5 41
q-113 0 -182.5 -68.5t-69.5 -201.5v-1044h-182l-2 1011q1 94 29.5 173t85 138t141 91.5t195.5 32.5q125 0 202.5 -38.5t113.5 -101.5t36 -137q0 -75 -31 -124t-85 -83.5t-124 -66.5q-59 -32 -83.5 -51.5t-24.5 -53.5t23 -49t82 -34q59 -23 124.5 -50.5t122.5 -69.5
t93.5 -105.5t36.5 -159.5q0 -111 -52 -187.5t-141.5 -115.5t-201.5 -39z" />
    <glyph glyph-name="agrave" unicode="&#xe0;" horiz-adv-x="1106" 
d="M443 -20q-101 0 -177.5 35.5t-120 102.5t-43.5 162q0 172 120 256t385 90l184 5v81q0 95 -57 150.5t-176 55.5q-89 -1 -157 -42t-87 -134h-163q6 101 56.5 170.5t142.5 105.5t217 36q135 0 224.5 -38t134 -112t44.5 -182v-722h-158l-14 194q-59 -121 -151.5 -167.5
t-203.5 -46.5zM498 113q53 0 104.5 19t94 51.5t68.5 73t26 83.5v177l-153 -3q-119 -2 -198 -24t-119 -69t-40 -123q0 -87 61 -136t156 -49zM501 1155l-274 291h211l206 -291h-143z" />
    <glyph glyph-name="aacute" unicode="&#xe1;" horiz-adv-x="1106" 
d="M443 -20q-101 0 -177.5 35.5t-120 102.5t-43.5 162q0 172 120 256t385 90l184 5v81q0 95 -57 150.5t-176 55.5q-89 -1 -157 -42t-87 -134h-163q6 101 56.5 170.5t142.5 105.5t217 36q135 0 224.5 -38t134 -112t44.5 -182v-722h-158l-14 194q-59 -121 -151.5 -167.5
t-203.5 -46.5zM498 113q53 0 104.5 19t94 51.5t68.5 73t26 83.5v177l-153 -3q-119 -2 -198 -24t-119 -69t-40 -123q0 -87 61 -136t156 -49zM487 1155l206 291h210l-273 -291h-143z" />
    <glyph glyph-name="acircumflex" unicode="&#xe2;" horiz-adv-x="1106" 
d="M443 -20q-101 0 -177.5 35.5t-120 102.5t-43.5 162q0 172 120 256t385 90l184 5v81q0 95 -57 150.5t-176 55.5q-89 -1 -157 -42t-87 -134h-163q6 101 56.5 170.5t142.5 105.5t217 36q135 0 224.5 -38t134 -112t44.5 -182v-722h-158l-14 194q-59 -121 -151.5 -167.5
t-203.5 -46.5zM498 113q53 0 104.5 19t94 51.5t68.5 73t26 83.5v177l-153 -3q-119 -2 -198 -24t-119 -69t-40 -123q0 -87 61 -136t156 -49zM252 1155l251 225h132l246 -225h-174l-140 130l-151 -130h-164z" />
    <glyph glyph-name="atilde" unicode="&#xe3;" horiz-adv-x="1106" 
d="M443 -20q-101 0 -177.5 35.5t-120 102.5t-43.5 162q0 172 120 256t385 90l184 5v81q0 95 -57 150.5t-176 55.5q-89 -1 -157 -42t-87 -134h-163q6 101 56.5 170.5t142.5 105.5t217 36q135 0 224.5 -38t134 -112t44.5 -182v-722h-158l-14 194q-59 -121 -151.5 -167.5
t-203.5 -46.5zM498 113q53 0 104.5 19t94 51.5t68.5 73t26 83.5v177l-153 -3q-119 -2 -198 -24t-119 -69t-40 -123q0 -87 61 -136t156 -49zM305 1219l-35 110q34 31 72 53t95 22q49 0 92.5 -14t85 -28t85.5 -14q45 0 78 16.5t62 39.5l32 -122q-26 -19 -67.5 -38.5
t-104.5 -19.5q-54 0 -94 13t-77.5 26t-83.5 13q-49 0 -79 -16.5t-61 -40.5z" />
    <glyph glyph-name="adieresis" unicode="&#xe4;" horiz-adv-x="1106" 
d="M443 -20q-101 0 -177.5 35.5t-120 102.5t-43.5 162q0 172 120 256t385 90l184 5v81q0 95 -57 150.5t-176 55.5q-89 -1 -157 -42t-87 -134h-163q6 101 56.5 170.5t142.5 105.5t217 36q135 0 224.5 -38t134 -112t44.5 -182v-722h-158l-14 194q-59 -121 -151.5 -167.5
t-203.5 -46.5zM498 113q53 0 104.5 19t94 51.5t68.5 73t26 83.5v177l-153 -3q-119 -2 -198 -24t-119 -69t-40 -123q0 -87 61 -136t156 -49zM671 1267l1 179h181l-1 -179h-181zM282 1267l1 179h181l-1 -179h-181z" />
    <glyph glyph-name="aring" unicode="&#xe5;" horiz-adv-x="1106" 
d="M443 -20q-101 0 -177.5 35.5t-120 102.5t-43.5 162q0 172 120 256t385 90l184 5v81q0 95 -57 150.5t-176 55.5q-89 -1 -157 -42t-87 -134h-163q6 101 56.5 170.5t142.5 105.5t217 36q135 0 224.5 -38t134 -112t44.5 -182v-722h-158l-14 194q-59 -121 -151.5 -167.5
t-203.5 -46.5zM498 113q53 0 104.5 19t94 51.5t68.5 73t26 83.5v177l-153 -3q-119 -2 -198 -24t-119 -69t-40 -123q0 -87 61 -136t156 -49zM568 1154q-86 0 -146 60.5t-60 149.5q0 82 61 140.5t145 58.5q58 0 105 -27.5t74.5 -73.5t27.5 -102q0 -87 -60 -146.5t-147 -59.5z
M566 1250q45 0 75.5 33t30.5 76q0 47 -30.5 76.5t-75.5 29.5q-43 0 -75.5 -29.5t-32.5 -76.5q0 -43 32.5 -76t75.5 -33z" />
    <glyph glyph-name="ae" unicode="&#xe6;" horiz-adv-x="1828" 
d="M443 -20q-101 0 -177.5 35.5t-120 102.5t-43.5 162q0 172 120 256.5t385 89.5l185 5v81q0 99 -64 152.5t-170 53.5q-88 -1 -156.5 -44t-87.5 -132h-163q5 90 56 160.5t143 111t217 40.5q130 0 221.5 -46t132.5 -129q56 84 145 129.5t206 45.5q146 0 246.5 -63
t153.5 -177.5t53 -271.5v-68h-741q0 -98 32.5 -177.5t98.5 -126.5t167 -47q99 0 170.5 46t91.5 133h174q-19 -105 -84 -177t-156.5 -108.5t-192.5 -36.5q-143 0 -253 63.5t-169 180.5q-23 -75 -84.5 -130t-147.5 -84.5t-188 -29.5zM498 113q89 0 153.5 41t100.5 100.5
t37 117.5l-1 145l-150 -3q-118 -2 -197.5 -24t-119.5 -69t-40 -123q0 -87 61 -136t156 -49zM985 599h562q0 89 -30.5 160.5t-91.5 113t-155 41.5q-97 0 -160.5 -46.5t-94.5 -119t-30 -149.5z" />
    <glyph glyph-name="ccedilla" unicode="&#xe7;" horiz-adv-x="1087" 
d="M538 -412q-53 0 -100.5 12t-88.5 38l31 78q26 -19 59 -33t78 -14q55 0 81 19t26 54q0 43 -37 64.5t-122 23.5q-10 0 -12.5 3t0.5 10l72 167h98l-47 -121q68 -3 107 -25.5t55.5 -55t16.5 -65.5q0 -51 -30 -85t-79 -52t-108 -18zM569 -20q-140 0 -247.5 61t-168 180
t-60.5 292q0 162 55.5 283.5t162 189.5t258.5 68q111 0 199.5 -42.5t145.5 -120.5t70 -184h-164q-9 54 -41.5 99t-85 72t-123.5 27q-133 0 -216.5 -96t-83.5 -294q0 -179 76.5 -286.5t225.5 -107.5q71 0 124 27.5t85 73t41 97.5h161q-13 -104 -70.5 -180t-146 -117.5
t-197.5 -41.5z" />
    <glyph glyph-name="egrave" unicode="&#xe8;" horiz-adv-x="1133" 
d="M590 -20q-144 0 -254 63t-172 181t-62 283q0 163 56 286t162.5 192t256.5 69q146 0 247 -63t153.5 -177.5t52.5 -271.5v-68h-741q0 -98 32.5 -177.5t98.5 -126.5t167 -47q99 0 170.5 46t91.5 133h174q-18 -105 -83.5 -177t-157 -108.5t-192.5 -36.5zM290 599h562
q0 89 -30 160.5t-91.5 113t-154.5 41.5q-97 0 -161 -46.5t-95 -119t-30 -149.5zM511 1155l-274 291h211l206 -291h-143z" />
    <glyph glyph-name="eacute" unicode="&#xe9;" horiz-adv-x="1133" 
d="M590 -20q-144 0 -254 63t-172 181t-62 283q0 163 56 286t162.5 192t256.5 69q146 0 247 -63t153.5 -177.5t52.5 -271.5v-68h-741q0 -98 32.5 -177.5t98.5 -126.5t167 -47q99 0 170.5 46t91.5 133h174q-18 -105 -83.5 -177t-157 -108.5t-192.5 -36.5zM290 599h562
q0 89 -30 160.5t-91.5 113t-154.5 41.5q-97 0 -161 -46.5t-95 -119t-30 -149.5zM496 1155l206 291h210l-273 -291h-143z" />
    <glyph glyph-name="ecircumflex" unicode="&#xea;" horiz-adv-x="1133" 
d="M590 -20q-144 0 -254 63t-172 181t-62 283q0 163 56 286t162.5 192t256.5 69q146 0 247 -63t153.5 -177.5t52.5 -271.5v-68h-741q0 -98 32.5 -177.5t98.5 -126.5t167 -47q99 0 170.5 46t91.5 133h174q-18 -105 -83.5 -177t-157 -108.5t-192.5 -36.5zM290 599h562
q0 89 -30 160.5t-91.5 113t-154.5 41.5q-97 0 -161 -46.5t-95 -119t-30 -149.5zM262 1155l251 225h132l246 -225h-174l-140 130l-151 -130h-164z" />
    <glyph glyph-name="edieresis" unicode="&#xeb;" horiz-adv-x="1133" 
d="M590 -20q-144 0 -254 63t-172 181t-62 283q0 163 56 286t162.5 192t256.5 69q146 0 247 -63t153.5 -177.5t52.5 -271.5v-68h-741q0 -98 32.5 -177.5t98.5 -126.5t167 -47q99 0 170.5 46t91.5 133h174q-18 -105 -83.5 -177t-157 -108.5t-192.5 -36.5zM290 599h562
q0 89 -30 160.5t-91.5 113t-154.5 41.5q-97 0 -161 -46.5t-95 -119t-30 -149.5zM681 1267l1 179h181l-1 -179h-181zM292 1267l1 179h181l-1 -179h-181z" />
    <glyph glyph-name="igrave" unicode="&#xec;" horiz-adv-x="484" 
d="M153 0v1034h178v-1034h-178zM178 1155l-204 291h203l134 -290z" />
    <glyph glyph-name="iacute" unicode="&#xed;" horiz-adv-x="484" 
d="M153 0v1034h178v-1034h-178zM306 1155l-133 1l134 290h203z" />
    <glyph glyph-name="icircumflex" unicode="&#xee;" horiz-adv-x="484" 
d="M153 0v1034h178v-1034h-178zM-72 1155l251 225h132l246 -225h-174l-140 130l-151 -130h-164z" />
    <glyph glyph-name="idieresis" unicode="&#xef;" horiz-adv-x="603" 
d="M209 0v1034h178v-1034h-178zM404 1265l1 179h181l-1 -179h-181zM15 1265l1 179h181l-1 -179h-181z" />
    <glyph glyph-name="eth" unicode="&#xf0;" horiz-adv-x="1131" 
d="M565 -20q-156 0 -261 69.5t-158 189t-53 267.5q0 125 33 223.5t94 168t146.5 106t190.5 36.5q162 0 259 -83.5t123 -221.5l-142 132q-21 106 -68.5 198.5t-109 170.5t-125.5 139.5t-117 104.5h171q87 -64 174.5 -155.5t158.5 -210t114 -264.5t43 -319q0 -162 -52 -286.5
t-157 -194.5t-264 -70zM568 126q102 0 165 51t92.5 139t29.5 196q0 185 -73 286t-211 101q-150 0 -222 -107t-72 -280q0 -104 28 -192t92 -141t171 -53zM357 1140l-30 96l625 189l28 -97z" />
    <glyph glyph-name="ntilde" unicode="&#xf1;" horiz-adv-x="1154" 
d="M153 0v1034h179v-150q25 43 69.5 81t108 61t146.5 23q98 0 180.5 -39t132 -121.5t49.5 -212.5v-676h-185v658q0 121 -63.5 179.5t-164.5 58.5q-70 0 -131 -22.5t-99 -68t-38 -114.5v-691h-184zM335 1219l-35 110q34 31 72 53t95 22q49 0 92.5 -14t85 -28t85.5 -14
q45 0 78 16.5t62 39.5l32 -122q-26 -19 -67.5 -38.5t-104.5 -19.5q-54 0 -94 13t-77.5 26t-83.5 13q-49 0 -79 -16.5t-61 -40.5z" />
    <glyph glyph-name="ograve" unicode="&#xf2;" horiz-adv-x="1131" 
d="M567 -20q-143 0 -249.5 61.5t-165.5 180.5t-59 291q0 162 55 284t161 189.5t259 67.5q143 0 248 -62.5t163.5 -183.5t58.5 -295q0 -158 -54 -278t-158.5 -187.5t-258.5 -67.5zM568 126q92 0 156 47t97.5 135t33.5 209q0 111 -29.5 199.5t-92.5 140.5t-165 52
q-94 0 -159 -46.5t-98.5 -134.5t-33.5 -211q0 -109 29.5 -198t94 -141t167.5 -52zM500 1155l-274 291h211l206 -291h-143z" />
    <glyph glyph-name="oacute" unicode="&#xf3;" horiz-adv-x="1131" 
d="M567 -20q-143 0 -249.5 61.5t-165.5 180.5t-59 291q0 162 55 284t161 189.5t259 67.5q143 0 248 -62.5t163.5 -183.5t58.5 -295q0 -158 -54 -278t-158.5 -187.5t-258.5 -67.5zM568 126q92 0 156 47t97.5 135t33.5 209q0 111 -29.5 199.5t-92.5 140.5t-165 52
q-94 0 -159 -46.5t-98.5 -134.5t-33.5 -211q0 -109 29.5 -198t94 -141t167.5 -52zM485 1155l206 291h210l-273 -291h-143z" />
    <glyph glyph-name="ocircumflex" unicode="&#xf4;" horiz-adv-x="1131" 
d="M567 -20q-143 0 -249.5 61.5t-165.5 180.5t-59 291q0 162 55 284t161 189.5t259 67.5q143 0 248 -62.5t163.5 -183.5t58.5 -295q0 -158 -54 -278t-158.5 -187.5t-258.5 -67.5zM568 126q92 0 156 47t97.5 135t33.5 209q0 111 -29.5 199.5t-92.5 140.5t-165 52
q-94 0 -159 -46.5t-98.5 -134.5t-33.5 -211q0 -109 29.5 -198t94 -141t167.5 -52zM251 1155l251 225h132l246 -225h-174l-140 130l-151 -130h-164z" />
    <glyph glyph-name="otilde" unicode="&#xf5;" horiz-adv-x="1131" 
d="M567 -20q-143 0 -249.5 61.5t-165.5 180.5t-59 291q0 162 55 284t161 189.5t259 67.5q143 0 248 -62.5t163.5 -183.5t58.5 -295q0 -158 -54 -278t-158.5 -187.5t-258.5 -67.5zM568 126q92 0 156 47t97.5 135t33.5 209q0 111 -29.5 199.5t-92.5 140.5t-165 52
q-94 0 -159 -46.5t-98.5 -134.5t-33.5 -211q0 -109 29.5 -198t94 -141t167.5 -52zM303 1219l-35 110q34 31 72 53t95 22q49 0 92.5 -14t85 -28t85.5 -14q45 0 78 16.5t62 39.5l32 -122q-26 -19 -67.5 -38.5t-104.5 -19.5q-54 0 -94 13t-77.5 26t-83.5 13q-49 0 -79 -16.5
t-61 -40.5z" />
    <glyph glyph-name="odieresis" unicode="&#xf6;" horiz-adv-x="1131" 
d="M567 -20q-143 0 -249.5 61.5t-165.5 180.5t-59 291q0 162 55 284t161 189.5t259 67.5q143 0 248 -62.5t163.5 -183.5t58.5 -295q0 -158 -54 -278t-158.5 -187.5t-258.5 -67.5zM568 126q92 0 156 47t97.5 135t33.5 209q0 111 -29.5 199.5t-92.5 140.5t-165 52
q-94 0 -159 -46.5t-98.5 -134.5t-33.5 -211q0 -109 29.5 -198t94 -141t167.5 -52zM670 1267l1 179h181l-1 -179h-181zM281 1267l1 179h181l-1 -179h-181z" />
    <glyph glyph-name="divide" unicode="&#xf7;" horiz-adv-x="1109" 
d="M123 654v144l863 1v-143zM440 264v223h232v-223h-232zM440 968v223h232v-223h-232z" />
    <glyph glyph-name="oslash" unicode="&#xf8;" horiz-adv-x="1172" 
d="M116 -11l-76 79l1010 974l74 -79zM587 -20q-143 0 -250 61.5t-166 180.5t-59 291q0 162 55 284t161.5 189.5t258.5 67.5q143 0 248.5 -62.5t163.5 -183.5t58 -295q0 -158 -53.5 -278t-158 -187.5t-258.5 -67.5zM587 126q93 0 157 47t97 135t33 209q0 111 -29 199.5
t-92.5 140.5t-165.5 52q-94 0 -159 -46.5t-98.5 -134.5t-33.5 -211q0 -109 30 -198t94 -141t167 -52z" />
    <glyph glyph-name="ugrave" unicode="&#xf9;" horiz-adv-x="1161" 
d="M533 -20q-81 1 -152.5 23.5t-126.5 66.5t-86.5 109.5t-31.5 152.5v702h185v-683q0 -101 62.5 -164t188.5 -63q114 0 183.5 59.5t69.5 177.5v673h184v-1034h-147l-19 198q-19 -78 -64.5 -126t-109 -70.5t-136.5 -21.5zM509 1155l-274 291h211l206 -291h-143z" />
    <glyph glyph-name="uacute" unicode="&#xfa;" horiz-adv-x="1161" 
d="M533 -20q-81 1 -152.5 23.5t-126.5 66.5t-86.5 109.5t-31.5 152.5v702h185v-683q0 -101 62.5 -164t188.5 -63q114 0 183.5 59.5t69.5 177.5v673h184v-1034h-147l-19 198q-19 -78 -64.5 -126t-109 -70.5t-136.5 -21.5zM495 1155l206 291h210l-273 -291h-143z" />
    <glyph glyph-name="ucircumflex" unicode="&#xfb;" horiz-adv-x="1161" 
d="M533 -20q-81 1 -152.5 23.5t-126.5 66.5t-86.5 109.5t-31.5 152.5v702h185v-683q0 -101 62.5 -164t188.5 -63q114 0 183.5 59.5t69.5 177.5v673h184v-1034h-147l-19 198q-19 -78 -64.5 -126t-109 -70.5t-136.5 -21.5zM260 1155l251 225h132l246 -225h-174l-140 130
l-151 -130h-164z" />
    <glyph glyph-name="udieresis" unicode="&#xfc;" horiz-adv-x="1161" 
d="M533 -20q-81 1 -152.5 23.5t-126.5 66.5t-86.5 109.5t-31.5 152.5v702h185v-683q0 -101 62.5 -164t188.5 -63q114 0 183.5 59.5t69.5 177.5v673h184v-1034h-147l-19 198q-19 -78 -64.5 -126t-109 -70.5t-136.5 -21.5zM679 1267l1 179h181l-1 -179h-181zM290 1267l1 179
h181l-1 -179h-181z" />
    <glyph glyph-name="yacute" unicode="&#xfd;" horiz-adv-x="1070" 
d="M256 -330q-91 0 -125 13l-34 13v120l106 -2q57 -2 95 8t61 27t35.5 38t20.5 40l36 98l-404 1009h187l305 -798l303 798h181l-435 -1112q-41 -98 -90.5 -153t-110 -77t-131.5 -22zM458 1155l206 291h210l-273 -291h-143z" />
    <glyph glyph-name="thorn" unicode="&#xfe;" horiz-adv-x="1179" 
d="M153 -322v1768h182v-554q25 27 65.5 65.5t104 67.5t157.5 29q120 0 216 -57.5t152 -173.5t56 -292q0 -177 -56 -300t-156 -187t-231 -64q-89 0 -157 28t-118 71q-18 16 -24.5 13.5t-6.5 -26.5v-388h-184zM588 110q92 0 161 46.5t108.5 139.5t39.5 233q0 141 -40.5 227.5
t-108.5 126.5t-150 40q-77 0 -135.5 -33t-92 -82.5t-33.5 -98.5v-475q55 -56 116 -90t135 -34z" />
    <glyph glyph-name="ydieresis" unicode="&#xff;" horiz-adv-x="1070" 
d="M256 -330q-91 0 -125 13l-34 13v120l106 -2q57 -2 95 8t61 27t35.5 38t20.5 40l36 98l-404 1009h187l305 -798l303 798h181l-435 -1112q-41 -98 -90.5 -153t-110 -77t-131.5 -22zM643 1267l1 179h181l-1 -179h-181zM254 1267l1 179h181l-1 -179h-181z" />
    <glyph glyph-name="Amacron" unicode="&#x100;" horiz-adv-x="1420" 
d="M83 0l523 1446h209l523 -1446h-189l-142 396h-593l-143 -396h-188zM463 566h493l-246 699zM411 1647v130h597v-130h-597z" />
    <glyph glyph-name="amacron" unicode="&#x101;" horiz-adv-x="1106" 
d="M443 -20q-101 0 -177.5 35.5t-120 102.5t-43.5 162q0 172 120 256t385 90l184 5v81q0 95 -57 150.5t-176 55.5q-89 -1 -157 -42t-87 -134h-163q6 101 56.5 170.5t142.5 105.5t217 36q135 0 224.5 -38t134 -112t44.5 -182v-722h-158l-14 194q-59 -121 -151.5 -167.5
t-203.5 -46.5zM498 113q53 0 104.5 19t94 51.5t68.5 73t26 83.5v177l-153 -3q-119 -2 -198 -24t-119 -69t-40 -123q0 -87 61 -136t156 -49zM269 1235v130h597v-130h-597z" />
    <glyph glyph-name="Abreve" unicode="&#x102;" horiz-adv-x="1420" 
d="M83 0l523 1446h209l523 -1446h-189l-142 396h-593l-143 -396h-188zM463 566h493l-246 699zM709 1564q-74 0 -137 25t-106 73.5t-59 118.5h135q16 -48 59.5 -78.5t107.5 -30.5q63 0 108.5 30.5t62.5 78.5h134q-16 -68 -58.5 -116.5t-106 -74.5t-140.5 -26z" />
    <glyph glyph-name="abreve" unicode="&#x103;" horiz-adv-x="1106" 
d="M443 -20q-101 0 -177.5 35.5t-120 102.5t-43.5 162q0 172 120 256t385 90l184 5v81q0 95 -57 150.5t-176 55.5q-89 -1 -157 -42t-87 -134h-163q6 101 56.5 170.5t142.5 105.5t217 36q135 0 224.5 -38t134 -112t44.5 -182v-722h-158l-14 194q-59 -121 -151.5 -167.5
t-203.5 -46.5zM498 113q53 0 104.5 19t94 51.5t68.5 73t26 83.5v177l-153 -3q-119 -2 -198 -24t-119 -69t-40 -123q0 -87 61 -136t156 -49zM566 1152q-74 0 -137 25t-106 73.5t-59 118.5h135q16 -48 59.5 -78.5t107.5 -30.5q63 0 108.5 30.5t62.5 78.5h134
q-16 -68 -58.5 -116.5t-106 -74.5t-140.5 -26z" />
    <glyph glyph-name="Aogonek" unicode="&#x104;" horiz-adv-x="1420" 
d="M83 0l523 1446h209l523 -1446h-189l-142 396h-593l-143 -396h-188zM463 566h493l-246 699zM1200 -335q-97 0 -147.5 42.5t-50.5 115.5q0 60 42.5 107.5t162.5 85.5l134 -12q-101 -42 -145.5 -79t-44.5 -86q0 -36 21.5 -54.5t70.5 -18.5q48 0 85 12.5t58 24.5v-97
q-24 -15 -75.5 -28t-110.5 -13z" />
    <glyph glyph-name="aogonek" unicode="&#x105;" horiz-adv-x="1106" 
d="M443 -20q-101 0 -177.5 35.5t-120 102.5t-43.5 162q0 172 120 256t385 90l184 5v81q0 95 -57 150.5t-176 55.5q-89 -1 -157 -42t-87 -134h-163q6 101 56.5 170.5t142.5 105.5t217 36q135 0 224.5 -38t134 -112t44.5 -182v-722h-158l-14 194q-59 -121 -151.5 -167.5
t-203.5 -46.5zM498 113q53 0 104.5 19t94 51.5t68.5 73t26 83.5v177l-153 -3q-119 -2 -198 -24t-119 -69t-40 -123q0 -87 61 -136t156 -49zM823 -329q-97 0 -147.5 42.5t-50.5 115.5q0 60 42.5 107.5t162.5 85.5l134 -12q-101 -42 -145.5 -79t-44.5 -86q0 -36 21.5 -54.5
t70.5 -18.5q48 0 85 12.5t58 24.5v-97q-24 -15 -75.5 -28t-110.5 -13z" />
    <glyph glyph-name="Cacute" unicode="&#x106;" horiz-adv-x="1377" 
d="M723 -20q-195 0 -332.5 89t-210 256t-72.5 403q0 235 72 400t209.5 251.5t333.5 86.5q153 0 271 -63.5t190 -169.5t85 -233h-197q-16 85 -61 154t-118 110t-175 41q-131 0 -221.5 -61.5t-137 -189.5t-46.5 -328q0 -302 103.5 -443.5t301.5 -141.5q102 0 175 43t118 115
t61 156h197q-11 -92 -49.5 -177.5t-105.5 -152.5t-164.5 -106t-226.5 -39zM636 1567l206 291h210l-273 -291h-143z" />
    <glyph glyph-name="cacute" unicode="&#x107;" horiz-adv-x="1087" 
d="M569 -20q-140 0 -247.5 61t-168 180t-60.5 292q0 162 55.5 283.5t162 189.5t258.5 68q111 0 199.5 -42.5t145.5 -120.5t70 -184h-164q-9 54 -41.5 99t-85 72t-123.5 27q-133 0 -216.5 -96t-83.5 -294q0 -179 76.5 -286.5t225.5 -107.5q71 0 124 27.5t85 73t41 97.5h161
q-13 -104 -70.5 -180t-146 -117.5t-197.5 -41.5zM488 1155l206 291h210l-273 -291h-143z" />
    <glyph glyph-name="Ccircumflex" unicode="&#x108;" horiz-adv-x="1377" 
d="M723 -20q-195 0 -332.5 89t-210 256t-72.5 403q0 235 72 400t209.5 251.5t333.5 86.5q153 0 271 -63.5t190 -169.5t85 -233h-197q-16 85 -61 154t-118 110t-175 41q-131 0 -221.5 -61.5t-137 -189.5t-46.5 -328q0 -302 103.5 -443.5t301.5 -141.5q102 0 175 43t118 115
t61 156h197q-11 -92 -49.5 -177.5t-105.5 -152.5t-164.5 -106t-226.5 -39zM402 1567l251 225h132l246 -225h-174l-140 130l-151 -130h-164z" />
    <glyph glyph-name="ccircumflex" unicode="&#x109;" horiz-adv-x="1087" 
d="M569 -20q-140 0 -247.5 61t-168 180t-60.5 292q0 162 55.5 283.5t162 189.5t258.5 68q111 0 199.5 -42.5t145.5 -120.5t70 -184h-164q-9 54 -41.5 99t-85 72t-123.5 27q-133 0 -216.5 -96t-83.5 -294q0 -179 76.5 -286.5t225.5 -107.5q71 0 124 27.5t85 73t41 97.5h161
q-13 -104 -70.5 -180t-146 -117.5t-197.5 -41.5zM254 1155l251 225h132l246 -225h-174l-140 130l-151 -130h-164z" />
    <glyph glyph-name="Cdotaccent" unicode="&#x10a;" horiz-adv-x="1377" 
d="M723 -20q-195 0 -332.5 89t-210 256t-72.5 403q0 235 72 400t209.5 251.5t333.5 86.5q153 0 271 -63.5t190 -169.5t85 -233h-197q-16 85 -61 154t-118 110t-175 41q-131 0 -221.5 -61.5t-137 -189.5t-46.5 -328q0 -302 103.5 -443.5t301.5 -141.5q102 0 175 43t118 115
t61 156h197q-11 -92 -49.5 -177.5t-105.5 -152.5t-164.5 -106t-226.5 -39zM623 1679v179h187v-179h-187z" />
    <glyph glyph-name="cdotaccent" unicode="&#x10b;" horiz-adv-x="1087" 
d="M569 -20q-140 0 -247.5 61t-168 180t-60.5 292q0 162 55.5 283.5t162 189.5t258.5 68q111 0 199.5 -42.5t145.5 -120.5t70 -184h-164q-9 54 -41.5 99t-85 72t-123.5 27q-133 0 -216.5 -96t-83.5 -294q0 -179 76.5 -286.5t225.5 -107.5q71 0 124 27.5t85 73t41 97.5h161
q-13 -104 -70.5 -180t-146 -117.5t-197.5 -41.5zM475 1267v179h187v-179h-187z" />
    <glyph glyph-name="Ccaron" unicode="&#x10c;" horiz-adv-x="1377" 
d="M723 -20q-195 0 -332.5 89t-210 256t-72.5 403q0 235 72 400t209.5 251.5t333.5 86.5q153 0 271 -63.5t190 -169.5t85 -233h-197q-16 85 -61 154t-118 110t-175 41q-131 0 -221.5 -61.5t-137 -189.5t-46.5 -328q0 -302 103.5 -443.5t301.5 -141.5q102 0 175 43t118 115
t61 156h197q-11 -92 -49.5 -177.5t-105.5 -152.5t-164.5 -106t-226.5 -39zM652 1567l-252 225h166l151 -135l140 135h174l-246 -225h-133z" />
    <glyph glyph-name="ccaron" unicode="&#x10d;" horiz-adv-x="1087" 
d="M569 -20q-140 0 -247.5 61t-168 180t-60.5 292q0 162 55.5 283.5t162 189.5t258.5 68q111 0 199.5 -42.5t145.5 -120.5t70 -184h-164q-9 54 -41.5 99t-85 72t-123.5 27q-133 0 -216.5 -96t-83.5 -294q0 -179 76.5 -286.5t225.5 -107.5q71 0 124 27.5t85 73t41 97.5h161
q-13 -104 -70.5 -180t-146 -117.5t-197.5 -41.5zM504 1155l-252 225h166l151 -135l140 135h174l-246 -225h-133z" />
    <glyph glyph-name="Dcaron" unicode="&#x10e;" horiz-adv-x="1387" 
d="M191 0v1446q7 0 42.5 -0.5t86.5 0t106 0t101 -1.5q266 -4 431.5 -86.5t243 -239.5t77.5 -386q0 -240 -83.5 -403t-254 -246t-433.5 -83h-317zM381 159h127q179 0 308 55.5t198.5 180.5t69.5 334t-67.5 331t-194.5 174.5t-306 52.5h-135v-1128zM616 1567l-252 225h166
l151 -135l140 135h174l-246 -225h-133z" />
    <glyph glyph-name="dcaron" unicode="&#x10f;" horiz-adv-x="1180" 
d="M530 -20q-202 0 -319.5 138t-117.5 403q0 161 47 281t141 186t234 66q75 0 132 -19t99 -48t68.5 -60t39.5 -57v616h187v-1486h-142l-20 212q-10 -30 -32 -69.5t-61.5 -77t-102.5 -61.5t-153 -24zM563 122q156 0 223.5 95.5t67.5 312.5q-1 121 -30 206t-91.5 129.5
t-166.5 44.5q-127 0 -207 -91t-80 -289q0 -194 72 -301t212 -107zM1148 1098l76 184l-55 10v194h153v-204l-79 -184h-95z" />
    <glyph glyph-name="Dcroat" unicode="&#x110;" horiz-adv-x="1414" 
d="M70 650v147h666v-147h-666zM218 0v1446q7 0 42 -0.5t86.5 0t106.5 0t101 -1.5q266 -4 431.5 -86.5t243 -239.5t77.5 -386q0 -240 -83.5 -403t-254.5 -246t-433 -83h-317zM408 159h127q179 0 308 55.5t198.5 180.5t69.5 334t-67.5 331t-194.5 174.5t-306 52.5h-135v-1128z
" />
    <glyph glyph-name="dcroat" unicode="&#x111;" horiz-adv-x="1234" 
d="M556 1191v116h618v-116h-618zM530 -20q-202 0 -319.5 138t-117.5 403q0 161 47 281t141 186t234 66q75 0 132 -19t99 -48t68.5 -60t39.5 -57v616h187v-1486h-142l-20 212q-10 -30 -32 -69.5t-61.5 -77t-102.5 -61.5t-153 -24zM563 122q156 0 223.5 95.5t67.5 312.5
q-1 121 -30 206t-91.5 129.5t-166.5 44.5q-127 0 -207 -91t-80 -289q0 -194 72 -301t212 -107z" />
    <glyph glyph-name="Emacron" unicode="&#x112;" horiz-adv-x="1241" 
d="M191 0v1446h912l-1 -163h-725v-472h653v-162h-654v-482l746 -2v-165h-931zM351 1647v130h597v-130h-597z" />
    <glyph glyph-name="emacron" unicode="&#x113;" horiz-adv-x="1133" 
d="M590 -20q-144 0 -254 63t-172 181t-62 283q0 163 56 286t162.5 192t256.5 69q146 0 247 -63t153.5 -177.5t52.5 -271.5v-68h-741q0 -98 32.5 -177.5t98.5 -126.5t167 -47q99 0 170.5 46t91.5 133h174q-18 -105 -83.5 -177t-157 -108.5t-192.5 -36.5zM290 599h562
q0 89 -30 160.5t-91.5 113t-154.5 41.5q-97 0 -161 -46.5t-95 -119t-30 -149.5zM278 1235v130h597v-130h-597z" />
    <glyph glyph-name="Ebreve" unicode="&#x114;" horiz-adv-x="1241" 
d="M191 0v1446h912l-1 -163h-725v-472h653v-162h-654v-482l746 -2v-165h-931zM648 1564q-74 0 -137 25t-106 73.5t-59 118.5h135q16 -48 59.5 -78.5t107.5 -30.5q63 0 108.5 30.5t62.5 78.5h134q-16 -68 -58.5 -116.5t-106 -74.5t-140.5 -26z" />
    <glyph glyph-name="ebreve" unicode="&#x115;" horiz-adv-x="1133" 
d="M590 -20q-144 0 -254 63t-172 181t-62 283q0 163 56 286t162.5 192t256.5 69q146 0 247 -63t153.5 -177.5t52.5 -271.5v-68h-741q0 -98 32.5 -177.5t98.5 -126.5t167 -47q99 0 170.5 46t91.5 133h174q-18 -105 -83.5 -177t-157 -108.5t-192.5 -36.5zM290 599h562
q0 89 -30 160.5t-91.5 113t-154.5 41.5q-97 0 -161 -46.5t-95 -119t-30 -149.5zM576 1152q-74 0 -137 25t-106 73.5t-59 118.5h135q16 -48 59.5 -78.5t107.5 -30.5q63 0 108.5 30.5t62.5 78.5h134q-16 -68 -58.5 -116.5t-106 -74.5t-140.5 -26z" />
    <glyph glyph-name="Edotaccent" unicode="&#x116;" horiz-adv-x="1241" 
d="M191 0v1446h912l-1 -163h-725v-472h653v-162h-654v-482l746 -2v-165h-931zM556 1679v179h187v-179h-187z" />
    <glyph glyph-name="edotaccent" unicode="&#x117;" horiz-adv-x="1133" 
d="M590 -20q-144 0 -254 63t-172 181t-62 283q0 163 56 286t162.5 192t256.5 69q146 0 247 -63t153.5 -177.5t52.5 -271.5v-68h-741q0 -98 32.5 -177.5t98.5 -126.5t167 -47q99 0 170.5 46t91.5 133h174q-18 -105 -83.5 -177t-157 -108.5t-192.5 -36.5zM290 599h562
q0 89 -30 160.5t-91.5 113t-154.5 41.5q-97 0 -161 -46.5t-95 -119t-30 -149.5zM484 1267v179h187v-179h-187z" />
    <glyph glyph-name="Eogonek" unicode="&#x118;" horiz-adv-x="1241" 
d="M191 0v1446h912l-1 -163h-725v-472h653v-162h-654v-482l746 -2v-165h-931zM995 -335q-97 0 -147.5 42.5t-50.5 115.5q0 60 42.5 107.5t162.5 85.5l134 -12q-101 -42 -145.5 -79t-44.5 -86q0 -36 21.5 -54.5t70.5 -18.5q48 0 85 12.5t58 24.5v-97q-24 -15 -75.5 -28
t-110.5 -13z" />
    <glyph glyph-name="eogonek" unicode="&#x119;" horiz-adv-x="1133" 
d="M668 -314q-97 0 -147.5 42.5t-50.5 115.5q0 40 17.5 74.5t63.5 63.5q-134 9 -235 73t-157.5 179t-56.5 273q0 163 56 286t162.5 192t256.5 69q146 0 247 -63t153.5 -177.5t52.5 -271.5v-68h-741q0 -98 32.5 -177.5t98.5 -126.5t167 -47q99 0 170.5 46t91.5 133h174
q-18 -103 -80 -170t-157 -113q-85 -40 -126 -76t-41 -83q0 -36 21.5 -54.5t70.5 -18.5q48 0 85 12.5t58 24.5v-97q-24 -14 -75.5 -27.5t-110.5 -13.5zM290 599h562q0 89 -30 160.5t-91.5 113t-154.5 41.5q-97 0 -161 -46.5t-95 -119t-30 -149.5z" />
    <glyph glyph-name="Ecaron" unicode="&#x11a;" horiz-adv-x="1241" 
d="M191 0v1446h912l-1 -163h-725v-472h653v-162h-654v-482l746 -2v-165h-931zM584 1567l-252 225h166l151 -135l140 135h174l-246 -225h-133z" />
    <glyph glyph-name="ecaron" unicode="&#x11b;" horiz-adv-x="1126" 
d="M590 -20q-144 0 -254 63t-172 181t-62 283q0 163 56 286t162.5 192t256.5 69q146 0 247 -63t153.5 -177.5t52.5 -271.5v-68h-741q0 -98 32.5 -177.5t98.5 -126.5t167 -47q99 0 170.5 46t91.5 133h174q-18 -105 -83.5 -177t-157 -108.5t-192.5 -36.5zM290 599h562
q0 89 -30 160.5t-91.5 113t-154.5 41.5q-97 0 -161 -46.5t-95 -119t-30 -149.5zM506 1155l-252 225h166l151 -135l140 135h174l-246 -225h-133z" />
    <glyph glyph-name="Gcircumflex" unicode="&#x11c;" horiz-adv-x="1466" 
d="M722 -20q-190 0 -328 87.5t-212 252.5t-74 399q0 236 75.5 403t215.5 255.5t331 88.5q109 0 205 -38t170 -103.5t118.5 -149.5t50.5 -175h-198q-14 80 -62 149t-121.5 111t-165.5 42q-125 0 -219.5 -61.5t-147 -189.5t-52.5 -328q0 -154 32 -264t89.5 -178.5t135 -101
t167.5 -32.5q91 0 158.5 32t112.5 82.5t69.5 109t26.5 112.5l6 128h-352v136l544 -1v-746h-139v220q-38 -62 -96 -117t-141.5 -89t-198.5 -34zM411 1567l251 225h132l246 -225h-174l-140 130l-151 -130h-164z" />
    <glyph glyph-name="gcircumflex" unicode="&#x11d;" horiz-adv-x="1245" 
d="M590 -342q-243 0 -379 70.5t-136 201.5q0 56 26 95.5t62 65.5t67 41.5t41 22.5q-18 10 -43 25t-44.5 40t-19.5 65q0 49 46 90t137 61q-91 46 -142 122t-51 165q0 100 54 174t155 113.5t241 39.5q101 0 169.5 -23.5t127.5 -66.5q16 7 51 21.5t76.5 31.5t78 32.5t58.5 23.5
l-1 -171l-181 -34q16 -32 25 -70t9 -71q0 -91 -47.5 -165t-143.5 -118t-240 -44q-12 0 -30.5 0.5t-31.5 1.5q-106 -3 -145.5 -23.5t-39.5 -45.5q0 -29 45 -40t152 -19q39 -2 96.5 -5t128.5 -8q162 -10 250 -83t88 -197q0 -141 -125.5 -230t-383.5 -89zM623 -223
q143 0 219.5 43t76.5 130q0 62 -47 101.5t-142 45.5l-290 19q-39 2 -81 -19.5t-71 -59.5t-29 -86q0 -82 89 -128t275 -46zM592 515q111 0 179.5 52t68.5 154q0 105 -68.5 160t-179.5 55q-114 0 -183.5 -55.5t-69.5 -159.5q0 -98 66.5 -152t186.5 -54zM285 1155l251 225h132
l246 -225h-174l-140 130l-151 -130h-164z" />
    <glyph glyph-name="Gbreve" unicode="&#x11e;" horiz-adv-x="1466" 
d="M722 -20q-190 0 -328 87.5t-212 252.5t-74 399q0 236 75.5 403t215.5 255.5t331 88.5q109 0 205 -38t170 -103.5t118.5 -149.5t50.5 -175h-198q-14 80 -62 149t-121.5 111t-165.5 42q-125 0 -219.5 -61.5t-147 -189.5t-52.5 -328q0 -154 32 -264t89.5 -178.5t135 -101
t167.5 -32.5q91 0 158.5 32t112.5 82.5t69.5 109t26.5 112.5l6 128h-352v136l544 -1v-746h-139v220q-38 -62 -96 -117t-141.5 -89t-198.5 -34zM725 1564q-74 0 -137 25t-106 73.5t-59 118.5h135q16 -48 59.5 -78.5t107.5 -30.5q63 0 108.5 30.5t62.5 78.5h134
q-16 -68 -58.5 -116.5t-106 -74.5t-140.5 -26z" />
    <glyph glyph-name="gbreve" unicode="&#x11f;" horiz-adv-x="1245" 
d="M590 -342q-243 0 -379 70.5t-136 201.5q0 56 26 95.5t62 65.5t67 41.5t41 22.5q-18 10 -43 25t-44.5 40t-19.5 65q0 49 46 90t137 61q-91 46 -142 122t-51 165q0 100 54 174t155 113.5t241 39.5q101 0 169.5 -23.5t127.5 -66.5q16 7 51 21.5t76.5 31.5t78 32.5t58.5 23.5
l-1 -171l-181 -34q16 -32 25 -70t9 -71q0 -91 -47.5 -165t-143.5 -118t-240 -44q-12 0 -30.5 0.5t-31.5 1.5q-106 -3 -145.5 -23.5t-39.5 -45.5q0 -29 45 -40t152 -19q39 -2 96.5 -5t128.5 -8q162 -10 250 -83t88 -197q0 -141 -125.5 -230t-383.5 -89zM623 -223
q143 0 219.5 43t76.5 130q0 62 -47 101.5t-142 45.5l-290 19q-39 2 -81 -19.5t-71 -59.5t-29 -86q0 -82 89 -128t275 -46zM592 515q111 0 179.5 52t68.5 154q0 105 -68.5 160t-179.5 55q-114 0 -183.5 -55.5t-69.5 -159.5q0 -98 66.5 -152t186.5 -54zM599 1152
q-74 0 -137 25t-106 73.5t-59 118.5h135q16 -48 59.5 -78.5t107.5 -30.5q63 0 108.5 30.5t62.5 78.5h134q-16 -68 -58.5 -116.5t-106 -74.5t-140.5 -26z" />
    <glyph glyph-name="Gdotaccent" unicode="&#x120;" horiz-adv-x="1466" 
d="M722 -20q-190 0 -328 87.5t-212 252.5t-74 399q0 236 75.5 403t215.5 255.5t331 88.5q109 0 205 -38t170 -103.5t118.5 -149.5t50.5 -175h-198q-14 80 -62 149t-121.5 111t-165.5 42q-125 0 -219.5 -61.5t-147 -189.5t-52.5 -328q0 -154 32 -264t89.5 -178.5t135 -101
t167.5 -32.5q91 0 158.5 32t112.5 82.5t69.5 109t26.5 112.5l6 128h-352v136l544 -1v-746h-139v220q-38 -62 -96 -117t-141.5 -89t-198.5 -34zM632 1679v179h187v-179h-187z" />
    <glyph glyph-name="gdotaccent" unicode="&#x121;" horiz-adv-x="1245" 
d="M590 -342q-243 0 -379 70.5t-136 201.5q0 56 26 95.5t62 65.5t67 41.5t41 22.5q-18 10 -43 25t-44.5 40t-19.5 65q0 49 46 90t137 61q-91 46 -142 122t-51 165q0 100 54 174t155 113.5t241 39.5q101 0 169.5 -23.5t127.5 -66.5q16 7 51 21.5t76.5 31.5t78 32.5t58.5 23.5
l-1 -171l-181 -34q16 -32 25 -70t9 -71q0 -91 -47.5 -165t-143.5 -118t-240 -44q-12 0 -30.5 0.5t-31.5 1.5q-106 -3 -145.5 -23.5t-39.5 -45.5q0 -29 45 -40t152 -19q39 -2 96.5 -5t128.5 -8q162 -10 250 -83t88 -197q0 -141 -125.5 -230t-383.5 -89zM623 -223
q143 0 219.5 43t76.5 130q0 62 -47 101.5t-142 45.5l-290 19q-39 2 -81 -19.5t-71 -59.5t-29 -86q0 -82 89 -128t275 -46zM592 515q111 0 179.5 52t68.5 154q0 105 -68.5 160t-179.5 55q-114 0 -183.5 -55.5t-69.5 -159.5q0 -98 66.5 -152t186.5 -54zM506 1267v179h187v-179
h-187z" />
    <glyph glyph-name="uni0122" unicode="&#x122;" horiz-adv-x="1466" 
d="M722 -20q-190 0 -328 87.5t-212 252.5t-74 399q0 236 75.5 403t215.5 255.5t331 88.5q109 0 205 -38t170 -103.5t118.5 -149.5t50.5 -175h-198q-14 80 -62 149t-121.5 111t-165.5 42q-125 0 -219.5 -61.5t-147 -189.5t-52.5 -328q0 -154 32 -264t89.5 -178.5t135 -101
t167.5 -32.5q91 0 158.5 32t112.5 82.5t69.5 109t26.5 112.5l6 128h-352v136l544 -1v-746h-139v220q-38 -62 -96 -117t-141.5 -89t-198.5 -34zM612 -380l82 124l-63 5v154h187v-129l-130 -154h-76z" />
    <glyph glyph-name="uni0123" unicode="&#x123;" horiz-adv-x="1245" 
d="M590 -342q-243 0 -379 70.5t-136 201.5q0 56 26 95.5t62 65.5t67 41.5t41 22.5q-18 10 -43 25t-44.5 40t-19.5 65q0 49 46 90t137 61q-91 46 -142 122t-51 165q0 100 54 174t155 113.5t241 39.5q101 0 169.5 -23.5t127.5 -66.5q16 7 51 21.5t76.5 31.5t78 32.5t58.5 23.5
l-1 -171l-181 -34q16 -32 25 -70t9 -71q0 -91 -47.5 -165t-143.5 -118t-240 -44q-12 0 -30.5 0.5t-31.5 1.5q-106 -3 -145.5 -23.5t-39.5 -45.5q0 -29 45 -40t152 -19q39 -2 96.5 -5t128.5 -8q162 -10 250 -83t88 -197q0 -141 -125.5 -230t-383.5 -89zM623 -223
q143 0 219.5 43t76.5 130q0 62 -47 101.5t-142 45.5l-290 19q-39 2 -81 -19.5t-71 -59.5t-29 -86q0 -82 89 -128t275 -46zM592 515q111 0 179.5 52t68.5 154q0 105 -68.5 160t-179.5 55q-114 0 -183.5 -55.5t-69.5 -159.5q0 -98 66.5 -152t186.5 -54zM510 1155v173l106 163
h85l-76 -150l63 -5v-181h-178z" />
    <glyph glyph-name="Hcircumflex" unicode="&#x124;" horiz-adv-x="1532" 
d="M191 0v1446h185v-616h780v616h185v-1446h-185v667h-780v-667h-185zM448 1575l251 225h132l246 -225h-174l-140 130l-151 -130h-164z" />
    <glyph glyph-name="hcircumflex" unicode="&#x125;" horiz-adv-x="1153" 
d="M153 0v1486h180v-604q26 43 70 80.5t107 61t146 23.5q101 0 183 -37.5t130 -106.5t48 -164v-739h-185v702q0 93 -63.5 143.5t-165.5 50.5q-69 0 -130 -22.5t-98.5 -68t-37.5 -115.5v-690h-184zM-74 1567l251 225h132l246 -225h-174l-140 130l-151 -130h-164z" />
    <glyph glyph-name="Hbar" unicode="&#x126;" horiz-adv-x="1583" 
d="M27 1112v121h1529v-121h-1529zM223 0v1446h185v-616h780v616h185v-1446h-185v667h-780v-667h-185z" />
    <glyph glyph-name="hbar" unicode="&#x127;" horiz-adv-x="1177" 
d="M40 1191v116h618v-116h-618zM177 0v1486h181v-604q26 43 70 80.5t107 61t146 23.5q100 0 182 -37.5t130.5 -106.5t48.5 -164v-739h-186v702q0 93 -63.5 143.5t-165.5 50.5q-69 0 -130 -22.5t-98 -68t-37 -115.5v-690h-185z" />
    <glyph glyph-name="Itilde" unicode="&#x128;" horiz-adv-x="566" 
d="M191 0v1446h185v-1446h-185zM21 1631l-35 110q34 31 72 53t95 22q49 0 92.5 -14t85 -28t85.5 -14q45 0 78 16.5t62 39.5l32 -122q-26 -19 -67.5 -38.5t-104.5 -19.5q-54 0 -94 13t-77.5 26t-83.5 13q-49 0 -79 -16.5t-61 -40.5z" />
    <glyph glyph-name="itilde" unicode="&#x129;" horiz-adv-x="559" 
d="M186 0v1034h178v-1034h-178zM13 1219l-35 110q34 31 72 53t95 22q49 0 92.5 -14t85 -28t85.5 -14q45 0 78 16.5t62 39.5l32 -122q-26 -19 -67.5 -38.5t-104.5 -19.5q-54 0 -94 13t-77.5 26t-83.5 13q-49 0 -79 -16.5t-61 -40.5z" />
    <glyph glyph-name="Imacron" unicode="&#x12a;" horiz-adv-x="566" 
d="M191 0v1446h185v-1446h-185zM-15 1647v130h597v-130h-597z" />
    <glyph glyph-name="imacron" unicode="&#x12b;" horiz-adv-x="569" 
d="M194 0v1034h178v-1034h-178zM-15 1235v130h597v-130h-597z" />
    <glyph glyph-name="Ibreve" unicode="&#x12c;" horiz-adv-x="566" 
d="M191 0v1446h185v-1446h-185zM283 1564q-74 0 -137 25t-106 73.5t-59 118.5h135q16 -48 59.5 -78.5t107.5 -30.5q63 0 108.5 30.5t62.5 78.5h134q-16 -68 -58.5 -116.5t-106 -74.5t-140.5 -26z" />
    <glyph glyph-name="ibreve" unicode="&#x12d;" horiz-adv-x="484" 
d="M153 0v1034h178v-1034h-178zM242 1152q-74 0 -137 25t-106 73.5t-59 118.5h135q16 -48 59.5 -78.5t107.5 -30.5q63 0 108.5 30.5t62.5 78.5h134q-16 -68 -58.5 -116.5t-106 -74.5t-140.5 -26z" />
    <glyph glyph-name="Iogonek" unicode="&#x12e;" horiz-adv-x="566" 
d="M191 0v1446h185v-1446h-185zM233 -339q-97 0 -147.5 42.5t-50.5 115.5q0 60 42.5 107.5t162.5 85.5l134 -12q-101 -42 -145.5 -79t-44.5 -86q0 -36 21.5 -54.5t70.5 -18.5q48 0 85 12.5t58 24.5v-97q-24 -15 -75.5 -28t-110.5 -13z" />
    <glyph glyph-name="iogonek" unicode="&#x12f;" horiz-adv-x="484" 
d="M153 0v1034h178v-1034h-178zM149 1267v179h187v-179h-187zM189 -331q-97 0 -147.5 42.5t-50.5 115.5q0 60 42.5 107.5t162.5 85.5l134 -12q-101 -42 -145.5 -79t-44.5 -86q0 -36 21.5 -54.5t70.5 -18.5q48 0 85 12.5t58 24.5v-97q-24 -15 -75.5 -28t-110.5 -13z" />
    <glyph glyph-name="Idotaccent" unicode="&#x130;" horiz-adv-x="566" 
d="M191 0v1446h185v-1446h-185zM190 1679v179h187v-179h-187z" />
    <glyph glyph-name="dotlessi" unicode="&#x131;" horiz-adv-x="484" 
d="M153 0v1034h178v-1034h-178z" />
    <glyph glyph-name="Jcircumflex" unicode="&#x134;" horiz-adv-x="777" 
d="M317 -20q-77 0 -144.5 18t-89.5 27l13 177q31 -11 71.5 -27.5t100.5 -16.5q98 0 134.5 54t36.5 182v1052h185v-1105q0 -115 -26 -196t-92.5 -123t-188.5 -42zM212 1567l251 225h132l246 -225h-174l-140 130l-151 -130h-164z" />
    <glyph glyph-name="jcircumflex" unicode="&#x135;" horiz-adv-x="521" 
d="M84 -332q-84 0 -107 8t-23 16v123l103 5q69 5 98 37t29 103v1074h184v-1080q0 -145 -63.5 -215.5t-220.5 -70.5zM-40 1155l251 225h132l246 -225h-174l-140 130l-151 -130h-164z" />
    <glyph glyph-name="uni0136" unicode="&#x136;" horiz-adv-x="1364" 
d="M191 0v1446h192v-748l648 748h221l-483 -568l525 -878h-209l-451 743l-251 -287v-456h-192zM572 -380l82 124l-63 5v154h187v-129l-130 -154h-76z" />
    <glyph glyph-name="uni0137" unicode="&#x137;" horiz-adv-x="1123" 
d="M153 0v1486h184v-969l486 517h212l-373 -394l399 -640h-196l-324 519l-204 -211v-308h-184zM448 -380l82 124l-63 5v154h187v-129l-130 -154h-76z" />
    <glyph glyph-name="kgreenlandic" unicode="&#x138;" horiz-adv-x="1144" 
d="M153 0v1034h184v-532l507 532h203l-357 -362l392 -672h-217l-302 534l-226 -226v-308h-184z" />
    <glyph glyph-name="Lacute" unicode="&#x139;" horiz-adv-x="1155" 
d="M191 0l1 1446h189v-1280h683v-166h-873zM204 1567l206 291h210l-273 -291h-143z" />
    <glyph glyph-name="lacute" unicode="&#x13a;" horiz-adv-x="606" 
d="M414 -13q-84 0 -135.5 23t-79 62t-37 89.5t-9.5 104.5v1220h182v-1202q0 -78 30.5 -117t85.5 -43l56 -1v-120q-23 -7 -48 -11.5t-45 -4.5zM159 1647l206 291h210l-273 -291h-143z" />
    <glyph glyph-name="uni013B" unicode="&#x13b;" horiz-adv-x="1155" 
d="M191 0l1 1446h189v-1280h683v-166h-873zM507 -380l82 124l-63 5v154h187v-129l-130 -154h-76z" />
    <glyph glyph-name="uni013C" unicode="&#x13c;" horiz-adv-x="606" 
d="M414 -13q-84 0 -135.5 23t-79 62t-37 89.5t-9.5 104.5v1220h182v-1202q0 -78 30.5 -117t85.5 -43l56 -1v-120q-23 -7 -48 -11.5t-45 -4.5zM151 -379l82 124l-63 5v154h187v-129l-130 -154h-76z" />
    <glyph glyph-name="Lcaron" unicode="&#x13d;" horiz-adv-x="1155" 
d="M191 0l1 1446h189v-1280h683v-166h-873zM761 1058l76 184l-55 10v194h153v-204l-79 -184h-95z" />
    <glyph glyph-name="lcaron" unicode="&#x13e;" horiz-adv-x="606" 
d="M414 -13q-84 0 -135.5 23t-79 62t-37 89.5t-9.5 104.5v1220h182v-1202q0 -78 30.5 -117t85.5 -43l56 -1v-120q-23 -7 -48 -11.5t-45 -4.5zM442 1098l76 184l-55 10v194h153v-204l-79 -184h-95z" />
    <glyph glyph-name="Ldot" unicode="&#x13f;" horiz-adv-x="1155" 
d="M191 0l1 1446h189v-1280h683v-166h-873zM752 678v221h229v-221h-229z" />
    <glyph glyph-name="ldot" unicode="&#x140;" horiz-adv-x="701" 
d="M414 -13q-84 0 -135.5 23t-79 62t-37 89.5t-9.5 104.5v1220h182v-1202q0 -78 30.5 -117t85.5 -43l56 -1v-120q-23 -7 -48 -11.5t-45 -4.5zM480 664v221h229v-221h-229z" />
    <glyph glyph-name="Lslash" unicode="&#x141;" horiz-adv-x="1162" 
d="M20 601v159l677 176v-151zM198 0l1 1446h189v-1280h683v-166h-873z" />
    <glyph glyph-name="lslash" unicode="&#x142;" horiz-adv-x="705" 
d="M70 321v170l520 420v-162zM489 -13q-83 0 -135 23t-79.5 62t-37 89.5t-9.5 104.5v1220h182v-1202q0 -78 30.5 -117t85.5 -43l56 -1v-120q-23 -7 -48 -11.5t-45 -4.5z" />
    <glyph glyph-name="Nacute" unicode="&#x143;" horiz-adv-x="1508" 
d="M191 0v1446h177l764 -1124v1124h185v-1446h-165l-776 1140v-1140h-185zM673 1567l206 291h210l-273 -291h-143z" />
    <glyph glyph-name="nacute" unicode="&#x144;" horiz-adv-x="1154" 
d="M153 0v1034h179v-150q25 43 69.5 81t108 61t146.5 23q98 0 180.5 -39t132 -121.5t49.5 -212.5v-676h-185v658q0 121 -63.5 179.5t-164.5 58.5q-70 0 -131 -22.5t-99 -68t-38 -114.5v-691h-184zM517 1155l206 291h210l-273 -291h-143z" />
    <glyph glyph-name="uni0145" unicode="&#x145;" horiz-adv-x="1508" 
d="M191 0v1446h177l764 -1124v1124h185v-1446h-165l-776 1140v-1140h-185zM612 -380l82 124l-63 5v154h187v-129l-130 -154h-76z" />
    <glyph glyph-name="uni0146" unicode="&#x146;" horiz-adv-x="1154" 
d="M153 0v1034h179v-150q25 43 69.5 81t108 61t146.5 23q98 0 180.5 -39t132 -121.5t49.5 -212.5v-676h-185v658q0 121 -63.5 179.5t-164.5 58.5q-70 0 -131 -22.5t-99 -68t-38 -114.5v-691h-184zM476 -380l82 124l-63 5v154h187v-129l-130 -154h-76z" />
    <glyph glyph-name="Ncaron" unicode="&#x147;" horiz-adv-x="1508" 
d="M191 0v1446h177l764 -1124v1124h185v-1446h-165l-776 1140v-1140h-185zM688 1567l-252 225h166l151 -135l140 135h174l-246 -225h-133z" />
    <glyph glyph-name="ncaron" unicode="&#x148;" horiz-adv-x="1154" 
d="M153 0v1034h179v-150q25 43 69.5 81t108 61t146.5 23q98 0 180.5 -39t132 -121.5t49.5 -212.5v-676h-185v658q0 121 -63.5 179.5t-164.5 58.5q-70 0 -131 -22.5t-99 -68t-38 -114.5v-691h-184zM533 1155l-252 225h166l151 -135l140 135h174l-246 -225h-133z" />
    <glyph glyph-name="Eng" unicode="&#x14a;" horiz-adv-x="1508" 
d="M1010 -480q-77 0 -144.5 18t-90.5 27l13 177q31 -11 71.5 -27.5t101.5 -16.5q92 0 132 48.5t40 164.5v117l-757 1112v-1140h-185v1446h177l764 -1124v1124h185v-1564q0 -122 -28 -202t-95 -120t-184 -40z" />
    <glyph glyph-name="eng" unicode="&#x14b;" horiz-adv-x="1171" 
d="M737 -332q-79 0 -98 6.5t-19 14.5v124l87 3q68 5 97 36.5t29 105.5v752q0 90 -45.5 145.5t-151.5 55.5q-77 0 -151.5 -41.5t-145.5 -113.5v-756h-186l2 1034h178v-158q72 64 132.5 103t118 57t122.5 18q146 0 229.5 -82t83.5 -216v-789q0 -94 -32.5 -161t-95.5 -102.5
t-154 -35.5z" />
    <glyph glyph-name="Omacron" unicode="&#x14c;" horiz-adv-x="1468" 
d="M736 -20q-193 0 -334 87t-217.5 252.5t-76.5 400.5q0 237 77 403.5t218.5 254.5t332.5 88q192 0 332 -87.5t216 -254t76 -404.5q0 -235 -75.5 -400.5t-215.5 -252.5t-333 -87zM736 141q134 0 228 61t143.5 189t49.5 327q0 202 -50 332t-144 192.5t-227 62.5
q-132 0 -227 -63t-146 -193t-51 -331q0 -199 51 -327t146 -189t227 -61zM438 1647v130h597v-130h-597z" />
    <glyph glyph-name="omacron" unicode="&#x14d;" horiz-adv-x="1131" 
d="M567 -20q-143 0 -249.5 61.5t-165.5 180.5t-59 291q0 162 55 284t161 189.5t259 67.5q143 0 248 -62.5t163.5 -183.5t58.5 -295q0 -158 -54 -278t-158.5 -187.5t-258.5 -67.5zM568 126q92 0 156 47t97.5 135t33.5 209q0 111 -29.5 199.5t-92.5 140.5t-165 52
q-94 0 -159 -46.5t-98.5 -134.5t-33.5 -211q0 -109 29.5 -198t94 -141t167.5 -52zM267 1235v130h597v-130h-597z" />
    <glyph glyph-name="Obreve" unicode="&#x14e;" horiz-adv-x="1468" 
d="M736 -20q-193 0 -334 87t-217.5 252.5t-76.5 400.5q0 237 77 403.5t218.5 254.5t332.5 88q192 0 332 -87.5t216 -254t76 -404.5q0 -235 -75.5 -400.5t-215.5 -252.5t-333 -87zM736 141q134 0 228 61t143.5 189t49.5 327q0 202 -50 332t-144 192.5t-227 62.5
q-132 0 -227 -63t-146 -193t-51 -331q0 -199 51 -327t146 -189t227 -61zM735 1564q-74 0 -137 25t-106 73.5t-59 118.5h135q16 -48 59.5 -78.5t107.5 -30.5q63 0 108.5 30.5t62.5 78.5h134q-16 -68 -58.5 -116.5t-106 -74.5t-140.5 -26z" />
    <glyph glyph-name="obreve" unicode="&#x14f;" horiz-adv-x="1131" 
d="M567 -20q-143 0 -249.5 61.5t-165.5 180.5t-59 291q0 162 55 284t161 189.5t259 67.5q143 0 248 -62.5t163.5 -183.5t58.5 -295q0 -158 -54 -278t-158.5 -187.5t-258.5 -67.5zM568 126q92 0 156 47t97.5 135t33.5 209q0 111 -29.5 199.5t-92.5 140.5t-165 52
q-94 0 -159 -46.5t-98.5 -134.5t-33.5 -211q0 -109 29.5 -198t94 -141t167.5 -52zM565 1152q-74 0 -137 25t-106 73.5t-59 118.5h135q16 -48 59.5 -78.5t107.5 -30.5q63 0 108.5 30.5t62.5 78.5h134q-16 -68 -58.5 -116.5t-106 -74.5t-140.5 -26z" />
    <glyph glyph-name="Ohungarumlaut" unicode="&#x150;" horiz-adv-x="1468" 
d="M736 -20q-193 0 -334 87t-217.5 252.5t-76.5 400.5q0 237 77 403.5t218.5 254.5t332.5 88q192 0 332 -87.5t216 -254t76 -404.5q0 -235 -75.5 -400.5t-215.5 -252.5t-333 -87zM736 141q134 0 228 61t143.5 189t49.5 327q0 202 -50 332t-144 192.5t-227 62.5
q-132 0 -227 -63t-146 -193t-51 -331q0 -199 51 -327t146 -189t227 -61zM810 1567l236 291h198l-292 -291h-142zM531 1567l196 291h193l-247 -291h-142z" />
    <glyph glyph-name="ohungarumlaut" unicode="&#x151;" horiz-adv-x="1131" 
d="M567 -20q-143 0 -249.5 61.5t-165.5 180.5t-59 291q0 162 55 284t161 189.5t259 67.5q143 0 248 -62.5t163.5 -183.5t58.5 -295q0 -158 -54 -278t-158.5 -187.5t-258.5 -67.5zM568 126q92 0 156 47t97.5 135t33.5 209q0 111 -29.5 199.5t-92.5 140.5t-165 52
q-94 0 -159 -46.5t-98.5 -134.5t-33.5 -211q0 -109 29.5 -198t94 -141t167.5 -52zM639 1155l236 291h198l-292 -291h-142zM360 1155l196 291h193l-247 -291h-142z" />
    <glyph glyph-name="OE" unicode="&#x152;" horiz-adv-x="2236" 
d="M1370 649v-482l746 -2v-165h-931v225q-69 -120 -183 -182.5t-266 -62.5q-193 0 -334 87t-217.5 252.5t-76.5 400.5q0 237 77 403.5t218.5 254.5t332.5 88q152 0 266 -62.5t183 -184.5v227h912v-163h-726v-472h654v-162h-655zM736 141q134 0 228 61t143.5 189t49.5 327
q0 202 -50 332t-144 192.5t-227 62.5q-132 0 -227 -63t-146 -193t-51 -331q0 -199 51 -327t146 -189t227 -61z" />
    <glyph glyph-name="oe" unicode="&#x153;" horiz-adv-x="1896" 
d="M1792 542v-68h-741q0 -98 32.5 -177.5t99 -126.5t166.5 -47q99 0 170.5 46t92.5 133h174q-19 -105 -84 -177t-157 -108.5t-192 -36.5q-136 0 -240 60t-160 171q-51 -108 -147 -169.5t-239 -61.5t-249.5 61.5t-165.5 180.5t-59 291q0 162 55 284t161 189.5t259 67.5
q133 0 232.5 -58t153.5 -175q53 111 151 172t234 61q146 0 247 -63t153.5 -177.5t52.5 -271.5zM568 126q92 0 156 47t97.5 135t33.5 209q0 111 -29.5 199.5t-92.5 140.5t-165 52q-94 0 -159 -46.5t-98.5 -134.5t-33.5 -211q0 -109 29.5 -198t94 -141t167.5 -52zM1052 599
h562q0 89 -30 160.5t-91.5 113t-154.5 41.5q-97 0 -160.5 -46.5t-95 -119t-30.5 -149.5z" />
    <glyph glyph-name="Racute" unicode="&#x154;" horiz-adv-x="1353" 
d="M191 0v1446h560q156 0 261 -47.5t157 -136t52 -211.5q0 -118 -41.5 -196t-105.5 -125.5t-133 -73.5l284 -656h-196l-264 623h-389v-623h-185zM376 776h315q163 0 252 66.5t89 197.5q0 128 -79.5 191.5t-217.5 63.5h-359v-519zM578 1567l206 291h210l-273 -291h-143z" />
    <glyph glyph-name="racute" unicode="&#x155;" horiz-adv-x="782" 
d="M153 0v1034h176v-199q26 74 73 122.5t107.5 72.5t125.5 24q23 0 45 -3t34 -10v-179q-15 7 -38.5 9.5t-39.5 2.5q-62 4 -116 -7.5t-95 -39.5t-64.5 -73.5t-23.5 -110.5v-643h-184zM342 1155l206 291h210l-273 -291h-143z" />
    <glyph glyph-name="uni0156" unicode="&#x156;" horiz-adv-x="1353" 
d="M191 0v1446h560q156 0 261 -47.5t157 -136t52 -211.5q0 -118 -41.5 -196t-105.5 -125.5t-133 -73.5l284 -656h-196l-264 623h-389v-623h-185zM376 776h315q163 0 252 66.5t89 197.5q0 128 -79.5 191.5t-217.5 63.5h-359v-519zM564 -380l82 124l-63 5v154h187v-129
l-130 -154h-76z" />
    <glyph glyph-name="uni0157" unicode="&#x157;" horiz-adv-x="782" 
d="M153 0v1034h176v-199q26 74 73 122.5t107.5 72.5t125.5 24q23 0 45 -3t34 -10v-179q-15 7 -38.5 9.5t-39.5 2.5q-62 4 -116 -7.5t-95 -39.5t-64.5 -73.5t-23.5 -110.5v-643h-184zM133 -380l82 124l-63 5v154h187v-129l-130 -154h-76z" />
    <glyph glyph-name="Rcaron" unicode="&#x158;" horiz-adv-x="1353" 
d="M191 0v1446h560q156 0 261 -47.5t157 -136t52 -211.5q0 -118 -41.5 -196t-105.5 -125.5t-133 -73.5l284 -656h-196l-264 623h-389v-623h-185zM376 776h315q163 0 252 66.5t89 197.5q0 128 -79.5 191.5t-217.5 63.5h-359v-519zM593 1567l-252 225h166l151 -135l140 135
h174l-246 -225h-133z" />
    <glyph glyph-name="rcaron" unicode="&#x159;" horiz-adv-x="782" 
d="M153 0v1034h176v-199q26 74 73 122.5t107.5 72.5t125.5 24q23 0 45 -3t34 -10v-179q-15 7 -38.5 9.5t-39.5 2.5q-62 4 -116 -7.5t-95 -39.5t-64.5 -73.5t-23.5 -110.5v-643h-184zM357 1155l-252 225h166l151 -135l140 135h174l-246 -225h-133z" />
    <glyph glyph-name="Sacute" unicode="&#x15a;" horiz-adv-x="1340" 
d="M681 -20q-106 0 -201 25.5t-172.5 76.5t-128 126.5t-63.5 175.5h194q18 -82 71.5 -138t133 -84t174.5 -28q92 0 169.5 29t124.5 84.5t47 133.5q0 86 -56 138.5t-173 84.5l-298 77q-101 25 -178.5 70.5t-121.5 120t-44 185.5q0 123 68 214.5t184.5 142t263.5 50.5
q170 0 286.5 -59t176.5 -155t60 -205h-190q-9 99 -58 156.5t-122 83t-159 25.5q-155 0 -234.5 -70.5t-79.5 -167.5q0 -89 57 -140t168 -79l290 -75q129 -30 205.5 -87t110 -132.5t33.5 -163.5q0 -120 -67 -214t-187.5 -147.5t-283.5 -53.5zM585 1567l206 291h210l-273 -291
h-143z" />
    <glyph glyph-name="sacute" unicode="&#x15b;" horiz-adv-x="1012" 
d="M525 -20q-108 0 -200.5 33.5t-153.5 105t-76 182.5h168q13 -61 50 -101.5t91.5 -61t119.5 -20.5q105 0 169 39t64 120q0 57 -33.5 91.5t-104.5 50.5l-214 53q-125 30 -199.5 94t-75.5 179q0 91 44 160t131.5 109t218.5 40q169 0 272 -75.5t108 -221.5h-164
q-10 74 -66 117.5t-152 43.5q-98 0 -160.5 -39.5t-62.5 -122.5q0 -55 44.5 -86.5t129.5 -52.5l208 -52q71 -19 118 -50t74 -69t38.5 -79.5t11.5 -79.5q0 -95 -47 -163.5t-136 -106t-215 -37.5zM445 1155l206 291h210l-273 -291h-143z" />
    <glyph glyph-name="Scircumflex" unicode="&#x15c;" horiz-adv-x="1340" 
d="M681 -20q-106 0 -201 25.5t-172.5 76.5t-128 126.5t-63.5 175.5h194q18 -82 71.5 -138t133 -84t174.5 -28q92 0 169.5 29t124.5 84.5t47 133.5q0 86 -56 138.5t-173 84.5l-298 77q-101 25 -178.5 70.5t-121.5 120t-44 185.5q0 123 68 214.5t184.5 142t263.5 50.5
q170 0 286.5 -59t176.5 -155t60 -205h-190q-9 99 -58 156.5t-122 83t-159 25.5q-155 0 -234.5 -70.5t-79.5 -167.5q0 -89 57 -140t168 -79l290 -75q129 -30 205.5 -87t110 -132.5t33.5 -163.5q0 -120 -67 -214t-187.5 -147.5t-283.5 -53.5zM351 1567l251 225h132l246 -225
h-174l-140 130l-151 -130h-164z" />
    <glyph glyph-name="scircumflex" unicode="&#x15d;" horiz-adv-x="1012" 
d="M525 -20q-108 0 -200.5 33.5t-153.5 105t-76 182.5h168q13 -61 50 -101.5t91.5 -61t119.5 -20.5q105 0 169 39t64 120q0 57 -33.5 91.5t-104.5 50.5l-214 53q-125 30 -199.5 94t-75.5 179q0 91 44 160t131.5 109t218.5 40q169 0 272 -75.5t108 -221.5h-164
q-10 74 -66 117.5t-152 43.5q-98 0 -160.5 -39.5t-62.5 -122.5q0 -55 44.5 -86.5t129.5 -52.5l208 -52q71 -19 118 -50t74 -69t38.5 -79.5t11.5 -79.5q0 -95 -47 -163.5t-136 -106t-215 -37.5zM211 1155l251 225h132l246 -225h-174l-140 130l-151 -130h-164z" />
    <glyph glyph-name="Scedilla" unicode="&#x15e;" horiz-adv-x="1340" 
d="M627 -412q-54 0 -101.5 12t-88.5 38l31 78q26 -19 59.5 -33t77.5 -14q55 0 81.5 19t26.5 54q0 43 -37 64.5t-123 23.5q-9 0 -12 3t0 10l73 167h98l-48 -121q69 -3 108 -25.5t55.5 -55t16.5 -65.5q0 -51 -30 -85t-79.5 -52t-107.5 -18zM681 -20q-106 0 -201 25.5
t-172.5 76.5t-128 126.5t-63.5 175.5h194q18 -82 71.5 -138t133 -84t174.5 -28q92 0 169.5 29t124.5 84.5t47 133.5q0 86 -56 138.5t-173 84.5l-298 77q-101 25 -178.5 70.5t-121.5 120t-44 185.5q0 123 68 214.5t184.5 142t263.5 50.5q170 0 286.5 -59t176.5 -155t60 -205
h-190q-9 99 -58 156.5t-122 83t-159 25.5q-155 0 -234.5 -70.5t-79.5 -167.5q0 -89 57 -140t168 -79l290 -75q129 -30 205.5 -87t110 -132.5t33.5 -163.5q0 -120 -67 -214t-187.5 -147.5t-283.5 -53.5z" />
    <glyph glyph-name="scedilla" unicode="&#x15f;" horiz-adv-x="1012" 
d="M478 -412q-53 0 -100.5 12t-89.5 38l31 78q26 -19 59.5 -33t77.5 -14q55 0 81.5 19t26.5 54q0 43 -37 64.5t-123 23.5q-9 0 -12 3t0 10l73 167h98l-48 -121q69 -3 108 -25.5t55.5 -55t16.5 -65.5q0 -51 -30 -85t-79 -52t-108 -18zM525 -20q-108 0 -200.5 33.5t-153.5 105
t-76 182.5h168q13 -61 50 -101.5t91.5 -61t119.5 -20.5q105 0 169 39t64 120q0 57 -33.5 91.5t-104.5 50.5l-214 53q-125 30 -199.5 94t-75.5 179q0 91 44 160t131.5 109t218.5 40q169 0 272 -75.5t108 -221.5h-164q-10 74 -66 117.5t-152 43.5q-98 0 -160.5 -39.5
t-62.5 -122.5q0 -55 44.5 -86.5t129.5 -52.5l208 -52q71 -19 118 -50t74 -69t38.5 -79.5t11.5 -79.5q0 -95 -47 -163.5t-136 -106t-215 -37.5z" />
    <glyph glyph-name="Scaron" unicode="&#x160;" horiz-adv-x="1340" 
d="M681 -20q-106 0 -201 25.5t-172.5 76.5t-128 126.5t-63.5 175.5h194q18 -82 71.5 -138t133 -84t174.5 -28q92 0 169.5 29t124.5 84.5t47 133.5q0 86 -56 138.5t-173 84.5l-298 77q-101 25 -178.5 70.5t-121.5 120t-44 185.5q0 123 68 214.5t184.5 142t263.5 50.5
q170 0 286.5 -59t176.5 -155t60 -205h-190q-9 99 -58 156.5t-122 83t-159 25.5q-155 0 -234.5 -70.5t-79.5 -167.5q0 -89 57 -140t168 -79l290 -75q129 -30 205.5 -87t110 -132.5t33.5 -163.5q0 -120 -67 -214t-187.5 -147.5t-283.5 -53.5zM601 1567l-252 225h166l151 -135
l140 135h174l-246 -225h-133z" />
    <glyph glyph-name="scaron" unicode="&#x161;" horiz-adv-x="1012" 
d="M525 -20q-108 0 -200.5 33.5t-153.5 105t-76 182.5h168q13 -61 50 -101.5t91.5 -61t119.5 -20.5q105 0 169 39t64 120q0 57 -33.5 91.5t-104.5 50.5l-214 53q-125 30 -199.5 94t-75.5 179q0 91 44 160t131.5 109t218.5 40q169 0 272 -75.5t108 -221.5h-164
q-10 74 -66 117.5t-152 43.5q-98 0 -160.5 -39.5t-62.5 -122.5q0 -55 44.5 -86.5t129.5 -52.5l208 -52q71 -19 118 -50t74 -69t38.5 -79.5t11.5 -79.5q0 -95 -47 -163.5t-136 -106t-215 -37.5zM461 1155l-252 225h166l151 -135l140 135h174l-246 -225h-133z" />
    <glyph glyph-name="uni0162" unicode="&#x162;" horiz-adv-x="1187" 
d="M583 -409q-53 0 -100.5 12t-89.5 38l31 77q27 -19 60 -32.5t78 -13.5q54 0 80.5 19t26.5 54q0 43 -37 64t-122 23q-10 0 -13 3t1 11l72 167h98l-47 -121q68 -3 107 -25.5t55.5 -55.5t16.5 -66q0 -50 -30 -84.5t-79 -52t-108 -17.5zM513 0v1276h-467v170h1094v-170h-441
v-1276h-186z" />
    <glyph glyph-name="uni0163" unicode="&#x163;" horiz-adv-x="778" 
d="M434 -406q-54 0 -101.5 12t-88.5 39l31 77q26 -19 59.5 -33t77.5 -14q55 0 81.5 19.5t26.5 53.5q0 43 -37 64.5t-123 23.5q-9 0 -12 3t0 10l73 167h98l-48 -120q69 -4 108 -26.5t55.5 -55t16.5 -65.5q0 -50 -30 -84.5t-79.5 -52.5t-107.5 -18zM532 -5q-107 0 -166 29
t-82.5 86t-23.5 140v649h-168v135h173l45 301h136v-300h233v-136h-233v-643q0 -55 11.5 -80.5t38.5 -32.5t76 -7h113v-124q-19 -7 -57.5 -12t-95.5 -5z" />
    <glyph glyph-name="Tcaron" unicode="&#x164;" horiz-adv-x="1187" 
d="M513 0v1276h-467v170h1094v-170h-441v-1276h-186zM548 1567l-252 225h166l151 -135l140 135h174l-246 -225h-133z" />
    <glyph glyph-name="tcaron" unicode="&#x165;" horiz-adv-x="845" 
d="M532 -5q-107 0 -166 29t-82.5 86t-23.5 140v649h-168v135h173l45 301h136v-300h233v-136h-233v-643q0 -55 11.5 -80.5t38.5 -32.5t76 -7h113v-124q-19 -7 -57.5 -12t-95.5 -5zM531 1132l76 184l-55 10v194h153v-204l-79 -184h-95z" />
    <glyph glyph-name="Tbar" unicode="&#x166;" horiz-adv-x="1187" 
d="M212 649v148h762v-148h-762zM513 0v1276h-467v170h1094v-170h-441v-1276h-186z" />
    <glyph glyph-name="tbar" unicode="&#x167;" horiz-adv-x="778" 
d="M102 539v117h566v-117h-566zM532 -5q-107 0 -166 29t-82.5 86t-23.5 140v649h-168v135h173l45 301h136v-300h233v-136h-233v-643q0 -55 11.5 -80.5t38.5 -32.5t76 -7h113v-124q-19 -7 -57.5 -12t-95.5 -5z" />
    <glyph glyph-name="Utilde" unicode="&#x168;" horiz-adv-x="1401" 
d="M719 -20q-188 0 -304.5 62t-170 182t-53.5 295v927h192v-955q0 -175 87 -262t249 -87q109 0 185.5 38t117 115.5t40.5 195.5v955h186v-946q0 -167 -55 -283t-171.5 -176.5t-302.5 -60.5zM458 1631l-35 110q34 31 72 53t95 22q49 0 92.5 -14t85 -28t85.5 -14q45 0 78 16.5
t62 39.5l32 -122q-26 -19 -67.5 -38.5t-104.5 -19.5q-54 0 -94 13t-77.5 26t-83.5 13q-49 0 -79 -16.5t-61 -40.5z" />
    <glyph glyph-name="utilde" unicode="&#x169;" horiz-adv-x="1161" 
d="M533 -20q-81 1 -152.5 23.5t-126.5 66.5t-86.5 109.5t-31.5 152.5v702h185v-683q0 -101 62.5 -164t188.5 -63q114 0 183.5 59.5t69.5 177.5v673h184v-1034h-147l-19 198q-19 -78 -64.5 -126t-109 -70.5t-136.5 -21.5zM312 1219l-35 110q34 31 72 53t95 22q49 0 92.5 -14
t85 -28t85.5 -14q45 0 78 16.5t62 39.5l32 -122q-26 -19 -67.5 -38.5t-104.5 -19.5q-54 0 -94 13t-77.5 26t-83.5 13q-49 0 -79 -16.5t-61 -40.5z" />
    <glyph glyph-name="Umacron" unicode="&#x16a;" horiz-adv-x="1401" 
d="M719 -20q-188 0 -304.5 62t-170 182t-53.5 295v927h192v-955q0 -175 87 -262t249 -87q109 0 185.5 38t117 115.5t40.5 195.5v955h186v-946q0 -167 -55 -283t-171.5 -176.5t-302.5 -60.5zM422 1647v130h597v-130h-597z" />
    <glyph glyph-name="umacron" unicode="&#x16b;" horiz-adv-x="1161" 
d="M533 -20q-81 1 -152.5 23.5t-126.5 66.5t-86.5 109.5t-31.5 152.5v702h185v-683q0 -101 62.5 -164t188.5 -63q114 0 183.5 59.5t69.5 177.5v673h184v-1034h-147l-19 198q-19 -78 -64.5 -126t-109 -70.5t-136.5 -21.5zM277 1235v130h597v-130h-597z" />
    <glyph glyph-name="Ubreve" unicode="&#x16c;" horiz-adv-x="1401" 
d="M719 -20q-188 0 -304.5 62t-170 182t-53.5 295v927h192v-955q0 -175 87 -262t249 -87q109 0 185.5 38t117 115.5t40.5 195.5v955h186v-946q0 -167 -55 -283t-171.5 -176.5t-302.5 -60.5zM720 1564q-74 0 -137 25t-106 73.5t-59 118.5h135q16 -48 59.5 -78.5t107.5 -30.5
q63 0 108.5 30.5t62.5 78.5h134q-16 -68 -58.5 -116.5t-106 -74.5t-140.5 -26z" />
    <glyph glyph-name="ubreve" unicode="&#x16d;" horiz-adv-x="1161" 
d="M533 -20q-81 1 -152.5 23.5t-126.5 66.5t-86.5 109.5t-31.5 152.5v702h185v-683q0 -101 62.5 -164t188.5 -63q114 0 183.5 59.5t69.5 177.5v673h184v-1034h-147l-19 198q-19 -78 -64.5 -126t-109 -70.5t-136.5 -21.5zM574 1152q-74 0 -137 25t-106 73.5t-59 118.5h135
q16 -48 59.5 -78.5t107.5 -30.5q63 0 108.5 30.5t62.5 78.5h134q-16 -68 -58.5 -116.5t-106 -74.5t-140.5 -26z" />
    <glyph glyph-name="Uring" unicode="&#x16e;" horiz-adv-x="1401" 
d="M719 -20q-188 0 -304.5 62t-170 182t-53.5 295v927h192v-955q0 -175 87 -262t249 -87q109 0 185.5 38t117 115.5t40.5 195.5v955h186v-946q0 -167 -55 -283t-171.5 -176.5t-302.5 -60.5zM722 1566q-86 0 -146 60.5t-60 149.5q0 82 61 140.5t145 58.5q58 0 105 -27.5
t74.5 -73.5t27.5 -102q0 -87 -60 -146.5t-147 -59.5zM720 1662q45 0 75.5 33t30.5 76q0 47 -30.5 76.5t-75.5 29.5q-43 0 -75.5 -29.5t-32.5 -76.5q0 -43 32.5 -76t75.5 -33z" />
    <glyph glyph-name="uring" unicode="&#x16f;" horiz-adv-x="1161" 
d="M533 -20q-81 1 -152.5 23.5t-126.5 66.5t-86.5 109.5t-31.5 152.5v702h185v-683q0 -101 62.5 -164t188.5 -63q114 0 183.5 59.5t69.5 177.5v673h184v-1034h-147l-19 198q-19 -78 -64.5 -126t-109 -70.5t-136.5 -21.5zM576 1154q-86 0 -146 60.5t-60 149.5q0 82 61 140.5
t145 58.5q58 0 105 -27.5t74.5 -73.5t27.5 -102q0 -87 -60 -146.5t-147 -59.5zM574 1250q45 0 75.5 33t30.5 76q0 47 -30.5 76.5t-75.5 29.5q-43 0 -75.5 -29.5t-32.5 -76.5q0 -43 32.5 -76t75.5 -33z" />
    <glyph glyph-name="Uhungarumlaut" unicode="&#x170;" horiz-adv-x="1401" 
d="M719 -20q-188 0 -304.5 62t-170 182t-53.5 295v927h192v-955q0 -175 87 -262t249 -87q109 0 185.5 38t117 115.5t40.5 195.5v955h186v-946q0 -167 -55 -283t-171.5 -176.5t-302.5 -60.5zM795 1567l236 291h198l-292 -291h-142zM516 1567l196 291h193l-247 -291h-142z" />
    <glyph glyph-name="uhungarumlaut" unicode="&#x171;" horiz-adv-x="1161" 
d="M533 -20q-81 1 -152.5 23.5t-126.5 66.5t-86.5 109.5t-31.5 152.5v702h185v-683q0 -101 62.5 -164t188.5 -63q114 0 183.5 59.5t69.5 177.5v673h184v-1034h-147l-19 198q-19 -78 -64.5 -126t-109 -70.5t-136.5 -21.5zM649 1155l236 291h198l-292 -291h-142zM370 1155
l196 291h193l-247 -291h-142z" />
    <glyph glyph-name="Uogonek" unicode="&#x172;" horiz-adv-x="1401" 
d="M746 -335q-98 0 -148 42.5t-50 116.5q0 59 42 107t162 85l135 -12q-101 -42 -146 -79t-45 -86q0 -35 22 -54t70 -19t85.5 12.5t58.5 24.5v-97q-25 -14 -76 -27.5t-110 -13.5zM719 -20q-188 0 -304.5 62t-170 182t-53.5 295v927h192v-955q0 -175 87 -262t249 -87
q109 0 185.5 38t117 115.5t40.5 195.5v955h186v-946q0 -167 -55 -283t-171.5 -176.5t-302.5 -60.5z" />
    <glyph glyph-name="uogonek" unicode="&#x173;" horiz-adv-x="1161" 
d="M533 -20q-81 1 -152.5 23.5t-126.5 66.5t-86.5 109.5t-31.5 152.5v702h185v-683q0 -101 62.5 -164t188.5 -63q114 0 183.5 59.5t69.5 177.5v673h184v-1034h-147l-19 198q-19 -78 -64.5 -126t-109 -70.5t-136.5 -21.5zM859 -333q-97 0 -147.5 42.5t-50.5 115.5
q0 60 42.5 107.5t162.5 85.5l134 -12q-101 -42 -145.5 -79t-44.5 -86q0 -36 21.5 -54.5t70.5 -18.5q48 0 85 12.5t58 24.5v-97q-24 -15 -75.5 -28t-110.5 -13z" />
    <glyph glyph-name="Wcircumflex" unicode="&#x174;" horiz-adv-x="1907" 
d="M463 0l-417 1446h187l320 -1151l326 1151h145l325 -1151l326 1151h186l-422 -1446h-171l-317 1121l-322 -1121h-166zM636 1567l251 225h132l246 -225h-174l-140 130l-151 -130h-164z" />
    <glyph glyph-name="wcircumflex" unicode="&#x175;" horiz-adv-x="1560" 
d="M372 0l-320 1034h172l236 -795h16l233 795h140l242 -793h17l226 793h174l-314 -1034h-182l-235 763l-225 -763h-180zM472 1155l251 225h132l246 -225h-174l-140 130l-151 -130h-164z" />
    <glyph glyph-name="Ycircumflex" unicode="&#x176;" horiz-adv-x="1214" 
d="M517 0v616l-493 830h202l384 -665l378 665h203l-490 -831v-615h-184zM309 1570l251 225h132l246 -225h-174l-140 130l-151 -130h-164z" />
    <glyph glyph-name="ycircumflex" unicode="&#x177;" horiz-adv-x="1070" 
d="M256 -330q-91 0 -125 13l-34 13v120l106 -2q57 -2 95 8t61 27t35.5 38t20.5 40l36 98l-404 1009h187l305 -798l303 798h181l-435 -1112q-41 -98 -90.5 -153t-110 -77t-131.5 -22zM228 1155l251 225h132l246 -225h-174l-140 130l-151 -130h-164z" />
    <glyph glyph-name="Ydieresis" unicode="&#x178;" horiz-adv-x="1214" 
d="M517 0v616l-493 830h202l384 -665l378 665h203l-490 -831v-615h-184zM728 1682l1 179h181l-1 -179h-181zM339 1682l1 179h181l-1 -179h-181z" />
    <glyph glyph-name="Zacute" unicode="&#x179;" horiz-adv-x="1274" 
d="M127 0v102l792 1183h-758v161h1017v-98l-799 -1185h795v-163h-1047zM596 1567l206 291h210l-273 -291h-143z" />
    <glyph glyph-name="zacute" unicode="&#x17a;" horiz-adv-x="961" 
d="M76 0v115l584 783h-559v136h779v-115l-583 -783h588v-136h-809zM408 1155l206 291h210l-273 -291h-143z" />
    <glyph glyph-name="Zdotaccent" unicode="&#x17b;" horiz-adv-x="1274" 
d="M127 0v102l792 1183h-758v161h1017v-98l-799 -1185h795v-163h-1047zM583 1679v179h187v-179h-187z" />
    <glyph glyph-name="zdotaccent" unicode="&#x17c;" horiz-adv-x="961" 
d="M76 0v115l584 783h-559v136h779v-115l-583 -783h588v-136h-809zM396 1267v179h187v-179h-187z" />
    <glyph glyph-name="Zcaron" unicode="&#x17d;" horiz-adv-x="1274" 
d="M127 0v102l792 1183h-758v161h1017v-98l-799 -1185h795v-163h-1047zM612 1567l-252 225h166l151 -135l140 135h174l-246 -225h-133z" />
    <glyph glyph-name="zcaron" unicode="&#x17e;" horiz-adv-x="961" 
d="M76 0v115l584 783h-559v136h779v-115l-583 -783h588v-136h-809zM424 1155l-252 225h166l151 -135l140 135h174l-246 -225h-133z" />
    <glyph glyph-name="uni018F" unicode="&#x18f;" horiz-adv-x="1466" 
d="M734 -20q-188 0 -328.5 85.5t-218 261t-77.5 445.5h1029q0 245 -104.5 380.5t-303.5 135.5q-99 0 -175.5 -30.5t-129 -80.5t-79.5 -107.5t-27 -111.5h-212q0 84 43.5 172.5t125 164.5t197 123.5t260.5 47.5q195 0 334.5 -87.5t214.5 -252.5t75 -398q0 -248 -77.5 -414
t-217.5 -250t-329 -84zM734 150q133 0 222 61.5t134.5 169t47.5 243.5h-803q0 -137 45.5 -244t134.5 -168.5t219 -61.5z" />
    <glyph glyph-name="florin" unicode="&#x192;" horiz-adv-x="912" 
d="M-137 -333l19 130l116 2q68 1 102 35t49 121l165 944h-166l23 135h167l28 160q22 123 99 187.5t197 64.5h194l-21 -131h-147q-53 0 -92.5 -39.5t-51.5 -102.5l-24 -139h256l-25 -135h-251l-170 -972q-21 -123 -96.5 -191.5t-201.5 -68.5h-169z" />
    <glyph glyph-name="Ohorn" unicode="&#x1a0;" horiz-adv-x="1571" 
d="M736 -20q-193 0 -334 87t-217.5 252.5t-76.5 400.5q0 237 77 403.5t218.5 254.5t332.5 88q142 0 255.5 -48t194.5 -140q40 1 68 9t46 29t28 60t13 102h148q-1 -101 -23.5 -168t-72 -102t-132.5 -40q48 -86 73.5 -198.5t25.5 -249.5q0 -235 -75.5 -400.5t-215.5 -252.5
t-333 -87zM736 141q134 0 228 61t143.5 189t49.5 327q0 202 -50 332t-144 192.5t-227 62.5q-132 0 -227 -63t-146 -193t-51 -331q0 -199 51 -327t146 -189t227 -61z" />
    <glyph glyph-name="ohorn" unicode="&#x1a1;" horiz-adv-x="1203" 
d="M567 -20q-143 0 -249.5 61.5t-165.5 180.5t-59 291q0 162 55 284t161 189.5t259 67.5q107 0 193.5 -35.5t147.5 -103.5q45 4 72 20.5t41 58.5t18 119h147q0 -96 -20.5 -162t-67 -101.5t-122.5 -43.5q61 -118 61 -293q0 -158 -54 -278t-158.5 -187.5t-258.5 -67.5z
M568 126q92 0 156 47t97.5 135t33.5 209q0 111 -29.5 199.5t-92.5 140.5t-165 52q-94 0 -159 -46.5t-98.5 -134.5t-33.5 -211q0 -109 29.5 -198t94 -141t167.5 -52z" />
    <glyph glyph-name="Uhorn" unicode="&#x1af;" horiz-adv-x="1620" 
d="M719 -20q-188 0 -304.5 62t-170 182t-53.5 295v927h192v-955q0 -175 87 -262t249 -87q109 0 185.5 38t117 115.5t40.5 195.5v955h186v-168q46 3 73 20t41 60t18 120h148q-1 -111 -28.5 -181.5t-88.5 -101.5t-163 -27v-668q0 -167 -55 -283t-171.5 -176.5t-302.5 -60.5z
" />
    <glyph glyph-name="uhorn" unicode="&#x1b0;" horiz-adv-x="1304" 
d="M533 -20q-81 1 -152.5 23.5t-126.5 66.5t-86.5 109.5t-31.5 152.5v702h185v-683q0 -101 62.5 -164t188.5 -63q114 0 183.5 59.5t69.5 177.5v673h184v-121q49 1 79 18t45 60t19 122h147q0 -112 -28.5 -183t-92 -101.5t-169.5 -24.5v-804h-147l-19 198q-19 -78 -64.5 -126
t-109 -70.5t-136.5 -21.5z" />
    <glyph glyph-name="uni01D4" unicode="&#x1d4;" horiz-adv-x="1161" 
d="M533 -20q-81 1 -152.5 23.5t-126.5 66.5t-86.5 109.5t-31.5 152.5v702h185v-683q0 -101 62.5 -164t188.5 -63q114 0 183.5 59.5t69.5 177.5v673h184v-1034h-147l-19 198q-19 -78 -64.5 -126t-109 -70.5t-136.5 -21.5zM510 1155l-252 225h166l151 -135l140 135h174
l-246 -225h-133z" />
    <glyph glyph-name="uni01EA" unicode="&#x1ea;" horiz-adv-x="1468" 
d="M770 -336q-98 0 -148 42.5t-50 115.5q0 60 42 107.5t162 85.5l135 -12q-101 -42 -146 -79t-45 -86q0 -36 22 -54.5t71 -18.5q47 0 84.5 12.5t58.5 24.5v-97q-25 -15 -76 -28t-110 -13zM736 -20q-193 0 -334 87t-217.5 252.5t-76.5 400.5q0 237 77 403.5t218.5 254.5
t332.5 88q192 0 332 -87.5t216 -254t76 -404.5q0 -235 -75.5 -400.5t-215.5 -252.5t-333 -87zM736 141q134 0 228 61t143.5 189t49.5 327q0 202 -50 332t-144 192.5t-227 62.5q-132 0 -227 -63t-146 -193t-51 -331q0 -199 51 -327t146 -189t227 -61z" />
    <glyph glyph-name="uni01EB" unicode="&#x1eb;" horiz-adv-x="1131" 
d="M601 -331q-98 0 -148 42.5t-50 115.5q0 60 42 108t162 85l135 -12q-101 -42 -146 -79t-45 -86q0 -36 22 -54.5t71 -18.5q47 0 84.5 12.5t58.5 24.5v-97q-25 -14 -76 -27.5t-110 -13.5zM567 -20q-143 0 -249.5 61.5t-165.5 180.5t-59 291q0 162 55 284t161 189.5t259 67.5
q143 0 248 -62.5t163.5 -183.5t58.5 -295q0 -158 -54 -278t-158.5 -187.5t-258.5 -67.5zM568 126q92 0 156 47t97.5 135t33.5 209q0 111 -29.5 199.5t-92.5 140.5t-165 52q-94 0 -159 -46.5t-98.5 -134.5t-33.5 -211q0 -109 29.5 -198t94 -141t167.5 -52z" />
    <glyph glyph-name="Aringacute" unicode="&#x1fa;" horiz-adv-x="1420" 
d="M840 1880l-58 -137q57 -21 93 -70t36 -113q0 -86 -58.5 -141.5t-143.5 -55.5t-143 57t-58 144q0 72 47 123.5t116 63.5l31 129h138zM707 1449q45 0 76 33.5t31 75.5q0 47 -31 77.5t-76 30.5q-42 0 -75 -30.5t-33 -77.5q0 -42 33 -75.5t75 -33.5zM83 0l523 1446h209
l523 -1446h-189l-142 396h-593l-143 -396h-188zM463 566h493l-246 699z" />
    <glyph glyph-name="aringacute" unicode="&#x1fb;" horiz-adv-x="1106" 
d="M692 1494l-58 -137q57 -21 93 -70t36 -113q0 -86 -58.5 -141.5t-143.5 -55.5t-143 57t-58 144q0 72 46.5 123.5t116.5 63.5l30 129h139zM559 1063q44 0 75.5 33.5t31.5 75.5q0 47 -31.5 77.5t-75.5 30.5q-43 0 -75.5 -30.5t-32.5 -77.5q0 -42 32.5 -75.5t75.5 -33.5z
M443 -20q-101 0 -177.5 35.5t-120 102.5t-43.5 162q0 172 120 256t385 90l184 5v81q0 95 -57 150.5t-176 55.5q-89 -1 -157 -42t-87 -134h-163q6 101 56.5 170.5t142.5 105.5t217 36q135 0 224.5 -38t134 -112t44.5 -182v-722h-158l-14 194q-59 -121 -151.5 -167.5
t-203.5 -46.5zM498 113q53 0 104.5 19t94 51.5t68.5 73t26 83.5v177l-153 -3q-119 -2 -198 -24t-119 -69t-40 -123q0 -87 61 -136t156 -49z" />
    <glyph glyph-name="AEacute" unicode="&#x1fc;" horiz-adv-x="1949" 
d="M0 0l800 1446h1005l-1 -160h-689v-477h617v-159h-617v-489h714v-161h-925v401h-493l-222 -401h-189zM484 566h420v746zM1204 1567l206 291h210l-273 -291h-143z" />
    <glyph glyph-name="aeacute" unicode="&#x1fd;" horiz-adv-x="1828" 
d="M443 -20q-101 0 -177.5 35.5t-120 102.5t-43.5 162q0 172 120 256.5t385 89.5l185 5v81q0 99 -64 152.5t-170 53.5q-88 -1 -156.5 -44t-87.5 -132h-163q5 90 56 160.5t143 111t217 40.5q130 0 221.5 -46t132.5 -129q56 84 145 129.5t206 45.5q146 0 246.5 -63
t153.5 -177.5t53 -271.5v-68h-741q0 -98 32.5 -177.5t98.5 -126.5t167 -47q99 0 170.5 46t91.5 133h174q-19 -105 -84 -177t-156.5 -108.5t-192.5 -36.5q-143 0 -253 63.5t-169 180.5q-23 -75 -84.5 -130t-147.5 -84.5t-188 -29.5zM498 113q89 0 153.5 41t100.5 100.5
t37 117.5l-1 145l-150 -3q-118 -2 -197.5 -24t-119.5 -69t-40 -123q0 -87 61 -136t156 -49zM985 599h562q0 89 -30.5 160.5t-91.5 113t-155 41.5q-97 0 -160.5 -46.5t-94.5 -119t-30 -149.5zM806 1155l206 291h210l-273 -291h-143z" />
    <glyph glyph-name="Oslashacute" unicode="&#x1fe;" horiz-adv-x="1501" 
d="M156 -27l-100 98l171 187q-52 88 -79 203.5t-27 255.5q0 238 76.5 405.5t217 255.5t333.5 88q135 0 244 -43.5t188 -126.5l162 175l99 -96l-175 -193q52 -89 79.5 -205t27.5 -257q0 -235 -76 -400.5t-216.5 -252.5t-333.5 -87q-135 0 -244 42.5t-187 123.5zM749 140
q189 0 286 123.5t105 381.5q4 103 -6 195t-34 174l-655 -734q101 -140 304 -140zM392 426l657 735q-50 75 -125 111t-176 36q-190 0 -290.5 -130t-107.5 -398q-3 -101 7.5 -189t34.5 -165zM666 1567l206 291h210l-273 -291h-143z" />
    <glyph glyph-name="oslashacute" unicode="&#x1ff;" horiz-adv-x="1172" 
d="M116 -11l-76 79l1010 974l74 -79zM587 -20q-143 0 -250 61.5t-166 180.5t-59 291q0 162 55 284t161.5 189.5t258.5 67.5q143 0 248.5 -62.5t163.5 -183.5t58 -295q0 -158 -53.5 -278t-158 -187.5t-258.5 -67.5zM587 126q93 0 157 47t97 135t33 209q0 111 -29 199.5
t-92.5 140.5t-165.5 52q-94 0 -159 -46.5t-98.5 -134.5t-33.5 -211q0 -109 30 -198t94 -141t167 -52zM503 1155l206 291h210l-273 -291h-143z" />
    <glyph glyph-name="uni0200" unicode="&#x200;" horiz-adv-x="1420" 
d="M83 0l523 1446h209l523 -1446h-189l-142 396h-593l-143 -396h-188zM463 566h493l-246 699zM498 1567l-291 291h198l236 -291h-143zM777 1567l-246 291h193l196 -291h-143z" />
    <glyph glyph-name="uni0201" unicode="&#x201;" horiz-adv-x="1106" 
d="M443 -20q-101 0 -177.5 35.5t-120 102.5t-43.5 162q0 172 120 256t385 90l184 5v81q0 95 -57 150.5t-176 55.5q-89 -1 -157 -42t-87 -134h-163q6 101 56.5 170.5t142.5 105.5t217 36q135 0 224.5 -38t134 -112t44.5 -182v-722h-158l-14 194q-59 -121 -151.5 -167.5
t-203.5 -46.5zM498 113q53 0 104.5 19t94 51.5t68.5 73t26 83.5v177l-153 -3q-119 -2 -198 -24t-119 -69t-40 -123q0 -87 61 -136t156 -49zM355 1155l-291 291h198l236 -291h-143zM634 1155l-246 291h193l196 -291h-143z" />
    <glyph glyph-name="uni0202" unicode="&#x202;" horiz-adv-x="1420" 
d="M83 0l523 1446h209l523 -1446h-189l-142 396h-593l-143 -396h-188zM463 566h493l-246 699zM403 1620q15 71 58.5 118.5t106.5 72.5t136 25q78 0 141.5 -26t106.5 -74t57 -116h-133q-18 47 -63 77.5t-109 30.5q-63 0 -106.5 -30.5t-60.5 -77.5h-134z" />
    <glyph glyph-name="uni0203" unicode="&#x203;" horiz-adv-x="1106" 
d="M443 -20q-101 0 -177.5 35.5t-120 102.5t-43.5 162q0 172 120 256t385 90l184 5v81q0 95 -57 150.5t-176 55.5q-89 -1 -157 -42t-87 -134h-163q6 101 56.5 170.5t142.5 105.5t217 36q135 0 224.5 -38t134 -112t44.5 -182v-722h-158l-14 194q-59 -121 -151.5 -167.5
t-203.5 -46.5zM498 113q53 0 104.5 19t94 51.5t68.5 73t26 83.5v177l-153 -3q-119 -2 -198 -24t-119 -69t-40 -123q0 -87 61 -136t156 -49zM261 1208q15 71 58.5 118.5t106.5 72.5t136 25q78 0 141.5 -26t106.5 -74t57 -116h-133q-18 47 -63 77.5t-109 30.5
q-63 0 -106.5 -30.5t-60.5 -77.5h-134z" />
    <glyph glyph-name="uni0204" unicode="&#x204;" horiz-adv-x="1241" 
d="M191 0v1446h912l-1 -163h-725v-472h653v-162h-654v-482l746 -2v-165h-931zM437 1567l-291 291h198l236 -291h-143zM716 1567l-246 291h193l196 -291h-143z" />
    <glyph glyph-name="uni0205" unicode="&#x205;" horiz-adv-x="1133" 
d="M590 -20q-144 0 -254 63t-172 181t-62 283q0 163 56 286t162.5 192t256.5 69q146 0 247 -63t153.5 -177.5t52.5 -271.5v-68h-741q0 -98 32.5 -177.5t98.5 -126.5t167 -47q99 0 170.5 46t91.5 133h174q-18 -105 -83.5 -177t-157 -108.5t-192.5 -36.5zM290 599h562
q0 89 -30 160.5t-91.5 113t-154.5 41.5q-97 0 -161 -46.5t-95 -119t-30 -149.5zM365 1155l-291 291h198l236 -291h-143zM644 1155l-246 291h193l196 -291h-143z" />
    <glyph glyph-name="uni0206" unicode="&#x206;" horiz-adv-x="1241" 
d="M191 0v1446h912l-1 -163h-725v-472h653v-162h-654v-482l746 -2v-165h-931zM343 1620q15 71 58.5 118.5t106.5 72.5t136 25q78 0 141.5 -26t106.5 -74t57 -116h-133q-18 47 -63 77.5t-109 30.5q-63 0 -106.5 -30.5t-60.5 -77.5h-134z" />
    <glyph glyph-name="uni0207" unicode="&#x207;" horiz-adv-x="1133" 
d="M590 -20q-144 0 -254 63t-172 181t-62 283q0 163 56 286t162.5 192t256.5 69q146 0 247 -63t153.5 -177.5t52.5 -271.5v-68h-741q0 -98 32.5 -177.5t98.5 -126.5t167 -47q99 0 170.5 46t91.5 133h174q-18 -105 -83.5 -177t-157 -108.5t-192.5 -36.5zM290 599h562
q0 89 -30 160.5t-91.5 113t-154.5 41.5q-97 0 -161 -46.5t-95 -119t-30 -149.5zM270 1208q15 71 58.5 118.5t106.5 72.5t136 25q78 0 141.5 -26t106.5 -74t57 -116h-133q-18 47 -63 77.5t-109 30.5q-63 0 -106.5 -30.5t-60.5 -77.5h-134z" />
    <glyph glyph-name="uni0208" unicode="&#x208;" horiz-adv-x="566" 
d="M191 0v1446h185v-1446h-185zM72 1567l-291 291h198l236 -291h-143zM351 1567l-246 291h193l196 -291h-143z" />
    <glyph glyph-name="uni0209" unicode="&#x209;" horiz-adv-x="484" 
d="M153 0v1034h178v-1034h-178zM31 1155l-291 291h198l236 -291h-143zM310 1155l-246 291h193l196 -291h-143z" />
    <glyph glyph-name="uni020A" unicode="&#x20a;" horiz-adv-x="566" 
d="M191 0v1446h185v-1446h-185zM-23 1620q15 71 58.5 118.5t106.5 72.5t136 25q78 0 141.5 -26t106.5 -74t57 -116h-133q-18 47 -63 77.5t-109 30.5q-63 0 -106.5 -30.5t-60.5 -77.5h-134z" />
    <glyph glyph-name="uni020B" unicode="&#x20b;" horiz-adv-x="565" 
d="M192 0v1034h178v-1034h-178zM-25 1208q15 71 58.5 118.5t106.5 72.5t136 25q78 0 141.5 -26t106.5 -74t57 -116h-133q-18 47 -63 77.5t-109 30.5q-63 0 -106.5 -30.5t-60.5 -77.5h-134z" />
    <glyph glyph-name="uni020C" unicode="&#x20c;" horiz-adv-x="1468" 
d="M736 -20q-193 0 -334 87t-217.5 252.5t-76.5 400.5q0 237 77 403.5t218.5 254.5t332.5 88q192 0 332 -87.5t216 -254t76 -404.5q0 -235 -75.5 -400.5t-215.5 -252.5t-333 -87zM736 141q134 0 228 61t143.5 189t49.5 327q0 202 -50 332t-144 192.5t-227 62.5
q-132 0 -227 -63t-146 -193t-51 -331q0 -199 51 -327t146 -189t227 -61zM524 1567l-291 291h198l236 -291h-143zM803 1567l-246 291h193l196 -291h-143z" />
    <glyph glyph-name="uni020D" unicode="&#x20d;" horiz-adv-x="1131" 
d="M567 -20q-143 0 -249.5 61.5t-165.5 180.5t-59 291q0 162 55 284t161 189.5t259 67.5q143 0 248 -62.5t163.5 -183.5t58.5 -295q0 -158 -54 -278t-158.5 -187.5t-258.5 -67.5zM568 126q92 0 156 47t97.5 135t33.5 209q0 111 -29.5 199.5t-92.5 140.5t-165 52
q-94 0 -159 -46.5t-98.5 -134.5t-33.5 -211q0 -109 29.5 -198t94 -141t167.5 -52zM354 1155l-291 291h198l236 -291h-143zM633 1155l-246 291h193l196 -291h-143z" />
    <glyph glyph-name="uni020E" unicode="&#x20e;" horiz-adv-x="1468" 
d="M736 -20q-193 0 -334 87t-217.5 252.5t-76.5 400.5q0 237 77 403.5t218.5 254.5t332.5 88q192 0 332 -87.5t216 -254t76 -404.5q0 -235 -75.5 -400.5t-215.5 -252.5t-333 -87zM736 141q134 0 228 61t143.5 189t49.5 327q0 202 -50 332t-144 192.5t-227 62.5
q-132 0 -227 -63t-146 -193t-51 -331q0 -199 51 -327t146 -189t227 -61zM430 1620q15 71 58.5 118.5t106.5 72.5t136 25q78 0 141.5 -26t106.5 -74t57 -116h-133q-18 47 -63 77.5t-109 30.5q-63 0 -106.5 -30.5t-60.5 -77.5h-134z" />
    <glyph glyph-name="uni020F" unicode="&#x20f;" horiz-adv-x="1131" 
d="M567 -20q-143 0 -249.5 61.5t-165.5 180.5t-59 291q0 162 55 284t161 189.5t259 67.5q143 0 248 -62.5t163.5 -183.5t58.5 -295q0 -158 -54 -278t-158.5 -187.5t-258.5 -67.5zM568 126q92 0 156 47t97.5 135t33.5 209q0 111 -29.5 199.5t-92.5 140.5t-165 52
q-94 0 -159 -46.5t-98.5 -134.5t-33.5 -211q0 -109 29.5 -198t94 -141t167.5 -52zM259 1208q15 71 58.5 118.5t106.5 72.5t136 25q78 0 141.5 -26t106.5 -74t57 -116h-133q-18 47 -63 77.5t-109 30.5q-63 0 -106.5 -30.5t-60.5 -77.5h-134z" />
    <glyph glyph-name="uni0210" unicode="&#x210;" horiz-adv-x="1353" 
d="M191 0v1446h560q156 0 261 -47.5t157 -136t52 -211.5q0 -118 -41.5 -196t-105.5 -125.5t-133 -73.5l284 -656h-196l-264 623h-389v-623h-185zM376 776h315q163 0 252 66.5t89 197.5q0 128 -79.5 191.5t-217.5 63.5h-359v-519zM446 1567l-291 291h198l236 -291h-143z
M725 1567l-246 291h193l196 -291h-143z" />
    <glyph glyph-name="uni0211" unicode="&#x211;" horiz-adv-x="782" 
d="M153 0v1034h176v-199q26 74 73 122.5t107.5 72.5t125.5 24q23 0 45 -3t34 -10v-179q-15 7 -38.5 9.5t-39.5 2.5q-62 4 -116 -7.5t-95 -39.5t-64.5 -73.5t-23.5 -110.5v-643h-184zM210 1155l-291 291h198l236 -291h-143zM489 1155l-246 291h193l196 -291h-143z" />
    <glyph glyph-name="uni0212" unicode="&#x212;" horiz-adv-x="1353" 
d="M191 0v1446h560q156 0 261 -47.5t157 -136t52 -211.5q0 -118 -41.5 -196t-105.5 -125.5t-133 -73.5l284 -656h-196l-264 623h-389v-623h-185zM376 776h315q163 0 252 66.5t89 197.5q0 128 -79.5 191.5t-217.5 63.5h-359v-519zM352 1620q15 71 58.5 118.5t106.5 72.5
t136 25q78 0 141.5 -26t106.5 -74t57 -116h-133q-18 47 -63 77.5t-109 30.5q-63 0 -106.5 -30.5t-60.5 -77.5h-134z" />
    <glyph glyph-name="uni0213" unicode="&#x213;" horiz-adv-x="782" 
d="M153 0v1034h176v-199q26 74 73 122.5t107.5 72.5t125.5 24q23 0 45 -3t34 -10v-179q-15 7 -38.5 9.5t-39.5 2.5q-62 4 -116 -7.5t-95 -39.5t-64.5 -73.5t-23.5 -110.5v-643h-184zM115 1194q15 71 58.5 118.5t106.5 72.5t136 25q78 0 141.5 -26t106.5 -74t57 -116h-133
q-18 47 -63 77.5t-109 30.5q-63 0 -106.5 -30.5t-60.5 -77.5h-134z" />
    <glyph glyph-name="uni0214" unicode="&#x214;" horiz-adv-x="1401" 
d="M719 -20q-188 0 -304.5 62t-170 182t-53.5 295v927h192v-955q0 -175 87 -262t249 -87q109 0 185.5 38t117 115.5t40.5 195.5v955h186v-946q0 -167 -55 -283t-171.5 -176.5t-302.5 -60.5zM509 1567l-291 291h198l236 -291h-143zM788 1567l-246 291h193l196 -291h-143z" />
    <glyph glyph-name="uni0215" unicode="&#x215;" horiz-adv-x="1161" 
d="M533 -20q-81 1 -152.5 23.5t-126.5 66.5t-86.5 109.5t-31.5 152.5v702h185v-683q0 -101 62.5 -164t188.5 -63q114 0 183.5 59.5t69.5 177.5v673h184v-1034h-147l-19 198q-19 -78 -64.5 -126t-109 -70.5t-136.5 -21.5zM363 1155l-291 291h198l236 -291h-143zM642 1155
l-246 291h193l196 -291h-143z" />
    <glyph glyph-name="uni0216" unicode="&#x216;" horiz-adv-x="1401" 
d="M719 -20q-188 0 -304.5 62t-170 182t-53.5 295v927h192v-955q0 -175 87 -262t249 -87q109 0 185.5 38t117 115.5t40.5 195.5v955h186v-946q0 -167 -55 -283t-171.5 -176.5t-302.5 -60.5zM414 1620q15 71 58.5 118.5t106.5 72.5t136 25q78 0 141.5 -26t106.5 -74t57 -116
h-133q-18 47 -63 77.5t-109 30.5q-63 0 -106.5 -30.5t-60.5 -77.5h-134z" />
    <glyph glyph-name="uni0217" unicode="&#x217;" horiz-adv-x="1161" 
d="M533 -20q-81 1 -152.5 23.5t-126.5 66.5t-86.5 109.5t-31.5 152.5v702h185v-683q0 -101 62.5 -164t188.5 -63q114 0 183.5 59.5t69.5 177.5v673h184v-1034h-147l-19 198q-19 -78 -64.5 -126t-109 -70.5t-136.5 -21.5zM268 1208q15 71 58.5 118.5t106.5 72.5t136 25
q78 0 141.5 -26t106.5 -74t57 -116h-133q-18 47 -63 77.5t-109 30.5q-63 0 -106.5 -30.5t-60.5 -77.5h-134z" />
    <glyph glyph-name="uni0218" unicode="&#x218;" horiz-adv-x="1340" 
d="M681 -20q-106 0 -201 25.5t-172.5 76.5t-128 126.5t-63.5 175.5h194q18 -82 71.5 -138t133 -84t174.5 -28q92 0 169.5 29t124.5 84.5t47 133.5q0 86 -56 138.5t-173 84.5l-298 77q-101 25 -178.5 70.5t-121.5 120t-44 185.5q0 123 68 214.5t184.5 142t263.5 50.5
q170 0 286.5 -59t176.5 -155t60 -205h-190q-9 99 -58 156.5t-122 83t-159 25.5q-155 0 -234.5 -70.5t-79.5 -167.5q0 -89 57 -140t168 -79l290 -75q129 -30 205.5 -87t110 -132.5t33.5 -163.5q0 -120 -67 -214t-187.5 -147.5t-283.5 -53.5zM547 -380l82 124l-63 5v154h187
v-129l-130 -154h-76z" />
    <glyph glyph-name="uni0219" unicode="&#x219;" horiz-adv-x="1012" 
d="M525 -20q-108 0 -200.5 33.5t-153.5 105t-76 182.5h168q13 -61 50 -101.5t91.5 -61t119.5 -20.5q105 0 169 39t64 120q0 57 -33.5 91.5t-104.5 50.5l-214 53q-125 30 -199.5 94t-75.5 179q0 91 44 160t131.5 109t218.5 40q169 0 272 -75.5t108 -221.5h-164
q-10 74 -66 117.5t-152 43.5q-98 0 -160.5 -39.5t-62.5 -122.5q0 -55 44.5 -86.5t129.5 -52.5l208 -52q71 -19 118 -50t74 -69t38.5 -79.5t11.5 -79.5q0 -95 -47 -163.5t-136 -106t-215 -37.5zM398 -380l82 124l-63 5v154h187v-129l-130 -154h-76z" />
    <glyph glyph-name="uni021A" unicode="&#x21a;" horiz-adv-x="1187" 
d="M513 0v1276h-467v170h1094v-170h-441v-1276h-186zM503 -377l82 124l-63 5v154h187v-129l-130 -154h-76z" />
    <glyph glyph-name="uni021B" unicode="&#x21b;" horiz-adv-x="778" 
d="M532 -5q-107 0 -166 29t-82.5 86t-23.5 140v649h-168v135h173l45 301h136v-300h233v-136h-233v-643q0 -55 11.5 -80.5t38.5 -32.5t76 -7h113v-124q-19 -7 -57.5 -12t-95.5 -5zM354 -374l82 124l-63 5v154h187v-129l-130 -154h-76z" />
    <glyph glyph-name="uni0237" unicode="&#x237;" horiz-adv-x="521" 
d="M84 -332q-84 0 -107 8t-23 16v123l103 5q69 5 98 37t29 103v1074h184v-1080q0 -145 -63.5 -215.5t-220.5 -70.5z" />
    <glyph glyph-name="uni0259" unicode="&#x259;" horiz-adv-x="1133" 
d="M556 -20q-145 0 -246 63t-154 177.5t-53 271.5v68h741q0 98 -32.5 178t-98.5 126.5t-167 46.5q-99 0 -170.5 -46t-91.5 -133h-174q19 106 84 177.5t157 108t192 36.5q145 0 255 -63t171.5 -181t61.5 -283q0 -163 -56 -286t-162 -192t-257 -69zM558 120q97 0 160.5 46.5
t94.5 119t30 149.5h-562q0 -89 30.5 -160t91.5 -113t155 -42z" />
    <glyph glyph-name="uni02BB" unicode="&#x2bb;" horiz-adv-x="438" 
d="M100 988v193q0 73 33.5 134t86.5 93t111 20v-70l-17 -1q-38 -3 -70 -43t-32 -90v-12l119 -7v-217h-231z" />
    <glyph glyph-name="uni02BC" unicode="&#x2bc;" horiz-adv-x="438" 
d="M100 991v70l16 1q39 3 71 43t32 89v13l-119 6v218h231v-193q0 -73 -34 -134t-86.5 -93t-110.5 -20z" />
    <glyph glyph-name="circumflex" unicode="&#x2c6;" horiz-adv-x="649" 
d="M10 1155l251 225h132l246 -225h-174l-140 130l-151 -130h-164z" />
    <glyph glyph-name="caron" unicode="&#x2c7;" horiz-adv-x="659" 
d="M260 1155l-252 225h166l151 -135l140 135h174l-246 -225h-133z" />
    <glyph glyph-name="breve" unicode="&#x2d8;" horiz-adv-x="646" 
d="M322 1155q-74 0 -137 25t-106 73.5t-59 118.5h135q16 -48 59.5 -78.5t107.5 -30.5q63 0 108.5 30.5t62.5 78.5h134q-16 -68 -58.5 -116.5t-106 -74.5t-140.5 -26z" />
    <glyph glyph-name="dotaccent" unicode="&#x2d9;" horiz-adv-x="207" 
d="M10 1267v179h187v-179h-187z" />
    <glyph glyph-name="ring" unicode="&#x2da;" horiz-adv-x="470" 
d="M232 1146q-86 0 -146 60.5t-60 149.5q0 82 61 140.5t145 58.5q58 0 105 -27.5t74.5 -73.5t27.5 -102q0 -87 -60 -146.5t-147 -59.5zM230 1242q45 0 75.5 33t30.5 76q0 47 -30.5 76.5t-75.5 29.5q-43 0 -75.5 -29.5t-32.5 -76.5q0 -43 32.5 -76t75.5 -33z" />
    <glyph glyph-name="ogonek" unicode="&#x2db;" horiz-adv-x="443" 
d="M224 -332q-97 0 -147.5 42.5t-50.5 115.5q0 60 42.5 107.5t162.5 85.5l134 -12q-101 -42 -145.5 -79t-44.5 -86q0 -36 21.5 -54.5t70.5 -18.5q48 0 85 12.5t58 24.5v-97q-24 -15 -75.5 -28t-110.5 -13z" />
    <glyph glyph-name="tilde" unicode="&#x2dc;" horiz-adv-x="688" 
d="M76 1219l-35 110q34 31 72 53t95 22q49 0 92.5 -14t85 -28t85.5 -14q45 0 78 16.5t62 39.5l32 -122q-26 -19 -67.5 -38.5t-104.5 -19.5q-54 0 -94 13t-77.5 26t-83.5 13q-49 0 -79 -16.5t-61 -40.5z" />
    <glyph glyph-name="hungarumlaut" unicode="&#x2dd;" horiz-adv-x="734" 
d="M290 1155l236 291h198l-292 -291h-142zM11 1155l196 291h193l-247 -291h-142z" />
    <glyph glyph-name="gravecomb" unicode="&#x300;" 
d="M284 1155l-274 291h211l206 -291h-143z" />
    <glyph glyph-name="acutecomb" unicode="&#x301;" 
d="M10 1155l206 291h210l-273 -291h-143z" />
    <glyph glyph-name="uni0302" unicode="&#x302;" 
d="M10 1155l251 225h132l246 -225h-174l-140 130l-151 -130h-164z" />
    <glyph glyph-name="tildecomb" unicode="&#x303;" 
d="M76 1219l-35 110q34 31 72 53t95 22q49 0 92.5 -14t85 -28t85.5 -14q45 0 78 16.5t62 39.5l32 -122q-26 -19 -67.5 -38.5t-104.5 -19.5q-54 0 -94 13t-77.5 26t-83.5 13q-49 0 -79 -16.5t-61 -40.5z" />
    <glyph glyph-name="uni0304" unicode="&#x304;" 
d="M26 1235v130h597v-130h-597z" />
    <glyph glyph-name="uni0306" unicode="&#x306;" 
d="M322 1155q-74 0 -137 25t-106 73.5t-59 118.5h135q16 -48 59.5 -78.5t107.5 -30.5q63 0 108.5 30.5t62.5 78.5h134q-16 -68 -58.5 -116.5t-106 -74.5t-140.5 -26z" />
    <glyph glyph-name="uni0307" unicode="&#x307;" 
d="M10 1267v179h187v-179h-187z" />
    <glyph glyph-name="uni0308" unicode="&#x308;" 
d="M399 1267l1 179h181l-1 -179h-181zM10 1267l1 179h181l-1 -179h-181z" />
    <glyph glyph-name="hookabovecomb" unicode="&#x309;" 
d="M664 1169l-54 84q43 27 60.5 63.5t-3.5 70.5q-20 33 -62.5 32t-82.5 -28l-55 84q85 55 165.5 44.5t121.5 -74.5q50 -76 24.5 -149t-114.5 -127z" />
    <glyph glyph-name="uni030A" unicode="&#x30a;" 
d="M232 1146q-86 0 -146 60.5t-60 149.5q0 82 61 140.5t145 58.5q58 0 105 -27.5t74.5 -73.5t27.5 -102q0 -87 -60 -146.5t-147 -59.5zM230 1242q45 0 75.5 33t30.5 76q0 47 -30.5 76.5t-75.5 29.5q-43 0 -75.5 -29.5t-32.5 -76.5q0 -43 32.5 -76t75.5 -33z" />
    <glyph glyph-name="uni030B" unicode="&#x30b;" 
d="M290 1155l236 291h198l-292 -291h-142zM11 1155l196 291h193l-247 -291h-142z" />
    <glyph glyph-name="uni030C" unicode="&#x30c;" 
d="M260 1155l-252 225h166l151 -135l140 135h174l-246 -225h-133z" />
    <glyph glyph-name="uni030F" unicode="&#x30f;" 
d="M301 1155l-291 291h198l236 -291h-143zM580 1155l-246 291h193l196 -291h-143z" />
    <glyph glyph-name="uni0311" unicode="&#x311;" 
d="M9 1208q15 71 58.5 118.5t106.5 72.5t136 25q78 0 141.5 -26t106.5 -74t57 -116h-133q-18 47 -63 77.5t-109 30.5q-63 0 -106.5 -30.5t-60.5 -77.5h-134z" />
    <glyph glyph-name="uni0312" unicode="&#x312;" 
d="M122 1155v173l106 163h85l-76 -150l63 -5v-181h-178z" />
    <glyph glyph-name="uni031B" unicode="&#x31b;" 
d="M0 946v115q46 -1 78 4t52 24t31 57.5t14 105.5h148q-1 -119 -32.5 -191t-102 -100t-188.5 -15z" />
    <glyph glyph-name="dotbelowcomb" unicode="&#x323;" 
d="M10 -359v179h187v-179h-187z" />
    <glyph glyph-name="uni0326" unicode="&#x326;" 
d="M0 -380l82 124l-63 5v154h187v-129l-130 -154h-76z" />
    <glyph glyph-name="uni0327" unicode="&#x327;" 
d="M213 -412q-54 0 -101.5 12t-88.5 38l31 78q26 -19 59.5 -33t77.5 -14q55 0 81.5 19t26.5 54q0 43 -37.5 64.5t-122.5 23.5q-10 0 -12.5 3t0.5 10l73 167h97l-47 -121q68 -3 107.5 -25.5t55.5 -55t16 -65.5q0 -51 -29.5 -85t-79 -52t-107.5 -18z" />
    <glyph glyph-name="uni0328" unicode="&#x328;" 
d="M224 -332q-97 0 -147.5 42.5t-50.5 115.5q0 60 42.5 107.5t162.5 85.5l134 -12q-101 -42 -145.5 -79t-44.5 -86q0 -36 21.5 -54.5t70.5 -18.5q48 0 85 12.5t58 24.5v-97q-24 -15 -75.5 -28t-110.5 -13z" />
    <glyph glyph-name="pi" unicode="&#x3c0;" horiz-adv-x="1318" 
d="M140 0q22 83 42 186t35.5 219t24.5 236.5t9 237.5q0 20 -16 20h-182v135h1205v-135h-226v-899h-179l-1 899h-425q0 -124 -9.5 -252.5t-25.5 -249.5t-37.5 -223.5t-45.5 -173.5h-169z" />
    <glyph glyph-name="uni1E0C" unicode="&#x1e0c;" horiz-adv-x="1387" 
d="M191 0v1446q7 0 42.5 -0.5t86.5 0t106 0t101 -1.5q266 -4 431.5 -86.5t243 -239.5t77.5 -386q0 -240 -83.5 -403t-254 -246t-433.5 -83h-317zM381 159h127q179 0 308 55.5t198.5 180.5t69.5 334t-67.5 331t-194.5 174.5t-306 52.5h-135v-1128zM618 -359v179h187v-179
h-187z" />
    <glyph glyph-name="uni1E0D" unicode="&#x1e0d;" horiz-adv-x="1193" 
d="M530 -20q-202 0 -319.5 138t-117.5 403q0 161 47 281t141 186t234 66q75 0 132 -19t99 -48t68.5 -60t39.5 -57v616h187v-1486h-142l-20 212q-10 -30 -32 -69.5t-61.5 -77t-102.5 -61.5t-153 -24zM563 122q156 0 223.5 95.5t67.5 312.5q-1 121 -30 206t-91.5 129.5
t-166.5 44.5q-127 0 -207 -91t-80 -289q0 -194 72 -301t212 -107zM451 -359v179h187v-179h-187z" />
    <glyph glyph-name="uni1E24" unicode="&#x1e24;" horiz-adv-x="1532" 
d="M191 0v1446h185v-616h780v616h185v-1446h-185v667h-780v-667h-185zM688 -359v179h187v-179h-187z" />
    <glyph glyph-name="uni1E25" unicode="&#x1e25;" horiz-adv-x="1153" 
d="M153 0v1486h180v-604q26 43 70 80.5t107 61t146 23.5q101 0 183 -37.5t130 -106.5t48 -164v-739h-185v702q0 93 -63.5 143.5t-165.5 50.5q-69 0 -130 -22.5t-98.5 -68t-37.5 -115.5v-690h-184zM506 -359v179h187v-179h-187z" />
    <glyph glyph-name="uni1E44" unicode="&#x1e44;" horiz-adv-x="1508" 
d="M191 0v1446h177l764 -1124v1124h185v-1446h-165l-776 1140v-1140h-185zM660 1679v179h187v-179h-187z" />
    <glyph glyph-name="uni1E45" unicode="&#x1e45;" horiz-adv-x="1154" 
d="M153 0v1034h179v-150q25 43 69.5 81t108 61t146.5 23q98 0 180.5 -39t132 -121.5t49.5 -212.5v-676h-185v658q0 121 -63.5 179.5t-164.5 58.5q-70 0 -131 -22.5t-99 -68t-38 -114.5v-691h-184zM504 1267v179h187v-179h-187z" />
    <glyph glyph-name="uni1E5A" unicode="&#x1e5a;" horiz-adv-x="1353" 
d="M191 0v1446h560q156 0 261 -47.5t157 -136t52 -211.5q0 -118 -41.5 -196t-105.5 -125.5t-133 -73.5l284 -656h-196l-264 623h-389v-623h-185zM376 776h315q163 0 252 66.5t89 197.5q0 128 -79.5 191.5t-217.5 63.5h-359v-519zM582 -359v179h187v-179h-187z" />
    <glyph glyph-name="uni1E5B" unicode="&#x1e5b;" horiz-adv-x="782" 
d="M153 0v1034h176v-199q26 74 73 122.5t107.5 72.5t125.5 24q23 0 45 -3t34 -10v-179q-15 7 -38.5 9.5t-39.5 2.5q-62 4 -116 -7.5t-95 -39.5t-64.5 -73.5t-23.5 -110.5v-643h-184zM150 -359v179h187v-179h-187z" />
    <glyph glyph-name="uni1E62" unicode="&#x1e62;" horiz-adv-x="1340" 
d="M681 -20q-106 0 -201 25.5t-172.5 76.5t-128 126.5t-63.5 175.5h194q18 -82 71.5 -138t133 -84t174.5 -28q92 0 169.5 29t124.5 84.5t47 133.5q0 86 -56 138.5t-173 84.5l-298 77q-101 25 -178.5 70.5t-121.5 120t-44 185.5q0 123 68 214.5t184.5 142t263.5 50.5
q170 0 286.5 -59t176.5 -155t60 -205h-190q-9 99 -58 156.5t-122 83t-159 25.5q-155 0 -234.5 -70.5t-79.5 -167.5q0 -89 57 -140t168 -79l290 -75q129 -30 205.5 -87t110 -132.5t33.5 -163.5q0 -120 -67 -214t-187.5 -147.5t-283.5 -53.5zM564 -359v179h187v-179h-187z" />
    <glyph glyph-name="uni1E63" unicode="&#x1e63;" horiz-adv-x="1012" 
d="M525 -20q-108 0 -200.5 33.5t-153.5 105t-76 182.5h168q13 -61 50 -101.5t91.5 -61t119.5 -20.5q105 0 169 39t64 120q0 57 -33.5 91.5t-104.5 50.5l-214 53q-125 30 -199.5 94t-75.5 179q0 91 44 160t131.5 109t218.5 40q169 0 272 -75.5t108 -221.5h-164
q-10 74 -66 117.5t-152 43.5q-98 0 -160.5 -39.5t-62.5 -122.5q0 -55 44.5 -86.5t129.5 -52.5l208 -52q71 -19 118 -50t74 -69t38.5 -79.5t11.5 -79.5q0 -95 -47 -163.5t-136 -106t-215 -37.5zM415 -359v179h187v-179h-187z" />
    <glyph glyph-name="uni1E6C" unicode="&#x1e6c;" horiz-adv-x="1187" 
d="M513 0v1276h-467v170h1094v-170h-441v-1276h-186zM521 -356v179h187v-179h-187z" />
    <glyph glyph-name="uni1E6D" unicode="&#x1e6d;" horiz-adv-x="778" 
d="M532 -5q-107 0 -166 29t-82.5 86t-23.5 140v649h-168v135h173l45 301h136v-300h233v-136h-233v-643q0 -55 11.5 -80.5t38.5 -32.5t76 -7h113v-124q-19 -7 -57.5 -12t-95.5 -5zM371 -353v179h187v-179h-187z" />
    <glyph glyph-name="Wgrave" unicode="&#x1e80;" horiz-adv-x="1907" 
d="M463 0l-417 1446h187l320 -1151l326 1151h145l325 -1151l326 1151h186l-422 -1446h-171l-317 1121l-322 -1121h-166zM885 1567l-274 291h211l206 -291h-143z" />
    <glyph glyph-name="wgrave" unicode="&#x1e81;" horiz-adv-x="1560" 
d="M372 0l-320 1034h172l236 -795h16l233 795h140l242 -793h17l226 793h174l-314 -1034h-182l-235 763l-225 -763h-180zM721 1155l-274 291h211l206 -291h-143z" />
    <glyph glyph-name="Wacute" unicode="&#x1e82;" horiz-adv-x="1907" 
d="M463 0l-417 1446h187l320 -1151l326 1151h145l325 -1151l326 1151h186l-422 -1446h-171l-317 1121l-322 -1121h-166zM871 1567l206 291h210l-273 -291h-143z" />
    <glyph glyph-name="wacute" unicode="&#x1e83;" horiz-adv-x="1560" 
d="M372 0l-320 1034h172l236 -795h16l233 795h140l242 -793h17l226 793h174l-314 -1034h-182l-235 763l-225 -763h-180zM707 1155l206 291h210l-273 -291h-143z" />
    <glyph glyph-name="Wdieresis" unicode="&#x1e84;" horiz-adv-x="1907" 
d="M463 0l-417 1446h187l320 -1151l326 1151h145l325 -1151l326 1151h186l-422 -1446h-171l-317 1121l-322 -1121h-166zM1055 1679l1 179h181l-1 -179h-181zM666 1679l1 179h181l-1 -179h-181z" />
    <glyph glyph-name="wdieresis" unicode="&#x1e85;" horiz-adv-x="1560" 
d="M372 0l-320 1034h172l236 -795h16l233 795h140l242 -793h17l226 793h174l-314 -1034h-182l-235 763l-225 -763h-180zM891 1267l1 179h181l-1 -179h-181zM502 1267l1 179h181l-1 -179h-181z" />
    <glyph glyph-name="uni1E92" unicode="&#x1e92;" horiz-adv-x="1274" 
d="M127 0v102l792 1183h-758v161h1017v-98l-799 -1185h795v-163h-1047zM577 -359v179h187v-179h-187z" />
    <glyph glyph-name="uni1E93" unicode="&#x1e93;" horiz-adv-x="961" 
d="M76 0v115l584 783h-559v136h779v-115l-583 -783h588v-136h-809zM396 -359v179h187v-179h-187z" />
    <glyph glyph-name="uni1EA0" unicode="&#x1ea0;" horiz-adv-x="1420" 
d="M83 0l523 1446h209l523 -1446h-189l-142 396h-593l-143 -396h-188zM463 566h493l-246 699zM617 -359v179h187v-179h-187z" />
    <glyph glyph-name="uni1EA1" unicode="&#x1ea1;" horiz-adv-x="1106" 
d="M443 -20q-101 0 -177.5 35.5t-120 102.5t-43.5 162q0 172 120 256t385 90l184 5v81q0 95 -57 150.5t-176 55.5q-89 -1 -157 -42t-87 -134h-163q6 101 56.5 170.5t142.5 105.5t217 36q135 0 224.5 -38t134 -112t44.5 -182v-722h-158l-14 194q-59 -121 -151.5 -167.5
t-203.5 -46.5zM498 113q53 0 104.5 19t94 51.5t68.5 73t26 83.5v177l-153 -3q-119 -2 -198 -24t-119 -69t-40 -123q0 -87 61 -136t156 -49zM471 -359v179h187v-179h-187z" />
    <glyph glyph-name="uni1EA2" unicode="&#x1ea2;" horiz-adv-x="1420" 
d="M83 0l523 1446h209l523 -1446h-189l-142 396h-593l-143 -396h-188zM463 566h493l-246 699zM770 1564l-54 84q43 27 60.5 63.5t-3.5 70.5q-20 33 -62.5 32t-82.5 -28l-55 84q85 55 165.5 44.5t121.5 -74.5q50 -76 24.5 -149t-114.5 -127z" />
    <glyph glyph-name="uni1EA3" unicode="&#x1ea3;" horiz-adv-x="1106" 
d="M443 -20q-101 0 -177.5 35.5t-120 102.5t-43.5 162q0 172 120 256t385 90l184 5v81q0 95 -57 150.5t-176 55.5q-89 -1 -157 -42t-87 -134h-163q6 101 56.5 170.5t142.5 105.5t217 36q135 0 224.5 -38t134 -112t44.5 -182v-722h-158l-14 194q-59 -121 -151.5 -167.5
t-203.5 -46.5zM498 113q53 0 104.5 19t94 51.5t68.5 73t26 83.5v177l-153 -3q-119 -2 -198 -24t-119 -69t-40 -123q0 -87 61 -136t156 -49zM627 1152l-54 84q43 27 60.5 63.5t-3.5 70.5q-20 33 -62.5 32t-82.5 -28l-55 84q85 55 165.5 44.5t121.5 -74.5q50 -76 24.5 -149
t-114.5 -127z" />
    <glyph glyph-name="uni1EA4" unicode="&#x1ea4;" horiz-adv-x="1420" 
d="M83 0l523 1446h209l523 -1446h-189l-142 396h-593l-143 -396h-188zM463 566h493l-246 699zM395 1567l251 225h132l246 -225h-174l-140 130l-151 -130h-164zM894 1788l146 242h173l-201 -242h-118z" />
    <glyph glyph-name="uni1EA5" unicode="&#x1ea5;" horiz-adv-x="1106" 
d="M443 -20q-101 0 -177.5 35.5t-120 102.5t-43.5 162q0 172 120 256t385 90l184 5v81q0 95 -57 150.5t-176 55.5q-89 -1 -157 -42t-87 -134h-163q6 101 56.5 170.5t142.5 105.5t217 36q135 0 224.5 -38t134 -112t44.5 -182v-722h-158l-14 194q-59 -121 -151.5 -167.5
t-203.5 -46.5zM498 113q53 0 104.5 19t94 51.5t68.5 73t26 83.5v177l-153 -3q-119 -2 -198 -24t-119 -69t-40 -123q0 -87 61 -136t156 -49zM252 1155l251 225h132l246 -225h-174l-140 130l-151 -130h-164zM751 1376l146 242h173l-201 -242h-118z" />
    <glyph glyph-name="uni1EA6" unicode="&#x1ea6;" horiz-adv-x="1420" 
d="M83 0l523 1446h209l523 -1446h-189l-142 396h-593l-143 -396h-188zM463 566h493l-246 699zM395 1567l251 225h132l246 -225h-174l-140 130l-151 -130h-164zM992 1788l-211 243h173l159 -243h-121z" />
    <glyph glyph-name="uni1EA7" unicode="&#x1ea7;" horiz-adv-x="1106" 
d="M443 -20q-101 0 -177.5 35.5t-120 102.5t-43.5 162q0 172 120 256t385 90l184 5v81q0 95 -57 150.5t-176 55.5q-89 -1 -157 -42t-87 -134h-163q6 101 56.5 170.5t142.5 105.5t217 36q135 0 224.5 -38t134 -112t44.5 -182v-722h-158l-14 194q-59 -121 -151.5 -167.5
t-203.5 -46.5zM498 113q53 0 104.5 19t94 51.5t68.5 73t26 83.5v177l-153 -3q-119 -2 -198 -24t-119 -69t-40 -123q0 -87 61 -136t156 -49zM252 1155l251 225h132l246 -225h-174l-140 130l-151 -130h-164zM849 1376l-211 243h173l159 -243h-121z" />
    <glyph glyph-name="uni1EA8" unicode="&#x1ea8;" horiz-adv-x="1420" 
d="M83 0l523 1446h209l523 -1446h-189l-142 396h-593l-143 -396h-188zM463 566h493l-246 699zM399 1567l251 225h132l246 -225h-174l-140 130l-151 -130h-164zM947 1742l-55 84q43 27 60.5 63.5t-3.5 70.5q-20 32 -62 31.5t-83 -27.5l-54 84q85 55 165 44.5t122 -74.5
q49 -76 24 -149t-114 -127z" />
    <glyph glyph-name="uni1EA9" unicode="&#x1ea9;" horiz-adv-x="1106" 
d="M443 -20q-101 0 -177.5 35.5t-120 102.5t-43.5 162q0 172 120 256t385 90l184 5v81q0 95 -57 150.5t-176 55.5q-89 -1 -157 -42t-87 -134h-163q6 101 56.5 170.5t142.5 105.5t217 36q135 0 224.5 -38t134 -112t44.5 -182v-722h-158l-14 194q-59 -121 -151.5 -167.5
t-203.5 -46.5zM498 113q53 0 104.5 19t94 51.5t68.5 73t26 83.5v177l-153 -3q-119 -2 -198 -24t-119 -69t-40 -123q0 -87 61 -136t156 -49zM257 1155l251 225h132l246 -225h-174l-140 130l-151 -130h-164zM805 1330l-55 84q43 27 60.5 63.5t-3.5 70.5q-20 32 -62 31.5
t-83 -27.5l-54 84q85 55 165 44.5t122 -74.5q49 -76 24 -149t-114 -127z" />
    <glyph glyph-name="uni1EAA" unicode="&#x1eaa;" horiz-adv-x="1420" 
d="M83 0l523 1446h209l523 -1446h-189l-142 396h-593l-143 -396h-188zM463 566h493l-246 699zM396 1567l251 225h132l246 -225h-174l-140 130l-151 -130h-164zM445 1900l-35 110q33 30 71 52t95 22q50 0 93.5 -13.5t85 -27.5t85.5 -14q45 0 77.5 16.5t62.5 38.5l32 -121
q-26 -19 -67.5 -38.5t-105.5 -19.5q-53 0 -93 13t-77.5 25.5t-83.5 12.5q-49 0 -79 -16t-61 -40z" />
    <glyph glyph-name="uni1EAB" unicode="&#x1eab;" horiz-adv-x="1106" 
d="M443 -20q-101 0 -177.5 35.5t-120 102.5t-43.5 162q0 172 120 256t385 90l184 5v81q0 95 -57 150.5t-176 55.5q-89 -1 -157 -42t-87 -134h-163q6 101 56.5 170.5t142.5 105.5t217 36q135 0 224.5 -38t134 -112t44.5 -182v-722h-158l-14 194q-59 -121 -151.5 -167.5
t-203.5 -46.5zM498 113q53 0 104.5 19t94 51.5t68.5 73t26 83.5v177l-153 -3q-119 -2 -198 -24t-119 -69t-40 -123q0 -87 61 -136t156 -49zM254 1155l251 225h132l246 -225h-174l-140 130l-151 -130h-164zM303 1488l-35 110q33 30 71 52t95 22q50 0 93.5 -13.5t85 -27.5
t85.5 -14q45 0 77.5 16.5t62.5 38.5l32 -121q-26 -19 -67.5 -38.5t-105.5 -19.5q-53 0 -93 13t-77.5 25.5t-83.5 12.5q-49 0 -79 -16t-61 -40z" />
    <glyph glyph-name="uni1EAC" unicode="&#x1eac;" horiz-adv-x="1420" 
d="M83 0l523 1446h209l523 -1446h-189l-142 396h-593l-143 -396h-188zM463 566h493l-246 699zM617 -359v179h187v-179h-187zM395 1567l251 225h132l246 -225h-174l-140 130l-151 -130h-164z" />
    <glyph glyph-name="uni1EAD" unicode="&#x1ead;" horiz-adv-x="1106" 
d="M443 -20q-101 0 -177.5 35.5t-120 102.5t-43.5 162q0 172 120 256t385 90l184 5v81q0 95 -57 150.5t-176 55.5q-89 -1 -157 -42t-87 -134h-163q6 101 56.5 170.5t142.5 105.5t217 36q135 0 224.5 -38t134 -112t44.5 -182v-722h-158l-14 194q-59 -121 -151.5 -167.5
t-203.5 -46.5zM498 113q53 0 104.5 19t94 51.5t68.5 73t26 83.5v177l-153 -3q-119 -2 -198 -24t-119 -69t-40 -123q0 -87 61 -136t156 -49zM471 -359v179h187v-179h-187zM252 1155l251 225h132l246 -225h-174l-140 130l-151 -130h-164z" />
    <glyph glyph-name="uni1EAE" unicode="&#x1eae;" horiz-adv-x="1420" 
d="M83 0l523 1446h209l523 -1446h-189l-142 396h-593l-143 -396h-188zM463 566h493l-246 699zM713 1564q-74 0 -137 25t-106 73.5t-59 118.5h135q16 -48 59.5 -78.5t107.5 -30.5q63 0 108.5 30.5t62.5 78.5h134q-16 -68 -58.5 -116.5t-106 -74.5t-140.5 -26zM652 1810
l145 243h173l-200 -243h-118z" />
    <glyph glyph-name="uni1EAF" unicode="&#x1eaf;" horiz-adv-x="1106" 
d="M443 -20q-101 0 -177.5 35.5t-120 102.5t-43.5 162q0 172 120 256t385 90l184 5v81q0 95 -57 150.5t-176 55.5q-89 -1 -157 -42t-87 -134h-163q6 101 56.5 170.5t142.5 105.5t217 36q135 0 224.5 -38t134 -112t44.5 -182v-722h-158l-14 194q-59 -121 -151.5 -167.5
t-203.5 -46.5zM498 113q53 0 104.5 19t94 51.5t68.5 73t26 83.5v177l-153 -3q-119 -2 -198 -24t-119 -69t-40 -123q0 -87 61 -136t156 -49zM570 1152q-74 0 -137 25t-106 73.5t-59 118.5h135q16 -48 59.5 -78.5t107.5 -30.5q63 0 108.5 30.5t62.5 78.5h134
q-16 -68 -58.5 -116.5t-106 -74.5t-140.5 -26zM509 1398l145 243h173l-200 -243h-118z" />
    <glyph glyph-name="uni1EB0" unicode="&#x1eb0;" horiz-adv-x="1420" 
d="M83 0l523 1446h209l523 -1446h-189l-142 396h-593l-143 -396h-188zM463 566h493l-246 699zM713 1564q-74 0 -137 25t-106 73.5t-59 118.5h135q16 -48 59.5 -78.5t107.5 -30.5q63 0 108.5 30.5t62.5 78.5h134q-16 -68 -58.5 -116.5t-106 -74.5t-140.5 -26zM667 1809
l-211 242h173l158 -242h-120z" />
    <glyph glyph-name="uni1EB1" unicode="&#x1eb1;" horiz-adv-x="1106" 
d="M443 -20q-101 0 -177.5 35.5t-120 102.5t-43.5 162q0 172 120 256t385 90l184 5v81q0 95 -57 150.5t-176 55.5q-89 -1 -157 -42t-87 -134h-163q6 101 56.5 170.5t142.5 105.5t217 36q135 0 224.5 -38t134 -112t44.5 -182v-722h-158l-14 194q-59 -121 -151.5 -167.5
t-203.5 -46.5zM498 113q53 0 104.5 19t94 51.5t68.5 73t26 83.5v177l-153 -3q-119 -2 -198 -24t-119 -69t-40 -123q0 -87 61 -136t156 -49zM570 1152q-74 0 -137 25t-106 73.5t-59 118.5h135q16 -48 59.5 -78.5t107.5 -30.5q63 0 108.5 30.5t62.5 78.5h134
q-16 -68 -58.5 -116.5t-106 -74.5t-140.5 -26zM524 1397l-211 242h173l158 -242h-120z" />
    <glyph glyph-name="uni1EB2" unicode="&#x1eb2;" horiz-adv-x="1420" 
d="M83 0l523 1446h209l523 -1446h-189l-142 396h-593l-143 -396h-188zM463 566h493l-246 699zM713 1564q-74 0 -137 25t-106 73.5t-59 118.5h135q16 -48 59.5 -78.5t107.5 -30.5q63 0 108.5 30.5t62.5 78.5h134q-16 -68 -58.5 -116.5t-106 -74.5t-140.5 -26zM723 1773
l-55 84q44 28 61 64.5t-4 69.5q-20 33 -62 32.5t-83 -27.5l-54 84q71 45 142 45q95 0 145 -75q50 -76 24.5 -149.5t-114.5 -127.5z" />
    <glyph glyph-name="uni1EB3" unicode="&#x1eb3;" horiz-adv-x="1106" 
d="M443 -20q-101 0 -177.5 35.5t-120 102.5t-43.5 162q0 172 120 256t385 90l184 5v81q0 95 -57 150.5t-176 55.5q-89 -1 -157 -42t-87 -134h-163q6 101 56.5 170.5t142.5 105.5t217 36q135 0 224.5 -38t134 -112t44.5 -182v-722h-158l-14 194q-59 -121 -151.5 -167.5
t-203.5 -46.5zM498 113q53 0 104.5 19t94 51.5t68.5 73t26 83.5v177l-153 -3q-119 -2 -198 -24t-119 -69t-40 -123q0 -87 61 -136t156 -49zM570 1152q-74 0 -137 25t-106 73.5t-59 118.5h135q16 -48 59.5 -78.5t107.5 -30.5q63 0 108.5 30.5t62.5 78.5h134
q-16 -68 -58.5 -116.5t-106 -74.5t-140.5 -26zM580 1361l-55 84q44 28 61 64.5t-4 69.5q-20 33 -62 32.5t-83 -27.5l-54 84q71 45 142 45q95 0 145 -75q50 -76 24.5 -149.5t-114.5 -127.5z" />
    <glyph glyph-name="uni1EB4" unicode="&#x1eb4;" horiz-adv-x="1420" 
d="M83 0l523 1446h209l523 -1446h-189l-142 396h-593l-143 -396h-188zM463 566h493l-246 699zM713 1564q-74 0 -137 25t-106 73.5t-59 118.5h135q16 -48 59.5 -78.5t107.5 -30.5q63 0 108.5 30.5t62.5 78.5h134q-16 -68 -58.5 -116.5t-106 -74.5t-140.5 -26zM450 1897
l-35 110q33 30 71 52t95 22q50 0 93.5 -13.5t85 -27.5t85.5 -14q45 0 77.5 16.5t62.5 38.5l32 -121q-26 -19 -67.5 -38.5t-105.5 -19.5q-53 0 -93 13t-77.5 25.5t-83.5 12.5q-49 0 -79 -16t-61 -40z" />
    <glyph glyph-name="uni1EB5" unicode="&#x1eb5;" horiz-adv-x="1106" 
d="M443 -20q-101 0 -177.5 35.5t-120 102.5t-43.5 162q0 172 120 256t385 90l184 5v81q0 95 -57 150.5t-176 55.5q-89 -1 -157 -42t-87 -134h-163q6 101 56.5 170.5t142.5 105.5t217 36q135 0 224.5 -38t134 -112t44.5 -182v-722h-158l-14 194q-59 -121 -151.5 -167.5
t-203.5 -46.5zM498 113q53 0 104.5 19t94 51.5t68.5 73t26 83.5v177l-153 -3q-119 -2 -198 -24t-119 -69t-40 -123q0 -87 61 -136t156 -49zM570 1152q-74 0 -137 25t-106 73.5t-59 118.5h135q16 -48 59.5 -78.5t107.5 -30.5q63 0 108.5 30.5t62.5 78.5h134
q-16 -68 -58.5 -116.5t-106 -74.5t-140.5 -26zM307 1485l-35 110q33 30 71 52t95 22q50 0 93.5 -13.5t85 -27.5t85.5 -14q45 0 77.5 16.5t62.5 38.5l32 -121q-26 -19 -67.5 -38.5t-105.5 -19.5q-53 0 -93 13t-77.5 25.5t-83.5 12.5q-49 0 -79 -16t-61 -40z" />
    <glyph glyph-name="uni1EB6" unicode="&#x1eb6;" horiz-adv-x="1420" 
d="M83 0l523 1446h209l523 -1446h-189l-142 396h-593l-143 -396h-188zM463 566h493l-246 699zM617 -359v179h187v-179h-187zM709 1564q-74 0 -137 25t-106 73.5t-59 118.5h135q16 -48 59.5 -78.5t107.5 -30.5q63 0 108.5 30.5t62.5 78.5h134q-16 -68 -58.5 -116.5
t-106 -74.5t-140.5 -26z" />
    <glyph glyph-name="uni1EB7" unicode="&#x1eb7;" horiz-adv-x="1106" 
d="M443 -20q-101 0 -177.5 35.5t-120 102.5t-43.5 162q0 172 120 256t385 90l184 5v81q0 95 -57 150.5t-176 55.5q-89 -1 -157 -42t-87 -134h-163q6 101 56.5 170.5t142.5 105.5t217 36q135 0 224.5 -38t134 -112t44.5 -182v-722h-158l-14 194q-59 -121 -151.5 -167.5
t-203.5 -46.5zM498 113q53 0 104.5 19t94 51.5t68.5 73t26 83.5v177l-153 -3q-119 -2 -198 -24t-119 -69t-40 -123q0 -87 61 -136t156 -49zM471 -359v179h187v-179h-187zM566 1152q-74 0 -137 25t-106 73.5t-59 118.5h135q16 -48 59.5 -78.5t107.5 -30.5q63 0 108.5 30.5
t62.5 78.5h134q-16 -68 -58.5 -116.5t-106 -74.5t-140.5 -26z" />
    <glyph glyph-name="uni1EB8" unicode="&#x1eb8;" horiz-adv-x="1241" 
d="M191 0v1446h912l-1 -163h-725v-472h653v-162h-654v-482l746 -2v-165h-931zM592 -359v179h187v-179h-187z" />
    <glyph glyph-name="uni1EB9" unicode="&#x1eb9;" horiz-adv-x="1133" 
d="M590 -20q-144 0 -254 63t-172 181t-62 283q0 163 56 286t162.5 192t256.5 69q146 0 247 -63t153.5 -177.5t52.5 -271.5v-68h-741q0 -98 32.5 -177.5t98.5 -126.5t167 -47q99 0 170.5 46t91.5 133h174q-18 -105 -83.5 -177t-157 -108.5t-192.5 -36.5zM290 599h562
q0 89 -30 160.5t-91.5 113t-154.5 41.5q-97 0 -161 -46.5t-95 -119t-30 -149.5zM485 -359v179h187v-179h-187z" />
    <glyph glyph-name="uni1EBA" unicode="&#x1eba;" horiz-adv-x="1241" 
d="M191 0v1446h912l-1 -163h-725v-472h653v-162h-654v-482l746 -2v-165h-931zM709 1564l-54 84q43 27 60.5 63.5t-3.5 70.5q-20 33 -62.5 32t-82.5 -28l-55 84q85 55 165.5 44.5t121.5 -74.5q50 -76 24.5 -149t-114.5 -127z" />
    <glyph glyph-name="uni1EBB" unicode="&#x1ebb;" horiz-adv-x="1133" 
d="M590 -20q-144 0 -254 63t-172 181t-62 283q0 163 56 286t162.5 192t256.5 69q146 0 247 -63t153.5 -177.5t52.5 -271.5v-68h-741q0 -98 32.5 -177.5t98.5 -126.5t167 -47q99 0 170.5 46t91.5 133h174q-18 -105 -83.5 -177t-157 -108.5t-192.5 -36.5zM290 599h562
q0 89 -30 160.5t-91.5 113t-154.5 41.5q-97 0 -161 -46.5t-95 -119t-30 -149.5zM637 1152l-54 84q43 27 60.5 63.5t-3.5 70.5q-20 33 -62.5 32t-82.5 -28l-55 84q85 55 165.5 44.5t121.5 -74.5q50 -76 24.5 -149t-114.5 -127z" />
    <glyph glyph-name="uni1EBC" unicode="&#x1ebc;" horiz-adv-x="1241" 
d="M191 0v1446h912l-1 -163h-725v-472h653v-162h-654v-482l746 -2v-165h-931zM387 1631l-35 110q34 31 72 53t95 22q49 0 92.5 -14t85 -28t85.5 -14q45 0 78 16.5t62 39.5l32 -122q-26 -19 -67.5 -38.5t-104.5 -19.5q-54 0 -94 13t-77.5 26t-83.5 13q-49 0 -79 -16.5
t-61 -40.5z" />
    <glyph glyph-name="uni1EBD" unicode="&#x1ebd;" horiz-adv-x="1133" 
d="M590 -20q-144 0 -254 63t-172 181t-62 283q0 163 56 286t162.5 192t256.5 69q146 0 247 -63t153.5 -177.5t52.5 -271.5v-68h-741q0 -98 32.5 -177.5t98.5 -126.5t167 -47q99 0 170.5 46t91.5 133h174q-18 -105 -83.5 -177t-157 -108.5t-192.5 -36.5zM290 599h562
q0 89 -30 160.5t-91.5 113t-154.5 41.5q-97 0 -161 -46.5t-95 -119t-30 -149.5zM314 1219l-35 110q34 31 72 53t95 22q49 0 92.5 -14t85 -28t85.5 -14q45 0 78 16.5t62 39.5l32 -122q-26 -19 -67.5 -38.5t-104.5 -19.5q-54 0 -94 13t-77.5 26t-83.5 13q-49 0 -79 -16.5
t-61 -40.5z" />
    <glyph glyph-name="uni1EBE" unicode="&#x1ebe;" horiz-adv-x="1241" 
d="M191 0v1446h912l-1 -163h-725v-472h653v-162h-654v-482l746 -2v-165h-931zM334 1567l251 225h132l246 -225h-174l-140 130l-151 -130h-164zM833 1788l146 242h173l-201 -242h-118z" />
    <glyph glyph-name="uni1EBF" unicode="&#x1ebf;" horiz-adv-x="1133" 
d="M590 -20q-144 0 -254 63t-172 181t-62 283q0 163 56 286t162.5 192t256.5 69q146 0 247 -63t153.5 -177.5t52.5 -271.5v-68h-741q0 -98 32.5 -177.5t98.5 -126.5t167 -47q99 0 170.5 46t91.5 133h174q-18 -105 -83.5 -177t-157 -108.5t-192.5 -36.5zM290 599h562
q0 89 -30 160.5t-91.5 113t-154.5 41.5q-97 0 -161 -46.5t-95 -119t-30 -149.5zM262 1155l251 225h132l246 -225h-174l-140 130l-151 -130h-164zM761 1376l146 242h173l-201 -242h-118z" />
    <glyph glyph-name="uni1EC0" unicode="&#x1ec0;" horiz-adv-x="1241" 
d="M191 0v1446h912l-1 -163h-725v-472h653v-162h-654v-482l746 -2v-165h-931zM334 1567l251 225h132l246 -225h-174l-140 130l-151 -130h-164zM931 1788l-211 243h173l159 -243h-121z" />
    <glyph glyph-name="uni1EC1" unicode="&#x1ec1;" horiz-adv-x="1133" 
d="M590 -20q-144 0 -254 63t-172 181t-62 283q0 163 56 286t162.5 192t256.5 69q146 0 247 -63t153.5 -177.5t52.5 -271.5v-68h-741q0 -98 32.5 -177.5t98.5 -126.5t167 -47q99 0 170.5 46t91.5 133h174q-18 -105 -83.5 -177t-157 -108.5t-192.5 -36.5zM290 599h562
q0 89 -30 160.5t-91.5 113t-154.5 41.5q-97 0 -161 -46.5t-95 -119t-30 -149.5zM262 1155l251 225h132l246 -225h-174l-140 130l-151 -130h-164zM859 1376l-211 243h173l159 -243h-121z" />
    <glyph glyph-name="uni1EC2" unicode="&#x1ec2;" horiz-adv-x="1241" 
d="M191 0v1446h912l-1 -163h-725v-472h653v-162h-654v-482l746 -2v-165h-931zM339 1567l251 225h132l246 -225h-174l-140 130l-151 -130h-164zM887 1742l-55 84q43 27 60.5 63.5t-3.5 70.5q-20 32 -62 31.5t-83 -27.5l-54 84q85 55 165 44.5t122 -74.5q49 -76 24 -149
t-114 -127z" />
    <glyph glyph-name="uni1EC3" unicode="&#x1ec3;" horiz-adv-x="1133" 
d="M590 -20q-144 0 -254 63t-172 181t-62 283q0 163 56 286t162.5 192t256.5 69q146 0 247 -63t153.5 -177.5t52.5 -271.5v-68h-741q0 -98 32.5 -177.5t98.5 -126.5t167 -47q99 0 170.5 46t91.5 133h174q-18 -105 -83.5 -177t-157 -108.5t-192.5 -36.5zM290 599h562
q0 89 -30 160.5t-91.5 113t-154.5 41.5q-97 0 -161 -46.5t-95 -119t-30 -149.5zM266 1155l251 225h132l246 -225h-174l-140 130l-151 -130h-164zM814 1330l-55 84q43 27 60.5 63.5t-3.5 70.5q-20 32 -62 31.5t-83 -27.5l-54 84q85 55 165 44.5t122 -74.5q49 -76 24 -149
t-114 -127z" />
    <glyph glyph-name="uni1EC4" unicode="&#x1ec4;" horiz-adv-x="1241" 
d="M191 0v1446h912l-1 -163h-725v-472h653v-162h-654v-482l746 -2v-165h-931zM336 1567l251 225h132l246 -225h-174l-140 130l-151 -130h-164zM385 1900l-35 110q33 30 71 52t95 22q50 0 93.5 -13.5t85 -27.5t85.5 -14q45 0 77.5 16.5t62.5 38.5l32 -121
q-26 -19 -67.5 -38.5t-105.5 -19.5q-53 0 -93 13t-77.5 25.5t-83.5 12.5q-49 0 -79 -16t-61 -40z" />
    <glyph glyph-name="uni1EC5" unicode="&#x1ec5;" horiz-adv-x="1133" 
d="M590 -20q-144 0 -254 63t-172 181t-62 283q0 163 56 286t162.5 192t256.5 69q146 0 247 -63t153.5 -177.5t52.5 -271.5v-68h-741q0 -98 32.5 -177.5t98.5 -126.5t167 -47q99 0 170.5 46t91.5 133h174q-18 -105 -83.5 -177t-157 -108.5t-192.5 -36.5zM290 599h562
q0 89 -30 160.5t-91.5 113t-154.5 41.5q-97 0 -161 -46.5t-95 -119t-30 -149.5zM263 1155l251 225h132l246 -225h-174l-140 130l-151 -130h-164zM312 1488l-35 110q33 30 71 52t95 22q50 0 93.5 -13.5t85 -27.5t85.5 -14q45 0 77.5 16.5t62.5 38.5l32 -121
q-26 -19 -67.5 -38.5t-105.5 -19.5q-53 0 -93 13t-77.5 25.5t-83.5 12.5q-49 0 -79 -16t-61 -40z" />
    <glyph glyph-name="uni1EC6" unicode="&#x1ec6;" horiz-adv-x="1241" 
d="M191 0v1446h912l-1 -163h-725v-472h653v-162h-654v-482l746 -2v-165h-931zM592 -359v179h187v-179h-187zM334 1567l251 225h132l246 -225h-174l-140 130l-151 -130h-164z" />
    <glyph glyph-name="uni1EC7" unicode="&#x1ec7;" horiz-adv-x="1133" 
d="M590 -20q-144 0 -254 63t-172 181t-62 283q0 163 56 286t162.5 192t256.5 69q146 0 247 -63t153.5 -177.5t52.5 -271.5v-68h-741q0 -98 32.5 -177.5t98.5 -126.5t167 -47q99 0 170.5 46t91.5 133h174q-18 -105 -83.5 -177t-157 -108.5t-192.5 -36.5zM290 599h562
q0 89 -30 160.5t-91.5 113t-154.5 41.5q-97 0 -161 -46.5t-95 -119t-30 -149.5zM485 -359v179h187v-179h-187zM262 1155l251 225h132l246 -225h-174l-140 130l-151 -130h-164z" />
    <glyph glyph-name="uni1EC8" unicode="&#x1ec8;" horiz-adv-x="566" 
d="M191 0v1446h185v-1446h-185zM344 1564l-54 84q43 27 60.5 63.5t-3.5 70.5q-20 33 -62.5 32t-82.5 -28l-55 84q85 55 165.5 44.5t121.5 -74.5q50 -76 24.5 -149t-114.5 -127z" />
    <glyph glyph-name="uni1EC9" unicode="&#x1ec9;" horiz-adv-x="484" 
d="M153 0v1034h178v-1034h-178zM303 1152l-54 84q43 27 60.5 63.5t-3.5 70.5q-20 33 -62.5 32t-82.5 -28l-55 84q85 55 165.5 44.5t121.5 -74.5q50 -76 24.5 -149t-114.5 -127z" />
    <glyph glyph-name="uni1ECA" unicode="&#x1eca;" horiz-adv-x="566" 
d="M191 0v1446h185v-1446h-185zM199 -359v179h187v-179h-187z" />
    <glyph glyph-name="uni1ECB" unicode="&#x1ecb;" horiz-adv-x="495" 
d="M158 0v1034h179v-1034h-179zM153 1253v192h189v-192h-189zM154 -359v179h187v-179h-187z" />
    <glyph glyph-name="uni1ECC" unicode="&#x1ecc;" horiz-adv-x="1468" 
d="M736 -20q-193 0 -334 87t-217.5 252.5t-76.5 400.5q0 237 77 403.5t218.5 254.5t332.5 88q192 0 332 -87.5t216 -254t76 -404.5q0 -235 -75.5 -400.5t-215.5 -252.5t-333 -87zM736 141q134 0 228 61t143.5 189t49.5 327q0 202 -50 332t-144 192.5t-227 62.5
q-132 0 -227 -63t-146 -193t-51 -331q0 -199 51 -327t146 -189t227 -61zM645 -359v179h187v-179h-187z" />
    <glyph glyph-name="uni1ECD" unicode="&#x1ecd;" horiz-adv-x="1131" 
d="M567 -20q-143 0 -249.5 61.5t-165.5 180.5t-59 291q0 162 55 284t161 189.5t259 67.5q143 0 248 -62.5t163.5 -183.5t58.5 -295q0 -158 -54 -278t-158.5 -187.5t-258.5 -67.5zM568 126q92 0 156 47t97.5 135t33.5 209q0 111 -29.5 199.5t-92.5 140.5t-165 52
q-94 0 -159 -46.5t-98.5 -134.5t-33.5 -211q0 -109 29.5 -198t94 -141t167.5 -52zM473 -359v179h187v-179h-187z" />
    <glyph glyph-name="uni1ECE" unicode="&#x1ece;" horiz-adv-x="1468" 
d="M736 -20q-193 0 -334 87t-217.5 252.5t-76.5 400.5q0 237 77 403.5t218.5 254.5t332.5 88q192 0 332 -87.5t216 -254t76 -404.5q0 -235 -75.5 -400.5t-215.5 -252.5t-333 -87zM736 141q134 0 228 61t143.5 189t49.5 327q0 202 -50 332t-144 192.5t-227 62.5
q-132 0 -227 -63t-146 -193t-51 -331q0 -199 51 -327t146 -189t227 -61zM796 1564l-54 84q43 27 60.5 63.5t-3.5 70.5q-20 33 -62.5 32t-82.5 -28l-55 84q85 55 165.5 44.5t121.5 -74.5q50 -76 24.5 -149t-114.5 -127z" />
    <glyph glyph-name="uni1ECF" unicode="&#x1ecf;" horiz-adv-x="1131" 
d="M567 -20q-143 0 -249.5 61.5t-165.5 180.5t-59 291q0 162 55 284t161 189.5t259 67.5q143 0 248 -62.5t163.5 -183.5t58.5 -295q0 -158 -54 -278t-158.5 -187.5t-258.5 -67.5zM568 126q92 0 156 47t97.5 135t33.5 209q0 111 -29.5 199.5t-92.5 140.5t-165 52
q-94 0 -159 -46.5t-98.5 -134.5t-33.5 -211q0 -109 29.5 -198t94 -141t167.5 -52zM626 1152l-54 84q43 27 60.5 63.5t-3.5 70.5q-20 33 -62.5 32t-82.5 -28l-55 84q85 55 165.5 44.5t121.5 -74.5q50 -76 24.5 -149t-114.5 -127z" />
    <glyph glyph-name="uni1ED0" unicode="&#x1ed0;" horiz-adv-x="1468" 
d="M736 -20q-193 0 -334 87t-217.5 252.5t-76.5 400.5q0 237 77 403.5t218.5 254.5t332.5 88q192 0 332 -87.5t216 -254t76 -404.5q0 -235 -75.5 -400.5t-215.5 -252.5t-333 -87zM736 141q134 0 228 61t143.5 189t49.5 327q0 202 -50 332t-144 192.5t-227 62.5
q-132 0 -227 -63t-146 -193t-51 -331q0 -199 51 -327t146 -189t227 -61zM421 1567l251 225h132l246 -225h-174l-140 130l-151 -130h-164zM920 1788l146 242h173l-201 -242h-118z" />
    <glyph glyph-name="uni1ED1" unicode="&#x1ed1;" horiz-adv-x="1131" 
d="M567 -20q-143 0 -249.5 61.5t-165.5 180.5t-59 291q0 162 55 284t161 189.5t259 67.5q143 0 248 -62.5t163.5 -183.5t58.5 -295q0 -158 -54 -278t-158.5 -187.5t-258.5 -67.5zM568 126q92 0 156 47t97.5 135t33.5 209q0 111 -29.5 199.5t-92.5 140.5t-165 52
q-94 0 -159 -46.5t-98.5 -134.5t-33.5 -211q0 -109 29.5 -198t94 -141t167.5 -52zM251 1155l251 225h132l246 -225h-174l-140 130l-151 -130h-164zM750 1376l146 242h173l-201 -242h-118z" />
    <glyph glyph-name="uni1ED2" unicode="&#x1ed2;" horiz-adv-x="1468" 
d="M736 -20q-193 0 -334 87t-217.5 252.5t-76.5 400.5q0 237 77 403.5t218.5 254.5t332.5 88q192 0 332 -87.5t216 -254t76 -404.5q0 -235 -75.5 -400.5t-215.5 -252.5t-333 -87zM736 141q134 0 228 61t143.5 189t49.5 327q0 202 -50 332t-144 192.5t-227 62.5
q-132 0 -227 -63t-146 -193t-51 -331q0 -199 51 -327t146 -189t227 -61zM421 1567l251 225h132l246 -225h-174l-140 130l-151 -130h-164zM1018 1788l-211 243h173l159 -243h-121z" />
    <glyph glyph-name="uni1ED3" unicode="&#x1ed3;" horiz-adv-x="1131" 
d="M567 -20q-143 0 -249.5 61.5t-165.5 180.5t-59 291q0 162 55 284t161 189.5t259 67.5q143 0 248 -62.5t163.5 -183.5t58.5 -295q0 -158 -54 -278t-158.5 -187.5t-258.5 -67.5zM568 126q92 0 156 47t97.5 135t33.5 209q0 111 -29.5 199.5t-92.5 140.5t-165 52
q-94 0 -159 -46.5t-98.5 -134.5t-33.5 -211q0 -109 29.5 -198t94 -141t167.5 -52zM251 1155l251 225h132l246 -225h-174l-140 130l-151 -130h-164zM848 1376l-211 243h173l159 -243h-121z" />
    <glyph glyph-name="uni1ED4" unicode="&#x1ed4;" horiz-adv-x="1468" 
d="M736 -20q-193 0 -334 87t-217.5 252.5t-76.5 400.5q0 237 77 403.5t218.5 254.5t332.5 88q192 0 332 -87.5t216 -254t76 -404.5q0 -235 -75.5 -400.5t-215.5 -252.5t-333 -87zM736 141q134 0 228 61t143.5 189t49.5 327q0 202 -50 332t-144 192.5t-227 62.5
q-132 0 -227 -63t-146 -193t-51 -331q0 -199 51 -327t146 -189t227 -61zM426 1567l251 225h132l246 -225h-174l-140 130l-151 -130h-164zM974 1742l-55 84q43 27 60.5 63.5t-3.5 70.5q-20 32 -62 31.5t-83 -27.5l-54 84q85 55 165 44.5t122 -74.5q49 -76 24 -149t-114 -127z
" />
    <glyph glyph-name="uni1ED5" unicode="&#x1ed5;" horiz-adv-x="1131" 
d="M567 -20q-143 0 -249.5 61.5t-165.5 180.5t-59 291q0 162 55 284t161 189.5t259 67.5q143 0 248 -62.5t163.5 -183.5t58.5 -295q0 -158 -54 -278t-158.5 -187.5t-258.5 -67.5zM568 126q92 0 156 47t97.5 135t33.5 209q0 111 -29.5 199.5t-92.5 140.5t-165 52
q-94 0 -159 -46.5t-98.5 -134.5t-33.5 -211q0 -109 29.5 -198t94 -141t167.5 -52zM255 1155l251 225h132l246 -225h-174l-140 130l-151 -130h-164zM803 1330l-55 84q43 27 60.5 63.5t-3.5 70.5q-20 32 -62 31.5t-83 -27.5l-54 84q85 55 165 44.5t122 -74.5q49 -76 24 -149
t-114 -127z" />
    <glyph glyph-name="uni1ED6" unicode="&#x1ed6;" horiz-adv-x="1468" 
d="M736 -20q-193 0 -334 87t-217.5 252.5t-76.5 400.5q0 237 77 403.5t218.5 254.5t332.5 88q192 0 332 -87.5t216 -254t76 -404.5q0 -235 -75.5 -400.5t-215.5 -252.5t-333 -87zM736 141q134 0 228 61t143.5 189t49.5 327q0 202 -50 332t-144 192.5t-227 62.5
q-132 0 -227 -63t-146 -193t-51 -331q0 -199 51 -327t146 -189t227 -61zM423 1567l251 225h132l246 -225h-174l-140 130l-151 -130h-164zM472 1900l-35 110q33 30 71 52t95 22q50 0 93.5 -13.5t85 -27.5t85.5 -14q45 0 77.5 16.5t62.5 38.5l32 -121q-26 -19 -67.5 -38.5
t-105.5 -19.5q-53 0 -93 13t-77.5 25.5t-83.5 12.5q-49 0 -79 -16t-61 -40z" />
    <glyph glyph-name="uni1ED7" unicode="&#x1ed7;" horiz-adv-x="1131" 
d="M567 -20q-143 0 -249.5 61.5t-165.5 180.5t-59 291q0 162 55 284t161 189.5t259 67.5q143 0 248 -62.5t163.5 -183.5t58.5 -295q0 -158 -54 -278t-158.5 -187.5t-258.5 -67.5zM568 126q92 0 156 47t97.5 135t33.5 209q0 111 -29.5 199.5t-92.5 140.5t-165 52
q-94 0 -159 -46.5t-98.5 -134.5t-33.5 -211q0 -109 29.5 -198t94 -141t167.5 -52zM252 1155l251 225h132l246 -225h-174l-140 130l-151 -130h-164zM301 1488l-35 110q33 30 71 52t95 22q50 0 93.5 -13.5t85 -27.5t85.5 -14q45 0 77.5 16.5t62.5 38.5l32 -121
q-26 -19 -67.5 -38.5t-105.5 -19.5q-53 0 -93 13t-77.5 25.5t-83.5 12.5q-49 0 -79 -16t-61 -40z" />
    <glyph glyph-name="uni1ED8" unicode="&#x1ed8;" horiz-adv-x="1468" 
d="M736 -20q-193 0 -334 87t-217.5 252.5t-76.5 400.5q0 237 77 403.5t218.5 254.5t332.5 88q192 0 332 -87.5t216 -254t76 -404.5q0 -235 -75.5 -400.5t-215.5 -252.5t-333 -87zM736 141q134 0 228 61t143.5 189t49.5 327q0 202 -50 332t-144 192.5t-227 62.5
q-132 0 -227 -63t-146 -193t-51 -331q0 -199 51 -327t146 -189t227 -61zM645 -359v179h187v-179h-187zM421 1567l251 225h132l246 -225h-174l-140 130l-151 -130h-164z" />
    <glyph glyph-name="uni1ED9" unicode="&#x1ed9;" horiz-adv-x="1131" 
d="M567 -20q-143 0 -249.5 61.5t-165.5 180.5t-59 291q0 162 55 284t161 189.5t259 67.5q143 0 248 -62.5t163.5 -183.5t58.5 -295q0 -158 -54 -278t-158.5 -187.5t-258.5 -67.5zM568 126q92 0 156 47t97.5 135t33.5 209q0 111 -29.5 199.5t-92.5 140.5t-165 52
q-94 0 -159 -46.5t-98.5 -134.5t-33.5 -211q0 -109 29.5 -198t94 -141t167.5 -52zM473 -359v179h187v-179h-187zM251 1155l251 225h132l246 -225h-174l-140 130l-151 -130h-164z" />
    <glyph glyph-name="uni1EDA" unicode="&#x1eda;" horiz-adv-x="1571" 
d="M736 -20q-193 0 -334 87t-217.5 252.5t-76.5 400.5q0 237 77 403.5t218.5 254.5t332.5 88q142 0 255.5 -48t194.5 -140q40 1 68 9t46 29t28 60t13 102h148q-1 -101 -23.5 -168t-72 -102t-132.5 -40q48 -86 73.5 -198.5t25.5 -249.5q0 -235 -75.5 -400.5t-215.5 -252.5
t-333 -87zM736 141q134 0 228 61t143.5 189t49.5 327q0 202 -50 332t-144 192.5t-227 62.5q-132 0 -227 -63t-146 -193t-51 -331q0 -199 51 -327t146 -189t227 -61zM656 1567l206 291h210l-273 -291h-143z" />
    <glyph glyph-name="uni1EDB" unicode="&#x1edb;" horiz-adv-x="1203" 
d="M492 1155l206 291h210l-273 -291h-143zM567 -20q-143 0 -249.5 61.5t-165.5 180.5t-59 291q0 162 55 284t161 189.5t259 67.5q107 0 193.5 -35.5t147.5 -103.5q45 4 72 20.5t41 58.5t18 119h147q0 -96 -20.5 -162t-67 -101.5t-122.5 -43.5q61 -118 61 -293
q0 -158 -54 -278t-158.5 -187.5t-258.5 -67.5zM568 126q92 0 156 47t97.5 135t33.5 209q0 111 -29.5 199.5t-92.5 140.5t-165 52q-94 0 -159 -46.5t-98.5 -134.5t-33.5 -211q0 -109 29.5 -198t94 -141t167.5 -52z" />
    <glyph glyph-name="uni1EDC" unicode="&#x1edc;" horiz-adv-x="1571" 
d="M736 -20q-193 0 -334 87t-217.5 252.5t-76.5 400.5q0 237 77 403.5t218.5 254.5t332.5 88q142 0 255.5 -48t194.5 -140q40 1 68 9t46 29t28 60t13 102h148q-1 -101 -23.5 -168t-72 -102t-132.5 -40q48 -86 73.5 -198.5t25.5 -249.5q0 -235 -75.5 -400.5t-215.5 -252.5
t-333 -87zM736 141q134 0 228 61t143.5 189t49.5 327q0 202 -50 332t-144 192.5t-227 62.5q-132 0 -227 -63t-146 -193t-51 -331q0 -199 51 -327t146 -189t227 -61zM670 1567l-274 291h211l206 -291h-143z" />
    <glyph glyph-name="uni1EDD" unicode="&#x1edd;" horiz-adv-x="1203" 
d="M489 1155l-274 291h211l206 -291h-143zM567 -20q-143 0 -249.5 61.5t-165.5 180.5t-59 291q0 162 55 284t161 189.5t259 67.5q107 0 193.5 -35.5t147.5 -103.5q45 4 72 20.5t41 58.5t18 119h147q0 -96 -20.5 -162t-67 -101.5t-122.5 -43.5q61 -118 61 -293
q0 -158 -54 -278t-158.5 -187.5t-258.5 -67.5zM568 126q92 0 156 47t97.5 135t33.5 209q0 111 -29.5 199.5t-92.5 140.5t-165 52q-94 0 -159 -46.5t-98.5 -134.5t-33.5 -211q0 -109 29.5 -198t94 -141t167.5 -52z" />
    <glyph glyph-name="uni1EDE" unicode="&#x1ede;" horiz-adv-x="1571" 
d="M736 -20q-193 0 -334 87t-217.5 252.5t-76.5 400.5q0 237 77 403.5t218.5 254.5t332.5 88q142 0 255.5 -48t194.5 -140q40 1 68 9t46 29t28 60t13 102h148q-1 -101 -23.5 -168t-72 -102t-132.5 -40q48 -86 73.5 -198.5t25.5 -249.5q0 -235 -75.5 -400.5t-215.5 -252.5
t-333 -87zM736 141q134 0 228 61t143.5 189t49.5 327q0 202 -50 332t-144 192.5t-227 62.5q-132 0 -227 -63t-146 -193t-51 -331q0 -199 51 -327t146 -189t227 -61zM796 1564l-54 84q43 27 60.5 63.5t-3.5 70.5q-20 33 -62.5 32t-82.5 -28l-55 84q85 55 165.5 44.5
t121.5 -74.5q50 -76 24.5 -149t-114.5 -127z" />
    <glyph glyph-name="uni1EDF" unicode="&#x1edf;" horiz-adv-x="1203" 
d="M621 1152l-54 84q43 27 60.5 63.5t-3.5 70.5q-20 33 -62.5 32t-82.5 -28l-55 84q85 55 165.5 44.5t121.5 -74.5q50 -76 24.5 -149t-114.5 -127zM567 -20q-143 0 -249.5 61.5t-165.5 180.5t-59 291q0 162 55 284t161 189.5t259 67.5q107 0 193.5 -35.5t147.5 -103.5
q45 4 72 20.5t41 58.5t18 119h147q0 -96 -20.5 -162t-67 -101.5t-122.5 -43.5q61 -118 61 -293q0 -158 -54 -278t-158.5 -187.5t-258.5 -67.5zM568 126q92 0 156 47t97.5 135t33.5 209q0 111 -29.5 199.5t-92.5 140.5t-165 52q-94 0 -159 -46.5t-98.5 -134.5t-33.5 -211
q0 -109 29.5 -198t94 -141t167.5 -52z" />
    <glyph glyph-name="uni1EE0" unicode="&#x1ee0;" horiz-adv-x="1571" 
d="M736 -20q-193 0 -334 87t-217.5 252.5t-76.5 400.5q0 237 77 403.5t218.5 254.5t332.5 88q142 0 255.5 -48t194.5 -140q40 1 68 9t46 29t28 60t13 102h148q-1 -101 -23.5 -168t-72 -102t-132.5 -40q48 -86 73.5 -198.5t25.5 -249.5q0 -235 -75.5 -400.5t-215.5 -252.5
t-333 -87zM736 141q134 0 228 61t143.5 189t49.5 327q0 202 -50 332t-144 192.5t-227 62.5q-132 0 -227 -63t-146 -193t-51 -331q0 -199 51 -327t146 -189t227 -61zM474 1631l-35 110q34 31 72 53t95 22q49 0 92.5 -14t85 -28t85.5 -14q45 0 78 16.5t62 39.5l32 -122
q-26 -19 -67.5 -38.5t-104.5 -19.5q-54 0 -94 13t-77.5 26t-83.5 13q-49 0 -79 -16.5t-61 -40.5z" />
    <glyph glyph-name="uni1EE1" unicode="&#x1ee1;" horiz-adv-x="1203" 
d="M299 1219l-35 110q34 31 72 53t95 22q49 0 92.5 -14t85 -28t85.5 -14q45 0 78 16.5t62 39.5l32 -122q-26 -19 -67.5 -38.5t-104.5 -19.5q-54 0 -94 13t-77.5 26t-83.5 13q-49 0 -79 -16.5t-61 -40.5zM567 -20q-143 0 -249.5 61.5t-165.5 180.5t-59 291q0 162 55 284
t161 189.5t259 67.5q107 0 193.5 -35.5t147.5 -103.5q45 4 72 20.5t41 58.5t18 119h147q0 -96 -20.5 -162t-67 -101.5t-122.5 -43.5q61 -118 61 -293q0 -158 -54 -278t-158.5 -187.5t-258.5 -67.5zM568 126q92 0 156 47t97.5 135t33.5 209q0 111 -29.5 199.5t-92.5 140.5
t-165 52q-94 0 -159 -46.5t-98.5 -134.5t-33.5 -211q0 -109 29.5 -198t94 -141t167.5 -52z" />
    <glyph glyph-name="uni1EE2" unicode="&#x1ee2;" horiz-adv-x="1571" 
d="M736 -20q-193 0 -334 87t-217.5 252.5t-76.5 400.5q0 237 77 403.5t218.5 254.5t332.5 88q142 0 255.5 -48t194.5 -140q40 1 68 9t46 29t28 60t13 102h148q-1 -101 -23.5 -168t-72 -102t-132.5 -40q48 -86 73.5 -198.5t25.5 -249.5q0 -235 -75.5 -400.5t-215.5 -252.5
t-333 -87zM736 141q134 0 228 61t143.5 189t49.5 327q0 202 -50 332t-144 192.5t-227 62.5q-132 0 -227 -63t-146 -193t-51 -331q0 -199 51 -327t146 -189t227 -61zM645 -359v179h187v-179h-187z" />
    <glyph glyph-name="uni1EE3" unicode="&#x1ee3;" horiz-adv-x="1203" 
d="M455 -359v179h187v-179h-187zM567 -20q-143 0 -249.5 61.5t-165.5 180.5t-59 291q0 162 55 284t161 189.5t259 67.5q107 0 193.5 -35.5t147.5 -103.5q45 4 72 20.5t41 58.5t18 119h147q0 -96 -20.5 -162t-67 -101.5t-122.5 -43.5q61 -118 61 -293q0 -158 -54 -278
t-158.5 -187.5t-258.5 -67.5zM568 126q92 0 156 47t97.5 135t33.5 209q0 111 -29.5 199.5t-92.5 140.5t-165 52q-94 0 -159 -46.5t-98.5 -134.5t-33.5 -211q0 -109 29.5 -198t94 -141t167.5 -52z" />
    <glyph glyph-name="uni1EE4" unicode="&#x1ee4;" horiz-adv-x="1401" 
d="M719 -20q-188 0 -304.5 62t-170 182t-53.5 295v927h192v-955q0 -175 87 -262t249 -87q109 0 185.5 38t117 115.5t40.5 195.5v955h186v-946q0 -167 -55 -283t-171.5 -176.5t-302.5 -60.5zM624 -356v179h187v-179h-187z" />
    <glyph glyph-name="uni1EE5" unicode="&#x1ee5;" horiz-adv-x="1161" 
d="M533 -20q-81 1 -152.5 23.5t-126.5 66.5t-86.5 109.5t-31.5 152.5v702h185v-683q0 -101 62.5 -164t188.5 -63q114 0 183.5 59.5t69.5 177.5v673h184v-1034h-147l-19 198q-19 -78 -64.5 -126t-109 -70.5t-136.5 -21.5zM484 -359v179h187v-179h-187z" />
    <glyph glyph-name="uni1EE6" unicode="&#x1ee6;" horiz-adv-x="1401" 
d="M719 -20q-188 0 -304.5 62t-170 182t-53.5 295v927h192v-955q0 -175 87 -262t249 -87q109 0 185.5 38t117 115.5t40.5 195.5v955h186v-946q0 -167 -55 -283t-171.5 -176.5t-302.5 -60.5zM781 1564l-54 84q43 27 60.5 63.5t-3.5 70.5q-20 33 -62.5 32t-82.5 -28l-55 84
q85 55 165.5 44.5t121.5 -74.5q50 -76 24.5 -149t-114.5 -127z" />
    <glyph glyph-name="uni1EE7" unicode="&#x1ee7;" horiz-adv-x="1161" 
d="M533 -20q-81 1 -152.5 23.5t-126.5 66.5t-86.5 109.5t-31.5 152.5v702h185v-683q0 -101 62.5 -164t188.5 -63q114 0 183.5 59.5t69.5 177.5v673h184v-1034h-147l-19 198q-19 -78 -64.5 -126t-109 -70.5t-136.5 -21.5zM635 1152l-54 84q43 27 60.5 63.5t-3.5 70.5
q-20 33 -62.5 32t-82.5 -28l-55 84q85 55 165.5 44.5t121.5 -74.5q50 -76 24.5 -149t-114.5 -127z" />
    <glyph glyph-name="uni1EE8" unicode="&#x1ee8;" horiz-adv-x="1620" 
d="M719 -20q-188 0 -304.5 62t-170 182t-53.5 295v927h192v-955q0 -175 87 -262t249 -87q109 0 185.5 38t117 115.5t40.5 195.5v955h186v-168q46 3 73 20t41 60t18 120h148q-1 -111 -28.5 -181.5t-88.5 -101.5t-163 -27v-668q0 -167 -55 -283t-171.5 -176.5t-302.5 -60.5z
M640 1567l206 291h210l-273 -291h-143z" />
    <glyph glyph-name="uni1EE9" unicode="&#x1ee9;" horiz-adv-x="1304" 
d="M514 1155l206 291h210l-273 -291h-143zM533 -20q-81 1 -152.5 23.5t-126.5 66.5t-86.5 109.5t-31.5 152.5v702h185v-683q0 -101 62.5 -164t188.5 -63q114 0 183.5 59.5t69.5 177.5v673h184v-121q49 1 79 18t45 60t19 122h147q0 -112 -28.5 -183t-92 -101.5t-169.5 -24.5
v-804h-147l-19 198q-19 -78 -64.5 -126t-109 -70.5t-136.5 -21.5z" />
    <glyph glyph-name="uni1EEA" unicode="&#x1eea;" horiz-adv-x="1620" 
d="M719 -20q-188 0 -304.5 62t-170 182t-53.5 295v927h192v-955q0 -175 87 -262t249 -87q109 0 185.5 38t117 115.5t40.5 195.5v955h186v-168q46 3 73 20t41 60t18 120h148q-1 -111 -28.5 -181.5t-88.5 -101.5t-163 -27v-668q0 -167 -55 -283t-171.5 -176.5t-302.5 -60.5z
M655 1567l-274 291h211l206 -291h-143z" />
    <glyph glyph-name="uni1EEB" unicode="&#x1eeb;" horiz-adv-x="1304" 
d="M511 1155l-274 291h211l206 -291h-143zM533 -20q-81 1 -152.5 23.5t-126.5 66.5t-86.5 109.5t-31.5 152.5v702h185v-683q0 -101 62.5 -164t188.5 -63q114 0 183.5 59.5t69.5 177.5v673h184v-121q49 1 79 18t45 60t19 122h147q0 -112 -28.5 -183t-92 -101.5t-169.5 -24.5
v-804h-147l-19 198q-19 -78 -64.5 -126t-109 -70.5t-136.5 -21.5z" />
    <glyph glyph-name="uni1EEC" unicode="&#x1eec;" horiz-adv-x="1620" 
d="M719 -20q-188 0 -304.5 62t-170 182t-53.5 295v927h192v-955q0 -175 87 -262t249 -87q109 0 185.5 38t117 115.5t40.5 195.5v955h186v-168q46 3 73 20t41 60t18 120h148q-1 -111 -28.5 -181.5t-88.5 -101.5t-163 -27v-668q0 -167 -55 -283t-171.5 -176.5t-302.5 -60.5z
M781 1564l-54 84q43 27 60.5 63.5t-3.5 70.5q-20 33 -62.5 32t-82.5 -28l-55 84q85 55 165.5 44.5t121.5 -74.5q50 -76 24.5 -149t-114.5 -127z" />
    <glyph glyph-name="uni1EED" unicode="&#x1eed;" horiz-adv-x="1304" 
d="M644 1152l-54 84q43 27 60.5 63.5t-3.5 70.5q-20 33 -62.5 32t-82.5 -28l-55 84q85 55 165.5 44.5t121.5 -74.5q50 -76 24.5 -149t-114.5 -127zM533 -20q-81 1 -152.5 23.5t-126.5 66.5t-86.5 109.5t-31.5 152.5v702h185v-683q0 -101 62.5 -164t188.5 -63
q114 0 183.5 59.5t69.5 177.5v673h184v-121q49 1 79 18t45 60t19 122h147q0 -112 -28.5 -183t-92 -101.5t-169.5 -24.5v-804h-147l-19 198q-19 -78 -64.5 -126t-109 -70.5t-136.5 -21.5z" />
    <glyph glyph-name="uni1EEE" unicode="&#x1eee;" horiz-adv-x="1616" 
d="M719 -20q-188 0 -304.5 62t-170 182t-53.5 295v927h192v-955q0 -175 87 -262t249 -87q109 0 185.5 38t117 115.5t40.5 195.5v955h186v-168q46 3 73 20t41 60t18 120h148q-1 -111 -28.5 -181.5t-88.5 -101.5t-163 -27v-668q0 -167 -55 -283t-171.5 -176.5t-302.5 -60.5z
M458 1631l-35 110q34 31 72 53t95 22q49 0 92.5 -14t85 -28t85.5 -14q45 0 78 16.5t62 39.5l32 -122q-26 -19 -67.5 -38.5t-104.5 -19.5q-54 0 -94 13t-77.5 26t-83.5 13q-49 0 -79 -16.5t-61 -40.5z" />
    <glyph glyph-name="uni1EEF" unicode="&#x1eef;" horiz-adv-x="1304" 
d="M321 1219l-35 110q34 31 72 53t95 22q49 0 92.5 -14t85 -28t85.5 -14q45 0 78 16.5t62 39.5l32 -122q-26 -19 -67.5 -38.5t-104.5 -19.5q-54 0 -94 13t-77.5 26t-83.5 13q-49 0 -79 -16.5t-61 -40.5zM533 -20q-81 1 -152.5 23.5t-126.5 66.5t-86.5 109.5t-31.5 152.5v702
h185v-683q0 -101 62.5 -164t188.5 -63q114 0 183.5 59.5t69.5 177.5v673h184v-121q49 1 79 18t45 60t19 122h147q0 -112 -28.5 -183t-92 -101.5t-169.5 -24.5v-804h-147l-19 198q-19 -78 -64.5 -126t-109 -70.5t-136.5 -21.5z" />
    <glyph glyph-name="uni1EF0" unicode="&#x1ef0;" horiz-adv-x="1620" 
d="M719 -20q-188 0 -304.5 62t-170 182t-53.5 295v927h192v-955q0 -175 87 -262t249 -87q109 0 185.5 38t117 115.5t40.5 195.5v955h186v-168q46 3 73 20t41 60t18 120h148q-1 -111 -28.5 -181.5t-88.5 -101.5t-163 -27v-668q0 -167 -55 -283t-171.5 -176.5t-302.5 -60.5z
M624 -356v179h187v-179h-187z" />
    <glyph glyph-name="uni1EF1" unicode="&#x1ef1;" horiz-adv-x="1304" 
d="M479 -359v179h187v-179h-187zM533 -20q-81 1 -152.5 23.5t-126.5 66.5t-86.5 109.5t-31.5 152.5v702h185v-683q0 -101 62.5 -164t188.5 -63q114 0 183.5 59.5t69.5 177.5v673h184v-121q49 1 79 18t45 60t19 122h147q0 -112 -28.5 -183t-92 -101.5t-169.5 -24.5v-804h-147
l-19 198q-19 -78 -64.5 -126t-109 -70.5t-136.5 -21.5z" />
    <glyph glyph-name="Ygrave" unicode="&#x1ef2;" horiz-adv-x="1214" 
d="M517 0v616l-493 830h202l384 -665l378 665h203l-490 -831v-615h-184zM558 1570l-274 291h211l206 -291h-143z" />
    <glyph glyph-name="ygrave" unicode="&#x1ef3;" horiz-adv-x="1070" 
d="M256 -330q-91 0 -125 13l-34 13v120l106 -2q57 -2 95 8t61 27t35.5 38t20.5 40l36 98l-404 1009h187l305 -798l303 798h181l-435 -1112q-41 -98 -90.5 -153t-110 -77t-131.5 -22zM473 1155l-274 291h211l206 -291h-143z" />
    <glyph glyph-name="uni1EF4" unicode="&#x1ef4;" horiz-adv-x="1214" 
d="M517 0v616l-493 830h202l384 -665l378 665h203l-490 -831v-615h-184zM517 -359v179h187v-179h-187z" />
    <glyph glyph-name="uni1EF5" unicode="&#x1ef5;" horiz-adv-x="1070" 
d="M256 -330q-91 0 -125 13l-34 13v120l106 -2q57 -2 95 8t61 27t35.5 38t20.5 40l36 98l-404 1009h187l305 -798l303 798h181l-435 -1112q-41 -98 -90.5 -153t-110 -77t-131.5 -22zM700 -347v179h187v-179h-187z" />
    <glyph glyph-name="uni1EF6" unicode="&#x1ef6;" horiz-adv-x="1214" 
d="M517 0v616l-493 830h202l384 -665l378 665h203l-490 -831v-615h-184zM684 1567l-54 84q43 27 60.5 63.5t-3.5 70.5q-20 33 -62.5 32t-82.5 -28l-55 84q85 55 165.5 44.5t121.5 -74.5q50 -76 24.5 -149t-114.5 -127z" />
    <glyph glyph-name="uni1EF7" unicode="&#x1ef7;" horiz-adv-x="1070" 
d="M256 -330q-91 0 -125 13l-34 13v120l106 -2q57 -2 95 8t61 27t35.5 38t20.5 40l36 98l-404 1009h187l305 -798l303 798h181l-435 -1112q-41 -98 -90.5 -153t-110 -77t-131.5 -22zM599 1152l-54 84q43 27 60.5 63.5t-3.5 70.5q-20 33 -62.5 32t-82.5 -28l-55 84
q85 55 165.5 44.5t121.5 -74.5q50 -76 24.5 -149t-114.5 -127z" />
    <glyph glyph-name="uni1EF8" unicode="&#x1ef8;" horiz-adv-x="1214" 
d="M517 0v616l-493 830h202l384 -665l378 665h203l-490 -831v-615h-184zM361 1634l-35 110q34 31 72 53t95 22q49 0 92.5 -14t85 -28t85.5 -14q45 0 78 16.5t62 39.5l32 -122q-26 -19 -67.5 -38.5t-104.5 -19.5q-54 0 -94 13t-77.5 26t-83.5 13q-49 0 -79 -16.5t-61 -40.5z
" />
    <glyph glyph-name="uni1EF9" unicode="&#x1ef9;" horiz-adv-x="1070" 
d="M256 -330q-91 0 -125 13l-34 13v120l106 -2q57 -2 95 8t61 27t35.5 38t20.5 40l36 98l-404 1009h187l305 -798l303 798h181l-435 -1112q-41 -98 -90.5 -153t-110 -77t-131.5 -22zM276 1219l-35 110q34 31 72 53t95 22q49 0 92.5 -14t85 -28t85.5 -14q45 0 78 16.5
t62 39.5l32 -122q-26 -19 -67.5 -38.5t-104.5 -19.5q-54 0 -94 13t-77.5 26t-83.5 13q-49 0 -79 -16.5t-61 -40.5z" />
    <glyph glyph-name="endash" unicode="&#x2013;" horiz-adv-x="1110" 
d="M124 428v146l863 1v-145z" />
    <glyph glyph-name="emdash" unicode="&#x2014;" horiz-adv-x="2234" 
d="M371 428v146l1492 1v-145z" />
    <glyph glyph-name="quoteleft" unicode="&#x2018;" horiz-adv-x="479" 
d="M106 1037v192l169 280h86l-110 -248l85 -5v-219h-230z" />
    <glyph glyph-name="quoteright" unicode="&#x2019;" horiz-adv-x="463" 
d="M100 974l111 248l-86 5v219h231v-192l-170 -280h-86z" />
    <glyph glyph-name="quotesinglbase" unicode="&#x201a;" horiz-adv-x="483" 
d="M87 -249l111 246l-86 5v221h231v-192l-170 -280h-86z" />
    <glyph glyph-name="quotedblleft" unicode="&#x201c;" horiz-adv-x="838" 
d="M106 974v193l171 279h86l-112 -247l85 -5v-220h-230zM465 974v193l170 279h86l-112 -247l87 -5v-220h-231z" />
    <glyph glyph-name="quotedblright" unicode="&#x201d;" horiz-adv-x="821" 
d="M458 974l112 248l-86 5v219h230v-192l-170 -280h-86zM100 974l111 248l-86 5v219h231v-192l-170 -280h-86z" />
    <glyph glyph-name="quotedblbase" unicode="&#x201e;" horiz-adv-x="850" 
d="M455 -249l111 246l-86 5v221h231v-192l-170 -280h-86zM87 -249l111 246l-86 5v221h231v-192l-170 -280h-86z" />
    <glyph glyph-name="dagger" unicode="&#x2020;" horiz-adv-x="915" 
d="M359 -322l36 1123l-364 -27v173l356 -24l-29 523h194l-31 -523l356 24v-173l-364 27l38 -1123h-192z" />
    <glyph glyph-name="daggerdbl" unicode="&#x2021;" horiz-adv-x="915" 
d="M358 -322l30 510l-357 -25v175l363 -28v477l-363 -27v173l356 -24l-29 537h193l-30 -537l356 24v-173l-362 27v-477l362 28v-175l-356 25l31 -510h-194z" />
    <glyph glyph-name="bullet" unicode="&#x2022;" horiz-adv-x="633" 
d="M311 539q-54 0 -98 26.5t-70.5 71.5t-26.5 99t26.5 98.5t70.5 70.5t98 26t98.5 -26t71 -70.5t26.5 -98.5t-26.5 -99t-71 -71.5t-98.5 -26.5z" />
    <glyph glyph-name="ellipsis" unicode="&#x2026;" horiz-adv-x="1535" 
d="M1195 0v236h220v-236h-220zM110 0v236h220v-236h-220zM653 0v236h220v-236h-220z" />
    <glyph glyph-name="perthousand" unicode="&#x2030;" horiz-adv-x="2609" 
d="M358 -8l977 1470h121l-972 -1470h-126zM450 643q-99 0 -176.5 51.5t-122.5 144t-45 215.5q0 124 45 217t122.5 145t176.5 52q97 0 174 -52t121 -145t44 -217q0 -123 -43.5 -215.5t-120.5 -144t-175 -51.5zM448 746q96 0 148.5 79t52.5 229q0 152 -53 231.5t-148 79.5
q-96 0 -148.5 -80t-52.5 -231q0 -149 52.5 -228.5t148.5 -79.5zM1355 -20q-99 0 -177 50.5t-122 143.5t-44 219q0 125 44.5 218t122.5 144.5t176 51.5t175 -51.5t121 -144.5t44 -218q0 -126 -43.5 -219t-120.5 -143.5t-176 -50.5zM1353 84q97 0 149 79t52 228
q0 153 -52.5 232.5t-148.5 79.5q-95 0 -147.5 -80t-52.5 -232q0 -148 52 -227.5t148 -79.5zM2156 -20q-99 0 -176.5 50.5t-122 143.5t-44.5 219q0 125 44.5 218t122.5 144.5t176 51.5t175 -51.5t121 -144.5t44 -218q0 -126 -43.5 -219t-120.5 -143.5t-176 -50.5zM2154 84
q97 0 149 79t52 228q0 153 -52.5 232.5t-148.5 79.5q-95 0 -148 -80t-53 -232q0 -148 52.5 -227.5t148.5 -79.5z" />
    <glyph glyph-name="guilsinglleft" unicode="&#x2039;" horiz-adv-x="556" 
d="M342 140l-261 362l262 378h106l-202 -378l199 -362h-104z" />
    <glyph glyph-name="guilsinglright" unicode="&#x203a;" horiz-adv-x="555" 
d="M110 140l199 362l-202 378h105l262 -378l-261 -362h-103z" />
    <glyph glyph-name="fraction" unicode="&#x2044;" horiz-adv-x="464" 
d="M-188 -8l-125 1l976 1469h121z" />
    <glyph glyph-name="uni2070" unicode="&#x2070;" horiz-adv-x="759" 
d="M379 732q-155 0 -239.5 120.5t-84.5 341.5q0 225 85.5 348.5t239.5 123.5t239 -123t85 -347q0 -221 -84.5 -342.5t-240.5 -121.5zM380 838q100 0 146.5 87t46.5 271q0 187 -47.5 276.5t-146.5 89.5q-98 0 -146 -90.5t-48 -275.5q0 -182 48 -270t147 -88z" />
    <glyph glyph-name="uni2074" unicode="&#x2074;" horiz-adv-x="785" 
d="M470 745v230h-424v109l421 570h123v-571h150v-108h-150v-230h-120zM165 1083h303v406z" />
    <glyph glyph-name="uni2075" unicode="&#x2075;" horiz-adv-x="796" 
d="M410 731q-128 0 -224.5 66t-130.5 171l106 43q33 -80 94 -128t147 -48q97 0 153.5 55.5t56.5 148.5q0 89 -58.5 142t-142.5 53q-56 0 -101.5 -15.5t-95.5 -74.5q-5 -1 -6.5 -0.5t-6.5 2.5l-100 31l41 477h546l-3 -106h-439l-22 -279q44 35 94.5 52.5t116.5 17.5
q82 0 151.5 -33.5t112 -99.5t42.5 -163q0 -143 -90 -227.5t-241 -84.5z" />
    <glyph glyph-name="uni2076" unicode="&#x2076;" horiz-adv-x="773" 
d="M401 734q-162 0 -254 122t-92 330q0 229 94.5 355t261.5 126q78 0 142.5 -29t106.5 -83t51 -129h-116q-18 66 -66 102t-116 36q-118 0 -175.5 -95.5t-50.5 -269.5q31 62 93 98t136 36q139 0 220.5 -78.5t81.5 -210.5q0 -93 -39.5 -163t-110.5 -108.5t-167 -38.5zM400 835
q81 0 134 56.5t53 147.5q0 96 -51.5 144.5t-136.5 48.5q-51 0 -95 -23.5t-71 -61t-27 -79.5q-1 -106 53.5 -169.5t140.5 -63.5z" />
    <glyph glyph-name="uni2077" unicode="&#x2077;" horiz-adv-x="712" 
d="M208 747q13 82 54 214t112.5 286t175.5 303h-504v107h640v-105q-60 -83 -118.5 -192t-107 -223.5t-80.5 -217t-40 -172.5h-132z" />
    <glyph glyph-name="uni2078" unicode="&#x2078;" horiz-adv-x="829" 
d="M414 734q-157 0 -253 71t-96 190q0 52 25.5 99.5t65.5 82t85 46.5q-64 29 -100 77.5t-36 116.5q0 117 86.5 183.5t222.5 66.5t222.5 -66.5t86.5 -183.5q0 -68 -35.5 -116.5t-99.5 -77.5q46 -12 85.5 -46.5t65 -82t25.5 -99.5q0 -119 -96 -190t-254 -71zM414 833
q100 0 158.5 44.5t58.5 118.5q0 75 -59.5 122t-157.5 47t-157.5 -47t-59.5 -122q0 -74 58.5 -118.5t158.5 -44.5zM414 1274q85 0 134 39t49 108q0 70 -50 112t-133 42q-82 0 -132.5 -42t-50.5 -112q0 -69 49 -108t134 -39z" />
    <glyph glyph-name="uni2079" unicode="&#x2079;" horiz-adv-x="776" 
d="M361 734q-78 0 -144 30t-108.5 84t-51.5 126h118q16 -61 65 -98.5t117 -37.5q118 0 182.5 90.5t58.5 277.5q-29 -64 -90 -103t-143 -39q-137 0 -220.5 79.5t-83.5 214.5q0 93 39 162.5t110 108t165 38.5q162 0 254 -122.5t92 -329.5q0 -236 -96 -358.5t-264 -122.5z
M378 1169q51 0 94.5 23.5t70.5 61.5t28 80q1 105 -53 168.5t-141 63.5q-81 0 -132 -55.5t-51 -147.5q0 -95 49.5 -144.5t134.5 -49.5z" />
    <glyph glyph-name="colonmonetary" unicode="&#x20a1;" horiz-adv-x="1377" 
d="M723 -20q-195 0 -332.5 89t-210 256t-72.5 403q0 235 72 400t209.5 251.5t333.5 86.5q153 0 271 -63.5t190 -169.5t85 -233h-197q-16 85 -61 154t-118 110t-175 41q-131 0 -221.5 -61.5t-137 -189.5t-46.5 -328q0 -302 103.5 -443.5t301.5 -141.5q102 0 175 43t118 115
t61 156h197q-11 -92 -49.5 -177.5t-105.5 -152.5t-164.5 -106t-226.5 -39zM411 -122l320 1682h101l-320 -1682h-101zM629 -122l320 1682h101l-320 -1682h-101z" />
    <glyph glyph-name="franc" unicode="&#x20a3;" horiz-adv-x="1216" 
d="M171 0v1446h946l-1 -160h-734v-499h615v-158h-615v-629h-211zM-14 266v116l722 2v-117z" />
    <glyph glyph-name="lira" unicode="&#x20a4;" horiz-adv-x="1226" 
d="M30 0v159h75q71 0 122 61.5t56 193.5q2 15 2 33t-2 41q-1 12 -16 12h-214v116h213l-29 178h-184v116h166l-8 61q-26 180 26 289t154.5 157.5t228.5 48.5q88 0 170.5 -30t146 -83t93.5 -124l-165 -58q-30 61 -81 99t-140 38q-66 0 -119.5 -26.5t-85 -76t-31.5 -120.5
q0 -23 5.5 -64.5t14.5 -91.5q3 -19 21 -19l315 2v-117l-315 -1l27 -178l288 2v-116h-284q0 -58 -11.5 -120.5t-37.5 -120t-68 -100.5h351q99 0 161.5 36.5t95.5 126.5l159 -42q-45 -139 -150.5 -210.5t-254.5 -71.5h-695z" />
    <glyph glyph-name="uni20A6" unicode="&#x20a6;" horiz-adv-x="1520" 
d="M222 0v1446h177l764 -1124v1124h185v-1446h-165l-776 1140v-1140h-185zM13 508v109l1493 1v-109zM13 874v109l1493 1v-109z" />
    <glyph glyph-name="uni20A9" unicode="&#x20a9;" horiz-adv-x="2057" 
d="M527 0l-416 1446h186l320 -1151l326 1151h145l325 -1151l326 1151h186l-422 -1446h-171l-317 1121l-322 -1121h-166zM27 642v116l1997 1v-116zM27 954v116l1997 1v-116z" />
    <glyph glyph-name="dong" unicode="&#x20ab;" horiz-adv-x="1017" 
d="M436 247q-99 0 -179 48t-127 143t-47 237q0 136 48 237.5t132 158t190 56.5q81 0 131.5 -26t91.5 -63q15 -11 20.5 -8.5t5.5 18.5v397h159v-1182h-155v117q-22 -23 -55 -54.5t-85 -55t-130 -23.5zM129 0v104h739v-104h-739zM492 363q60 0 106.5 27t72.5 67t26 81v374
q-44 46 -92 70.5t-108 24.5q-106 0 -174.5 -82t-68.5 -245q0 -112 32 -181.5t86 -102.5t120 -33zM437 1222v98h547v-98h-547z" />
    <glyph glyph-name="Euro" unicode="&#x20ac;" horiz-adv-x="1199" 
d="M750 -20q-140 0 -252 51.5t-191.5 149t-121 235.5t-41.5 310q0 231 73.5 396.5t208 254.5t318.5 89q109 0 206 -39.5t169 -109.5l-129 -114q-48 44 -103.5 74.5t-127.5 30.5q-127 0 -216 -64t-135.5 -193.5t-46.5 -326.5q0 -193 48 -321.5t140 -193t224 -64.5
q73 0 138 30t110 71l102 -118q-70 -65 -166 -106.5t-207 -41.5zM-19 508v117l792 1v-117zM-19 827v116l792 1v-116z" />
    <glyph glyph-name="uni20B9" unicode="&#x20b9;" horiz-adv-x="1169" 
d="M714 0l-244 673h-449v145h385q174 0 257.5 62t83.5 206q0 124 -75.5 184t-224.5 60h-426v116h451q234 0 364.5 -93.5t130.5 -270.5q0 -109 -41.5 -183t-106 -120t-134.5 -69q-14 -4 -7 -22l265 -688h-229zM23 1031v109l1106 2v-110zM23 1337v109l1106 1v-109z" />
    <glyph glyph-name="uni20BA" unicode="&#x20ba;" horiz-adv-x="1135" 
d="M236 0v1446h211v-1285h96q133 2 231 84t163 258l171 -38q-35 -105 -90.5 -190.5t-132.5 -147t-177 -94.5t-223 -33h-249zM86 389l-42 119l686 250l44 -119zM72 710l-42 119l687 250l45 -119z" />
    <glyph glyph-name="uni2113" unicode="&#x2113;" horiz-adv-x="1011" 
d="M540 -15q-153 0 -234.5 89.5t-102.5 271.5l-101 -70l-55 113l157 115v500q0 158 47.5 260t129.5 152t184 50q99 0 162.5 -41.5t94 -113t30.5 -160.5q0 -110 -40.5 -206.5t-108 -184t-148.5 -166t-163 -150.5q0 -173 43 -244.5t138 -71.5q72 0 132 35.5t127 130.5l74 -64
q-23 -48 -55.5 -92t-76.5 -78.5t-101.5 -54.5t-132.5 -20zM392 612q52 48 109 108.5t106 132t79.5 152t30.5 166.5q0 79 -36 122.5t-106 43.5q-57 0 -97.5 -33t-63 -112t-22.5 -218v-362z" />
    <glyph glyph-name="uni2116" unicode="&#x2116;" horiz-adv-x="2320" 
d="M191 0v1446h177l764 -1124v1124h185v-1446h-165l-776 1140v-1140h-185zM1913 795q-97 0 -167 42.5t-107.5 117.5t-37.5 172q0 101 39 177t109.5 118.5t163.5 42.5q97 0 167.5 -43t108.5 -119t38 -176q0 -97 -37.5 -172t-108 -117.5t-168.5 -42.5zM1913 890q89 0 133.5 64
t44.5 178q0 110 -44.5 173t-133.5 63q-87 0 -131 -63t-44 -173q0 -114 44 -178t131 -64z" />
    <glyph glyph-name="uni2117" unicode="&#x2117;" horiz-adv-x="1634" 
d="M814 -20q-154 0 -289 57.5t-237.5 159.5t-160 237t-57.5 290q0 153 57.5 287.5t160 236.5t237.5 160t289 58q153 0 287.5 -58t236.5 -160t160 -236.5t58 -287.5q0 -155 -58 -290t-160 -237t-236.5 -159.5t-287.5 -57.5zM814 105q125 0 235.5 43.5t195 124.5t132 195.5
t47.5 255.5q0 140 -47.5 254t-132 196t-195 126t-235.5 44q-129 0 -240 -44t-194.5 -126t-130 -196t-46.5 -254q0 -141 46.5 -255.5t130 -195.5t194.5 -124.5t240 -43.5zM549 332v776h308q83 0 148.5 -23.5t104 -72.5t38.5 -127q0 -124 -78 -186.5t-200 -62.5h-189v-304
h-132zM681 738h177q66 0 110.5 33.5t44.5 102.5q0 75 -47 102.5t-115 27.5h-170v-266z" />
    <glyph glyph-name="uni2120" unicode="&#x2120;" horiz-adv-x="1965" 
d="M979 0v904h161l272 -747l276 747h159v-904h-119v730l-262 -730h-108l-260 724v-724h-119zM421 -13q-88 0 -164.5 28.5t-127 85t-62.5 139.5h122q16 -77 81.5 -117t155.5 -40q86 0 149.5 41t63.5 115q0 54 -35 86.5t-109 52.5l-186 47q-95 24 -154.5 78t-59.5 158
q0 77 42 134t115 88.5t165 31.5q106 0 179 -37t110.5 -96.5t36.5 -128.5h-118q-6 62 -36.5 98t-76 52t-99.5 16q-97 0 -146.5 -44t-49.5 -105q0 -55 35 -87t105 -50l182 -47q120 -28 169 -92t49 -146q0 -75 -42 -134t-117.5 -93t-176.5 -34z" />
    <glyph glyph-name="trademark" unicode="&#x2122;" horiz-adv-x="1825" 
d="M839 0v904h161l272 -747l276 747h159v-904h-119v730l-262 -730h-108l-260 724v-724h-119zM315 0v798h-291v106h684v-106h-276v-798h-117z" />
    <glyph glyph-name="uni2126" unicode="&#x2126;" horiz-adv-x="1531" 
d="M169 0v168h313q-23 18 -66.5 54t-94.5 90.5t-98 129t-77 169.5t-30 212q0 131 42.5 253t126 218.5t205 153t278.5 56.5q160 0 281 -58t202.5 -155.5t123 -218.5t41.5 -247q0 -102 -21 -187t-65.5 -161t-115 -151t-170.5 -158h319v-168h-527v155q50 37 112.5 92.5
t120 133.5t94.5 182.5t37 237.5q0 111 -27.5 209t-82 172.5t-135 117t-187.5 42.5q-106 0 -187 -42t-136.5 -116t-84 -173t-28.5 -214q0 -138 40.5 -250t121.5 -208t202 -184v-155h-527z" />
    <glyph glyph-name="uni2153" unicode="&#x2153;" horiz-adv-x="1756" 
d="M220 536v718h-174v83q118 0 163 25.5t48 83.5h90v-910h-127zM335 -8l-125 1l976 1469h121zM1340 -14q-145 1 -232 77.5t-90 200.5h122q12 -84 67.5 -128t136.5 -44q99 0 157.5 44t58.5 115q0 75 -60.5 120.5t-163.5 46.5l-84 2v104l80 2q57 1 103 22t73.5 55.5t27.5 75.5
q0 56 -50.5 96.5t-141.5 40.5q-48 0 -91.5 -18.5t-72 -58t-29.5 -101.5h-121q-1 87 40.5 149.5t113 97t161.5 34.5q95 0 167 -27.5t113 -80t41 -128.5q0 -67 -41.5 -120t-123.5 -84q84 -25 137 -82t53 -146q0 -84 -46 -143.5t-125.5 -91t-179.5 -30.5z" />
    <glyph glyph-name="uni2154" unicode="&#x2154;" horiz-adv-x="2061" 
d="M65 537v74v36q0 82 34.5 138.5t89 97t115.5 73t115.5 65.5t89 75.5t34.5 102.5q0 68 -47.5 109.5t-128.5 41.5q-84 0 -139 -47.5t-62 -135.5h-120q0 80 37 146t109.5 106t179.5 40q138 0 218.5 -71.5t80.5 -188.5q0 -81 -34 -137t-87 -95.5t-113.5 -70.5t-114 -62.5
t-87.5 -72.5t-34 -100v-15h476v-109h-612zM639 -8l-125 1l976 1469h121zM1645 -14q-145 1 -232 77.5t-90 200.5h122q12 -84 67.5 -128t136.5 -44q99 0 157.5 44t58.5 115q0 75 -60.5 120.5t-163.5 46.5l-84 2v104l80 2q57 1 103 22t73.5 55.5t27.5 75.5q0 56 -50.5 96.5
t-141.5 40.5q-48 0 -91.5 -18.5t-72 -58t-29.5 -101.5h-121q-1 87 40.5 149.5t113 97t161.5 34.5q95 0 167 -27.5t113 -80t41 -128.5q0 -67 -41.5 -120t-123.5 -84q84 -25 137 -82t53 -146q0 -84 -46 -143.5t-125.5 -91t-179.5 -30.5z" />
    <glyph glyph-name="oneeighth" unicode="&#x215b;" horiz-adv-x="1782" 
d="M220 536v718h-174v83q118 0 163 25.5t48 83.5h90v-910h-127zM335 -8l-125 1l976 1469h121zM1367 -11q-157 0 -253 71t-96 190q0 52 25.5 99.5t65.5 82t85 46.5q-64 29 -100 77.5t-36 116.5q0 117 86.5 183.5t222.5 66.5t222.5 -66.5t86.5 -183.5q0 -68 -35.5 -116.5
t-99.5 -77.5q46 -12 85.5 -46.5t65 -82t25.5 -99.5q0 -119 -96 -190t-254 -71zM1367 88q100 0 158.5 44.5t58.5 118.5q0 75 -59.5 122t-157.5 47t-157.5 -47t-59.5 -122q0 -74 58.5 -118.5t158.5 -44.5zM1367 529q85 0 134 39t49 108q0 70 -50 112t-133 42q-82 0 -132.5 -42
t-50.5 -112q0 -69 49 -108t134 -39z" />
    <glyph glyph-name="threeeighths" unicode="&#x215c;" horiz-adv-x="2035" 
d="M387 526q-145 1 -232 77.5t-90 200.5h122q12 -84 67.5 -128t136.5 -44q99 0 157.5 44t58.5 115q0 75 -60.5 120.5t-163.5 46.5l-84 2v104l80 2q57 1 103 22t73.5 55.5t27.5 75.5q0 56 -50.5 96.5t-141.5 40.5q-48 0 -91.5 -19t-72 -58t-29.5 -101h-121q-1 87 40.5 149.5
t113 97t161.5 34.5q95 0 167 -27.5t113 -80t41 -128.5q0 -67 -41.5 -120t-123.5 -84q84 -25 137 -82t53 -146q0 -84 -46 -143.5t-125.5 -91t-179.5 -30.5zM588 -8l-125 1l976 1469h121zM1621 -11q-157 0 -253 71t-96 190q0 52 25.5 99.5t65.5 82t85 46.5q-64 29 -100 77.5
t-36 116.5q0 117 86.5 183.5t222.5 66.5t222.5 -66.5t86.5 -183.5q0 -68 -35.5 -116.5t-99.5 -77.5q46 -12 85.5 -46.5t65 -82t25.5 -99.5q0 -119 -96 -190t-254 -71zM1621 88q100 0 158.5 44.5t58.5 118.5q0 75 -59.5 122t-157.5 47t-157.5 -47t-59.5 -122
q0 -74 58.5 -118.5t158.5 -44.5zM1621 529q85 0 134 39t49 108q0 70 -50 112t-133 42q-82 0 -132.5 -42t-50.5 -112q0 -69 49 -108t134 -39z" />
    <glyph glyph-name="fiveeighths" unicode="&#x215d;" horiz-adv-x="2028" 
d="M410 523q-128 0 -224.5 66t-130.5 171l106 43q33 -80 94 -128t147 -48q97 0 153.5 55.5t56.5 148.5q0 89 -58.5 142t-142.5 53q-56 0 -101.5 -15.5t-95.5 -74.5q-5 -1 -6.5 -0.5t-6.5 2.5l-100 31l41 477h546l-3 -106h-439l-22 -279q44 35 94.5 52.5t116.5 17.5
q82 0 151.5 -33.5t112 -99.5t42.5 -163q0 -143 -90 -227.5t-241 -84.5zM581 -8l-125 1l976 1469h121zM1614 -11q-157 0 -253 71t-96 190q0 52 25.5 99.5t65.5 82t85 46.5q-64 29 -100 77.5t-36 116.5q0 117 86.5 183.5t222.5 66.5t222.5 -66.5t86.5 -183.5
q0 -68 -35.5 -116.5t-99.5 -77.5q46 -12 85.5 -46.5t65 -82t25.5 -99.5q0 -119 -96 -190t-254 -71zM1614 88q100 0 158.5 44.5t58.5 118.5q0 75 -59.5 122t-157.5 47t-157.5 -47t-59.5 -122q0 -74 58.5 -118.5t158.5 -44.5zM1614 529q85 0 134 39t49 108q0 70 -50 112
t-133 42q-82 0 -132.5 -42t-50.5 -112q0 -69 49 -108t134 -39z" />
    <glyph glyph-name="seveneighths" unicode="&#x215e;" horiz-adv-x="1852" 
d="M208 537q13 82 54 214t112.5 286t175.5 303h-504v107h640v-105q-60 -83 -118.5 -192t-107 -223.5t-80.5 -217t-40 -172.5h-132zM404 -8l-125 1l976 1469h121zM1437 -11q-157 0 -253 71t-96 190q0 52 25.5 99.5t65.5 82t85 46.5q-64 29 -100 77.5t-36 116.5
q0 117 86.5 183.5t222.5 66.5t222.5 -66.5t86.5 -183.5q0 -68 -35.5 -116.5t-99.5 -77.5q46 -12 85.5 -46.5t65 -82t25.5 -99.5q0 -119 -96 -190t-254 -71zM1437 88q100 0 158.5 44.5t58.5 118.5q0 75 -59.5 122t-157.5 47t-157.5 -47t-59.5 -122q0 -74 58.5 -118.5
t158.5 -44.5zM1437 529q85 0 134 39t49 108q0 70 -50 112t-133 42q-82 0 -132.5 -42t-50.5 -112q0 -69 49 -108t134 -39z" />
    <glyph glyph-name="partialdiff" unicode="&#x2202;" horiz-adv-x="1180" 
d="M565 -20q-142 0 -247.5 61.5t-163.5 166.5t-58 236t57 230.5t163.5 155t256.5 55.5q70 0 120 -12t91 -34t85 -50q18 -12 23 -7.5t5 13.5q0 119 -25 215t-75 164t-126 104.5t-177 36.5q-98 0 -162 -30t-118 -66l-58 115q33 34 92 64t134 49t157 19q164 0 286 -81.5
t189 -246t67 -413.5q0 -233 -59.5 -400t-174.5 -256t-282 -89zM551 127h2q87 0 158 52.5t117 147t58 219.5q3 31 1 44.5t-13 25.5q-27 35 -74 64.5t-104 47t-116 17.5q-87 0 -154 -40.5t-105.5 -110.5t-38.5 -159t36.5 -158.5t97.5 -109.5t135 -40z" />
    <glyph glyph-name="emptyset" unicode="&#x2205;" horiz-adv-x="1158" 
d="M182 278l-76 78l864 795l72 -77zM577 308q-115 0 -210 56.5t-151.5 152t-56.5 211.5q0 115 56.5 210t151.5 151.5t210 56.5t210.5 -56.5t152.5 -151.5t57 -210q0 -116 -57 -211.5t-152.5 -152t-210.5 -56.5zM577 410q88 0 160 43t115 115t43 160q0 86 -43 158t-115 115
t-160 43t-159.5 -43t-114 -115t-42.5 -158q0 -88 42.5 -160t114 -115t159.5 -43z" />
    <glyph glyph-name="uni2206" unicode="&#x2206;" horiz-adv-x="1407" 
d="M37 0l672 1446l661 -1446h-1333zM310 164h791l-392 895z" />
    <glyph glyph-name="product" unicode="&#x220f;" horiz-adv-x="1312" 
d="M231 0v1286h-198v160h1239v-160h-200v-1286h-194v1286h-451v-1286h-196z" />
    <glyph glyph-name="summation" unicode="&#x2211;" horiz-adv-x="1057" 
d="M53 0v122l429 599l-402 591v134h888v-156h-633l380 -552l-414 -575h703v-163h-951z" />
    <glyph glyph-name="minus" unicode="&#x2212;" horiz-adv-x="1109" 
d="M123 654v144l863 1v-143z" />
    <glyph glyph-name="uni2215" unicode="&#x2215;" horiz-adv-x="1190" 
d="M222 -8l-126 1l876 1469h122z" />
    <glyph glyph-name="uni2219" unicode="&#x2219;" horiz-adv-x="636" 
d="M313 610q-51 0 -87 36.5t-36 88.5q0 51 36 87t87 36t87 -36t36 -87q0 -52 -36 -88.5t-87 -36.5z" />
    <glyph glyph-name="radical" unicode="&#x221a;" horiz-adv-x="1265" 
d="M555 -322l-331 897l-151 -59l-43 119l307 113l310 -878l459 1781h162l-517 -1973h-196z" />
    <glyph glyph-name="infinity" unicode="&#x221e;" horiz-adv-x="1466" 
d="M403 212q-82 0 -152 40t-112 113t-42 171t42 171t116.5 113.5t170.5 40.5q70 0 120 -22t90 -59t82 -83q16 -15 24 -15t22 15q32 36 72.5 74t95 64t129.5 26q86 0 154 -38.5t107.5 -108.5t39.5 -167v-2q0 -106 -43.5 -180.5t-116 -113.5t-158.5 -39q-70 0 -121.5 24
t-93 65t-83.5 89q-10 12 -15.5 13.5t-17.5 -13.5q-12 -13 -37.5 -41.5t-63.5 -60.5t-90 -54t-119 -22zM413 347h5q46 0 88 23.5t76 56.5t56 64q19 26 18 39t-21 43q-48 74 -101.5 116.5t-122.5 42.5q-78 0 -128 -53t-50 -137q0 -86 52.5 -140.5t127.5 -54.5zM1060 347
q54 0 90.5 29t55.5 73t19 91q0 76 -46 134t-125 58h-2q-71 0 -126 -49.5t-100 -101.5q-19 -23 -15.5 -43.5t15.5 -34.5q49 -69 93.5 -102t81 -43.5t59.5 -10.5z" />
    <glyph glyph-name="integral" unicode="&#x222b;" horiz-adv-x="880" 
d="M242 -343q-53 0 -91 5.5t-69.5 17.5t-64.5 32l46 164q43 -24 79 -35.5t84 -11.5q66 0 112.5 50t46.5 168q0 150 -12 306.5t-28 312t-28 306t-12 288.5q0 136 40 227t112.5 137.5t171.5 46.5q55 0 93.5 -5.5t70 -18t63.5 -32.5l-44 -163q-44 23 -80.5 35t-85.5 12
q-69 0 -116 -50t-47 -166q0 -151 12 -307t27 -311.5t27 -305t12 -285.5q0 -139 -39.5 -231.5t-111.5 -139t-168 -46.5z" />
    <glyph glyph-name="approxequal" unicode="&#x2248;" horiz-adv-x="1142" 
d="M177 766l-54 105q56 56 118 96.5t152 40.5q57 0 103.5 -16t89 -36.5t85 -36.5t92.5 -16q75 0 122 34.5t79 76.5l55 -108q-35 -56 -100.5 -93.5t-153.5 -37.5q-57 0 -103 15.5t-87 36.5t-84 36.5t-96 15.5q-76 0 -127.5 -35.5t-90.5 -77.5zM177 368l-54 107
q56 56 118 95.5t152 39.5q57 0 103.5 -16t89 -36.5t85 -36.5t92.5 -16q75 0 122 35t79 77l55 -107q-35 -56 -100.5 -94t-153.5 -38q-59 0 -105.5 16t-88 36.5t-83.5 36.5t-93 16q-76 0 -127.5 -36t-90.5 -79z" />
    <glyph glyph-name="notequal" unicode="&#x2260;" horiz-adv-x="1109" 
d="M226 118l510 1143h104l-504 -1143h-110zM123 848v143l863 1v-143zM123 404v143l863 2v-144z" />
    <glyph glyph-name="lessequal" unicode="&#x2264;" horiz-adv-x="1109" 
d="M977 455l-843 332v168l844 333v-173l-623 -245l622 -243v-172zM123 113v143l863 -1v-143z" />
    <glyph glyph-name="greaterequal" unicode="&#x2265;" horiz-adv-x="1109" 
d="M132 455v172l624 243l-625 245v173l844 -333v-168zM123 112v143l863 1v-143z" />
    <glyph glyph-name="lozenge" unicode="&#x25ca;" horiz-adv-x="977" 
d="M418 0l-324 723l335 723h145l326 -719l-336 -727h-146zM498 145l242 578l-242 577l-242 -569z" />
    <glyph glyph-name="i.loclTRK" horiz-adv-x="484" 
d="M153 0v1034h178v-1034h-178zM149 1267v179h187v-179h-187z" />
    <glyph glyph-name="g.ss01" horiz-adv-x="1189" 
d="M578 -337q-89 0 -163.5 25t-130 68t-89.5 97t-44 112h177q21 -77 91.5 -118t157.5 -43q109 -1 176.5 37t99 98.5t31.5 126.5l2 122q-45 -87 -131.5 -123t-197.5 -36q-97 0 -179.5 37t-143 103t-95 155.5t-37.5 196.5q-3 103 25.5 197.5t85.5 170.5t141.5 119.5
t194.5 43.5q83 0 148.5 -29.5t109 -70.5t61.5 -74l2 154h177l6 -932q0 -139 -60.5 -237t-168 -149t-246.5 -51zM602 171q108 0 167 37.5t82 97t22 124.5l-3 226q0 60 -37.5 119t-100 98.5t-139.5 39.5q-98 0 -165.5 -51.5t-102.5 -140t-35 -200.5q0 -101 39 -180
t109.5 -124.5t163.5 -45.5z" />
    <glyph glyph-name="l.ss01" horiz-adv-x="557" 
d="M186 0v1486h185v-1486h-185z" />
    <glyph glyph-name="zero.osf" horiz-adv-x="1224" 
d="M611 -22q-237 0 -376 186.5t-139 552.5q0 247 64 414t180 251t273 84q235 0 374.5 -188.5t139.5 -557.5q0 -367 -139 -554.5t-377 -187.5zM613 138q155 0 234.5 136.5t79.5 444.5q0 314 -80.5 452.5t-234.5 138.5q-153 0 -235.5 -139.5t-82.5 -451.5q0 -307 82 -444
t237 -137z" />
    <glyph glyph-name="one.osf" horiz-adv-x="814" 
d="M372 0v1151h-279v121q130 0 202 19t102.5 58t33.5 97h132v-1446h-191z" />
    <glyph glyph-name="two.osf" horiz-adv-x="1192" 
d="M124 0v113v59q0 111 41.5 192t110 141.5t150 108.5t163 92.5t149.5 93t109.5 110t41.5 145.5q0 110 -77.5 179t-209.5 69q-142 0 -228 -80t-97 -213h-184q3 125 62 228.5t173 165.5t281 62q145 0 252 -51.5t165.5 -144t58.5 -215.5q0 -112 -41 -192t-108.5 -138.5
t-147.5 -104.5t-161 -88.5t-148 -89t-108 -106.5t-41 -143v-29h763v-164h-969z" />
    <glyph glyph-name="three.osf" horiz-adv-x="1260" 
d="M607 -15q-149 1 -262.5 55t-178.5 151.5t-70 231.5h185q21 -135 110 -207t223 -72q106 0 185 33.5t122 92.5t43 138q0 87 -48 147t-131 91.5t-185 32.5l-130 3v157l124 3q95 2 170 36.5t118.5 91t43.5 124.5q0 60 -37 111.5t-106.5 82.5t-168.5 31q-78 0 -149 -30.5
t-117 -93.5t-49 -163h-184q0 140 68 238.5t181.5 150.5t250.5 52q150 0 265 -43.5t180 -126.5t65 -203q0 -107 -68 -193.5t-208 -135.5q95 -26 166 -76t110 -122.5t39 -166.5q0 -99 -41.5 -177.5t-116.5 -133t-177 -83t-222 -27.5z" />
    <glyph glyph-name="four.osf" horiz-adv-x="1257" 
d="M774 0v369h-681v169l674 908h188v-914h240v-163h-240v-369h-181zM270 532h500v671z" />
    <glyph glyph-name="five.osf" horiz-adv-x="1281" 
d="M659 -22q-134 0 -248 47t-195.5 131t-119.5 193l160 67q36 -82 90.5 -146t129.5 -100t170 -36q154 0 247.5 89.5t93.5 243.5q0 96 -44 167.5t-118.5 111.5t-164.5 40q-59 0 -110 -10.5t-101 -40.5t-105 -91q-6 -3 -9 -2.5t-10 3.5l-156 49l65 752h863l-5 -160h-700
l-37 -467q72 67 157.5 95.5t185.5 28.5q131 0 241.5 -53.5t177.5 -158t67 -258.5q0 -150 -65 -261t-183 -172.5t-277 -61.5z" />
    <glyph glyph-name="six.osf" horiz-adv-x="1245" 
d="M646 -22q-168 0 -291.5 87t-191 248.5t-67.5 387.5q0 232 65.5 404t191.5 266.5t309 94.5q120 0 221.5 -45t168.5 -129t83 -203h-174q-29 103 -105 163t-191 60q-128 0 -213.5 -72.5t-124.5 -212t-27 -342.5q27 73 82.5 128.5t129.5 86t160 30.5q143 0 250 -55.5
t167 -158t60 -244.5q0 -145 -61.5 -256.5t-174.5 -174.5t-267 -63zM644 131q89 0 158 42t108.5 117t39.5 173q0 99 -35.5 170t-104.5 109t-168 38q-79 0 -151.5 -37.5t-118 -98.5t-45.5 -135q-1 -110 38.5 -195.5t111.5 -134t167 -48.5z" />
    <glyph glyph-name="seven.osf" horiz-adv-x="1201" 
d="M354 0q16 99 57.5 245t109.5 319.5t164 358.5t220 363h-812v160h1015v-160q-77 -105 -152.5 -238.5t-143.5 -279t-122 -287t-89.5 -266t-45.5 -215.5h-201z" />
    <glyph glyph-name="eight.osf" horiz-adv-x="1295" 
d="M647 -22q-166 0 -290 51.5t-192.5 144.5t-68.5 218q0 84 42.5 161t109.5 131t140 68q-99 42 -163.5 122t-64.5 198q0 126 64 214t174.5 134t248.5 46q139 0 249 -46t174 -134t64 -214q0 -118 -63.5 -198t-163.5 -122q73 -14 139.5 -68t109.5 -131t43 -161
q0 -125 -68.5 -218t-192.5 -144.5t-291 -51.5zM647 128q161 0 257 72.5t96 192.5q0 79 -43.5 141t-122.5 97.5t-187 35.5q-107 0 -185.5 -35.5t-122 -97.5t-43.5 -141q0 -120 95.5 -192.5t255.5 -72.5zM647 830q132 0 214.5 65t82.5 181q0 117 -83 184.5t-214 67.5t-214 -68
t-83 -184t83 -181t214 -65z" />
    <glyph glyph-name="nine.osf" horiz-adv-x="1249" 
d="M581 -22q-120 0 -223.5 45.5t-173 129.5t-85.5 201h180q25 -99 104 -160.5t192 -61.5q128 0 219.5 67t136.5 207t34 359q-25 -76 -79 -133.5t-130 -90.5t-168 -33q-143 0 -252 56t-169.5 160t-60.5 249t60 256t172 174t266 63q168 0 291 -86.5t190 -248t67 -387.5
q0 -243 -66.5 -414t-194 -261.5t-310.5 -90.5zM608 665q80 0 152 37t117.5 98.5t45.5 134.5q1 112 -38 197.5t-111 134t-168 48.5q-88 0 -155.5 -42t-106 -117t-38.5 -174q0 -145 77 -231t225 -86z" />
    <glyph glyph-name="zero.tf" horiz-adv-x="1400" 
d="M699 -22q-237 0 -376 186.5t-139 552.5q0 247 64 414t180 251t273 84q235 0 374.5 -188.5t139.5 -557.5q0 -367 -139 -554.5t-377 -187.5zM701 138q155 0 234.5 136.5t79.5 444.5q0 314 -80.5 452.5t-234.5 138.5q-153 0 -235.5 -139.5t-82.5 -451.5q0 -307 82 -444
t237 -137z" />
    <glyph glyph-name="one.tf" horiz-adv-x="1400" 
d="M640 1v1245l-415 -155v171l499 185h101v-1446h-185zM202 0v164h1046v-164h-1046z" />
    <glyph glyph-name="two.tf" horiz-adv-x="1400" 
d="M244 0v113v59q0 111 41.5 192t110 141.5t150 108.5t163 92.5t149.5 93t109.5 110t41.5 145.5q0 110 -77.5 179t-209.5 69q-142 0 -228 -80t-97 -213h-184q3 125 62 228.5t173 165.5t281 62q145 0 252 -51.5t165.5 -144t58.5 -215.5q0 -112 -41 -192t-108.5 -138.5
t-147.5 -104.5t-161 -88.5t-148 -89t-108 -106.5t-41 -143v-29h763v-164h-969z" />
    <glyph glyph-name="three.tf" horiz-adv-x="1400" 
d="M686 -22q-149 1 -262.5 55t-178.5 151.5t-70 231.5h185q21 -135 110 -207t223 -72q106 0 185 33.5t122 92.5t43 138q0 87 -48 147t-131 91.5t-185 32.5l-130 3v157l124 3q95 2 170 36.5t118.5 91t43.5 124.5q0 60 -37 111.5t-106.5 82.5t-168.5 31q-78 0 -149 -30.5
t-117 -93.5t-49 -163h-184q0 140 68 238.5t181.5 150.5t250.5 52q150 0 265 -43.5t180 -126.5t65 -203q0 -107 -68 -193.5t-208 -135.5q95 -26 166 -76t110 -122.5t39 -166.5q0 -99 -41.5 -177.5t-116.5 -133t-177 -83t-222 -27.5z" />
    <glyph glyph-name="four.tf" horiz-adv-x="1400" 
d="M828 0v369h-681v169l674 908h188v-914h240v-163h-240v-369h-181zM324 532h500v671z" />
    </font>
</defs>
</svg>
